<svg width="132" height="130" viewBox="0 0 132 130" fill="none" xmlns="http://www.w3.org/2000/svg">
<g clip-path="url(#clip0_1194_47)">
<path d="M131.226 73.2438C131.226 73.1401 131.088 59.9016 131.019 59.5906C130.014 55.1662 126.098 52.7466 122.771 52.7812C115.945 52.8158 109.084 52.7812 102.258 52.7812C101.807 52.7812 101.357 52.7466 100.872 52.7121C99.1043 52.7121 97.3717 52.7121 95.6737 52.7121C94.9807 52.7466 94.357 52.7812 93.7679 52.7812C80.0458 52.7812 66.3237 52.7812 52.5669 52.7812C51.458 52.7812 50.2799 52.8158 49.2403 53.0923C45.394 54.0947 42.8644 57.4129 42.8297 61.388C42.7951 64.9482 42.8644 68.543 42.7951 72.1032C42.7604 74.5228 43.7307 76.8386 45.3593 78.636C45.4979 78.7743 45.6019 78.9471 45.7405 79.1199C45.5672 79.3619 45.4633 79.5693 45.29 79.7421C43.5921 81.5741 42.7951 84.0282 42.8297 86.5169C42.8644 89.8006 42.8644 93.0497 42.8297 96.3334C42.7951 97.9234 43.1416 99.548 43.9039 100.965C44.3198 101.691 44.8395 102.279 45.3593 102.935C45.9137 103.661 45.1861 103.8 44.6316 104.387C44.3891 104.664 44.2158 104.975 44.0425 105.286C43.6614 105.977 43.2802 106.668 43.0376 107.429C42.6565 108.639 42.7951 109.952 42.7951 111.197C42.7951 112.441 42.7951 113.685 42.8297 114.93C42.8297 117.003 42.8644 119.043 42.8644 121.117C42.899 125.299 45.5672 128.687 49.6561 129.654C49.968 129.723 50.2799 129.896 50.6264 130H123.395C123.707 129.896 124.054 129.758 124.365 129.689C127.969 128.79 130.222 126.543 131.123 122.949C131.192 122.603 131.192 108.812 131.157 108.57C130.845 106.565 129.771 104.975 128.316 103.523C128.628 103.143 128.87 102.832 129.147 102.521C130.152 101.415 130.776 99.9974 131.123 98.5456C131.192 98.2345 131.226 84.443 131.123 84.201C130.776 83.2678 130.533 82.2999 130.083 81.4358C129.633 80.6062 128.974 79.9149 128.385 79.0854C129.078 78.2212 129.806 77.3571 130.429 76.4584C130.984 75.5251 131.192 74.3845 131.226 73.2438ZM46.9186 62.1829C46.9533 58.5882 48.7552 56.8599 52.3243 56.8599C75.4371 56.8599 98.5845 56.8599 121.697 56.8945C122.667 56.8945 123.707 57.0673 124.573 57.4821C126.167 58.2425 126.999 59.6597 126.999 61.4571C126.999 65.121 127.034 68.7849 126.999 72.4834C126.964 75.0067 125.301 76.8041 122.771 77.0115C121.94 77.0806 121.143 77.0806 120.311 77.0806C109.223 77.0806 98.134 77.0806 87.0454 77.0806C75.8876 77.0806 64.695 77.0806 53.5371 77.0806C52.7055 77.0806 51.8739 77.0806 51.0769 76.9769C48.8938 76.7695 47.3691 75.2486 47.0573 73.071C46.988 72.6562 46.9533 72.2069 46.9533 71.7921C46.884 68.5775 46.884 65.363 46.9186 62.1829ZM126.999 120.771C126.999 123.882 125.197 125.679 122.078 125.679C110.401 125.679 98.6884 125.679 87.0108 125.679C75.3331 125.679 63.6208 125.679 51.9432 125.679C50.5224 125.679 49.3096 125.334 48.2701 124.331C47.3345 123.398 46.9533 122.223 46.9533 120.909C46.9186 117.384 46.8493 113.823 46.988 110.298C47.0919 107.221 48.9285 105.562 51.9778 105.562C75.3331 105.562 98.6538 105.562 122.009 105.562C125.197 105.562 127.034 107.36 127.034 110.505C126.999 113.927 126.999 117.349 126.999 120.771ZM122.113 101.38C110.366 101.311 98.6538 101.345 86.9068 101.345C75.2985 101.345 63.6901 101.345 52.0818 101.345C50.9383 101.345 49.8294 101.242 48.8938 100.516C47.8889 99.7554 47.1612 98.7876 47.0573 97.5087C46.9533 96.2989 46.9186 95.0891 46.9186 93.8793C46.9186 91.2869 46.884 88.6945 46.9533 86.1021C47.0226 83.4752 48.374 81.7815 50.661 81.2975C51.1115 81.1938 51.5966 81.1938 52.0818 81.1938C75.3678 81.1938 98.6884 81.1939 121.974 81.1593C124.851 81.1593 127.172 83.2332 127.034 86.2749C126.895 89.6278 126.895 93.0152 127.034 96.368C127.138 99.0295 125.093 101.38 122.113 101.38Z" fill="#202833"/>
<path d="M102.985 48.3223C104.96 48.9099 106.589 48.3568 107.767 46.6977C108.46 45.7644 109.084 44.762 109.742 43.7942C111.336 41.3401 110.99 39.197 108.633 37.5033C104.233 34.2888 70.863 10.335 58.5616 1.55545C57.6953 0.933273 56.6904 0.553055 55.7548 0.0345764C55.4082 0.0345764 55.131 0.0691417 54.7845 0.0691417C52.151 1.86654 49.4828 3.5948 46.8493 5.42676C44.1811 7.29328 38.1863 11.5794 37.6319 11.9596C37.5972 11.372 37.5626 10.9918 37.5279 10.6115C37.424 7.12046 35.1369 4.73545 31.6718 4.59719C29.8006 4.4935 27.8601 4.4935 25.9196 4.56263C22.3851 4.73545 20.0981 7.18959 20.0981 10.7152C20.0981 14.8976 20.0634 19.08 20.1327 23.2624C20.1327 24.2994 19.7862 24.9216 18.9546 25.5092C13.7568 29.1731 8.62832 32.9407 3.4652 36.6046C2.00982 37.6416 0.623749 38.7131 0.034668 40.4759C0.0693198 40.8562 0.138623 41.3401 0.173275 41.7203C1.14353 43.3449 2.04447 45.004 3.08403 46.594C4.29684 48.426 5.89082 48.9099 8.07389 48.2531C8.31645 48.184 8.55901 48.1494 9.00949 48.0457C9.00949 48.737 9.00949 86.5169 9.00949 104.836C9.00949 105.943 9.07879 107.083 9.2867 108.189C10.0144 111.853 13.3063 114.618 17.0834 114.86C17.7417 114.895 29.3154 114.895 36.2112 114.93C37.3547 114.93 38.2556 113.996 38.2556 112.89V112.856C38.2556 111.75 37.3547 110.816 36.2112 110.816C30.2164 110.816 24.2563 110.816 18.2615 110.816C15.628 110.816 13.8261 109.468 13.3063 107.187C13.237 106.807 13.2024 106.426 13.2024 106.081C13.2024 86.0675 13.2024 66.0197 13.1677 46.0064C13.1677 45.1423 13.4103 44.5892 14.138 44.0707C27.5829 34.4616 55.0617 14.7594 55.4776 14.4829C55.8587 14.6903 102.673 48.2186 102.985 48.3223ZM24.3256 10.8881C24.3256 9.2635 24.8107 8.77959 26.4047 8.77959C28.1026 8.77959 29.7659 8.74502 31.4639 8.77959C32.8153 8.81415 33.3351 9.33263 33.3697 10.6807C33.4044 11.8905 33.4044 13.1002 33.3351 14.31C33.3004 14.7248 33.0925 15.2779 32.7806 15.5198C30.251 17.3863 27.6868 19.2183 25.1226 21.0503C24.9493 21.154 24.7414 21.1885 24.4295 21.3268C24.3949 20.8429 24.3256 20.4627 24.3256 20.117C24.3256 17.0061 24.2909 13.9644 24.3256 10.8881ZM58.8041 11.6485C57.9378 11.0263 56.9676 10.5079 55.928 10.2659C54.6806 9.92024 53.6064 10.5424 52.5668 11.2683C45.879 16.1074 39.1566 20.912 32.4341 25.7511C24.2909 31.5927 16.1131 37.4688 7.96993 43.3103C7.55411 43.6214 7.10364 43.8979 6.4799 44.3127C5.75222 43.2066 5.09383 42.2388 4.33149 41.1327C21.4841 28.8274 38.4289 16.6259 55.4429 4.3898C72.4916 16.6605 89.4363 28.8274 106.485 41.0636C105.757 42.2042 105.134 43.172 104.441 44.2436C103.817 43.8288 103.262 43.5177 102.777 43.172C88.1196 32.6642 73.4965 22.1563 58.8041 11.6485Z" fill="#202833"/>
<path d="M118.163 67.0221C118.163 66.5382 118.093 66.0543 118.163 65.6049C118.301 64.6371 119.133 63.8421 120.103 63.773C121.004 63.7038 122.044 64.3606 122.182 65.363C122.321 66.3999 122.321 67.506 122.182 68.5775C122.009 69.6491 121.177 70.1675 120.103 70.0984C119.098 70.0638 118.336 69.3725 118.197 68.3356C118.128 67.8862 118.163 67.4369 118.163 67.0221Z" fill="#202833"/>
<path d="M104.51 67.0566C104.51 67.4714 104.544 67.9208 104.51 68.3356C104.371 69.3725 103.644 70.0293 102.604 70.0638C101.495 70.0984 100.629 69.4417 100.525 68.3701C100.456 67.4369 100.456 66.469 100.525 65.5358C100.594 64.5334 101.599 63.7038 102.569 63.7384C103.54 63.7729 104.406 64.5334 104.51 65.5012C104.544 66.0197 104.51 66.5382 104.51 67.0566Z" fill="#202833"/>
<path d="M95.6736 67.0221C95.6736 67.4369 95.7083 67.8862 95.6736 68.301C95.535 69.3725 94.738 70.0638 93.6292 70.0638C92.5203 70.0638 91.7233 69.3725 91.654 68.2664C91.5847 67.3677 91.5847 66.469 91.654 65.5703C91.7233 64.5334 92.6589 63.7384 93.6638 63.7384C94.6687 63.7384 95.535 64.5679 95.6736 65.6049C95.7083 66.0888 95.6736 66.5727 95.6736 67.0221Z" fill="#202833"/>
<path d="M113.45 66.9529C113.415 67.4369 113.415 67.9208 113.381 68.3701C113.242 69.4416 112.514 70.0638 111.44 70.0638C110.366 70.0984 109.465 69.4071 109.361 68.3701C109.257 67.4369 109.257 66.469 109.361 65.5358C109.465 64.5334 110.47 63.7384 111.44 63.7729C112.376 63.8075 113.208 64.5679 113.381 65.5358C113.415 65.9851 113.415 66.469 113.45 66.9529Z" fill="#202833"/>
<path d="M62.7891 66.8492C62.7891 66.469 62.7544 66.0888 62.7891 65.674C62.893 64.5679 63.794 63.7038 64.8335 63.7384C65.8384 63.7729 66.7394 64.5679 66.8087 65.6049C66.878 66.5036 66.878 67.4023 66.8087 68.301C66.7047 69.3725 65.8731 70.0638 64.7642 70.0638C63.6554 70.0638 62.893 69.3725 62.7891 68.2664C62.7544 67.8171 62.7891 67.3332 62.7891 66.8492Z" fill="#202833"/>
<path d="M57.9725 67.0566C57.9725 67.4714 58.0071 67.9208 57.9725 68.3355C57.8339 69.4071 57.0022 70.0638 55.8934 70.0638C54.8538 70.0292 54.0568 69.4071 53.9529 68.3701C53.8836 67.4368 53.8836 66.469 53.9529 65.5358C54.0222 64.5334 54.8885 63.8075 55.8587 63.7384C56.829 63.7038 57.7992 64.4988 57.9378 65.5012C58.0071 66.0197 57.9725 66.5381 57.9725 67.0566Z" fill="#202833"/>
<path d="M118.163 91.2523C118.163 90.8721 118.128 90.4573 118.163 90.0771C118.267 89.0056 119.064 88.176 120.068 88.1069C121.039 88.0032 122.044 88.6945 122.217 89.766C122.355 90.7338 122.355 91.7362 122.217 92.7041C122.044 93.9139 121.143 94.5015 119.999 94.3978C118.96 94.2941 118.232 93.5336 118.163 92.393C118.128 92.0473 118.163 91.6325 118.163 91.2523Z" fill="#202833"/>
<path d="M100.49 91.2869C100.49 90.803 100.456 90.3191 100.49 89.8697C100.629 88.8327 101.564 88.0723 102.569 88.1069C103.54 88.1414 104.406 88.8673 104.51 89.8697C104.579 90.803 104.579 91.7708 104.51 92.7041C104.441 93.741 103.609 94.3978 102.569 94.4323C101.495 94.4669 100.629 93.7756 100.49 92.7041C100.421 92.2547 100.49 91.7708 100.49 91.2869Z" fill="#202833"/>
<path d="M95.639 91.2869C95.639 91.7708 95.6736 92.2547 95.639 92.7041C95.5004 93.7756 94.6341 94.4323 93.5599 94.4323C92.555 94.3978 91.7233 93.741 91.654 92.7041C91.5847 91.7708 91.5847 90.803 91.654 89.8697C91.7233 88.8673 92.6243 88.1414 93.5945 88.1069C94.5994 88.0723 95.535 88.8327 95.6736 89.8697C95.7083 90.3536 95.639 90.8375 95.639 91.2869Z" fill="#202833"/>
<path d="M57.9725 91.3906C57.9725 91.8054 58.0071 92.2547 57.9725 92.6695C57.8339 93.741 57.0022 94.4323 55.8934 94.3978C54.8538 94.3632 54.0568 93.7065 53.9529 92.7041C53.8836 91.7708 53.8836 90.803 53.9529 89.8697C54.0222 88.8673 54.8885 88.1414 55.8587 88.1069C56.8636 88.0723 57.7992 88.8327 57.9378 89.8697C58.0071 90.3536 57.9725 90.8721 57.9725 91.3906Z" fill="#202833"/>
<path d="M109.326 91.2178C109.326 90.803 109.292 90.3537 109.326 89.9389C109.465 88.9019 110.366 88.1069 111.371 88.1069C112.376 88.1069 113.277 88.8673 113.346 89.9389C113.415 90.8376 113.415 91.7363 113.346 92.635C113.242 93.7756 112.445 94.4324 111.336 94.3978C110.262 94.3978 109.43 93.6719 109.326 92.6004C109.292 92.1856 109.326 91.7017 109.326 91.2178Z" fill="#202833"/>
<path d="M66.8087 91.356C66.8087 91.84 66.878 92.3239 66.8087 92.7732C66.6701 93.7756 65.8384 94.4324 64.7989 94.4324C63.7593 94.4324 62.893 93.7756 62.8237 92.7732C62.7544 91.8054 62.7544 90.803 62.8237 89.8006C62.9277 88.8328 63.8633 88.1069 64.8335 88.1069C65.8038 88.1069 66.6701 88.8328 66.8087 89.8006C66.878 90.3191 66.8087 90.8376 66.8087 91.356Z" fill="#202833"/>
<path d="M118.163 115.621C118.163 115.206 118.128 114.757 118.163 114.342C118.301 113.27 119.133 112.51 120.172 112.475C121.177 112.441 122.044 113.063 122.217 114.1C122.355 115.102 122.355 116.174 122.217 117.176C122.078 118.248 121.177 118.835 120.172 118.801C119.133 118.766 118.301 118.006 118.197 116.934C118.128 116.485 118.163 116.07 118.163 115.621Z" fill="#202833"/>
<path d="M104.579 115.69C104.545 116.174 104.579 116.658 104.51 117.107C104.371 118.11 103.54 118.766 102.535 118.801C101.53 118.801 100.629 118.144 100.525 117.142C100.421 116.174 100.421 115.171 100.525 114.169C100.629 113.167 101.53 112.475 102.5 112.475C103.54 112.475 104.406 113.201 104.51 114.273C104.545 114.757 104.51 115.206 104.51 115.69C104.545 115.69 104.545 115.69 104.579 115.69Z" fill="#202833"/>
<path d="M95.639 115.725C95.639 116.208 95.7083 116.692 95.639 117.142C95.5004 118.144 94.6341 118.801 93.6292 118.801C92.6243 118.801 91.758 118.11 91.654 117.107C91.5847 116.139 91.5847 115.137 91.654 114.135C91.758 113.132 92.6589 112.475 93.6638 112.475C94.6687 112.475 95.5004 113.167 95.639 114.169C95.7083 114.653 95.639 115.206 95.639 115.725Z" fill="#202833"/>
<path d="M66.8088 115.69C66.8088 116.174 66.8781 116.658 66.8088 117.107C66.6702 118.11 65.8385 118.801 64.8336 118.801C63.8287 118.801 62.9278 118.144 62.8238 117.142C62.7199 116.174 62.7199 115.171 62.8238 114.169C62.8931 113.167 63.7941 112.475 64.799 112.475C65.8039 112.475 66.6702 113.167 66.8088 114.135C66.8781 114.653 66.8088 115.172 66.8088 115.69Z" fill="#202833"/>
<path d="M109.361 115.552C109.361 115.068 109.292 114.584 109.361 114.135C109.534 113.167 110.401 112.475 111.405 112.475C112.41 112.475 113.242 113.167 113.346 114.204C113.45 115.137 113.45 116.105 113.346 117.038C113.242 118.144 112.376 118.835 111.336 118.801C110.297 118.801 109.465 118.04 109.326 116.969C109.292 116.485 109.326 116.001 109.361 115.552C109.326 115.552 109.326 115.552 109.361 115.552Z" fill="#202833"/>
<path d="M57.9725 115.655C57.9725 116.139 58.0418 116.623 57.9725 117.073C57.8339 118.11 56.9329 118.835 55.8934 118.801C54.8885 118.766 54.0568 118.075 53.9875 117.038C53.9182 116.105 53.9182 115.137 53.9875 114.204C54.0915 113.201 54.9231 112.475 55.928 112.475C56.9676 112.441 57.8685 113.167 58.0071 114.238C58.0071 114.688 57.9725 115.172 57.9725 115.655Z" fill="#202833"/>
</g>
<defs>
<clipPath id="clip0_1194_47">
<rect width="131.226" height="130" fill="white"/>
</clipPath>
</defs>
</svg>
