<svg width="131" height="130" viewBox="0 0 131 130" fill="none" xmlns="http://www.w3.org/2000/svg">
<path d="M130.985 57.0181C130.883 57.3258 130.746 57.6334 130.712 57.9753C129.825 65.0855 124.023 71.0676 116.958 72.0931C115.9 72.2298 114.842 72.2982 113.784 72.3324C111.737 72.3666 109.689 72.3666 107.641 72.3324C106.378 72.2982 105.662 71.5461 105.696 70.4523C105.73 69.5977 106.242 68.9824 107.061 68.8456C107.505 68.7773 107.982 68.7773 108.46 68.7773C110.713 68.7431 112.965 68.7089 115.252 68.6405C119.996 68.4696 125.49 64.8462 126.924 58.5564C128.63 50.9677 123.477 43.6524 115.764 42.6611C114.74 42.5243 113.716 42.6269 112.692 42.6269C111.122 42.6269 110.542 42.0458 110.542 40.4733C110.576 39.3794 110.61 38.2514 110.61 37.1575C110.474 29.5688 104.74 21.5356 95.8327 19.553C91.5666 18.5958 87.4371 19.2111 83.4782 20.9887C80.0654 22.527 77.6764 25.1591 76.0041 28.4407C75.4239 29.5346 75.0144 30.6968 74.5366 31.8591C74.4001 32.2009 74.2635 32.5769 74.0588 32.9187C73.6151 33.6024 72.796 33.8759 72.0452 33.6024C71.3285 33.3631 70.8507 32.782 70.8848 31.9616C70.8848 31.5172 70.9872 31.0387 71.1237 30.5943C72.1135 27.4836 73.6834 24.7147 75.8676 22.3218C76.4478 21.6724 76.5502 21.1938 76.1406 20.4076C71.6015 11.554 64.5369 5.94793 54.708 4.20457C44.1964 2.32448 35.1524 5.50355 27.7806 13.1948C23.4122 17.7754 20.8867 23.279 20.0676 29.6029C19.6922 32.406 19.7946 35.209 20.1359 38.0121C20.2383 38.935 20.6478 39.4478 21.6375 39.7555C25.9377 41.0886 29.214 43.7549 31.3983 47.7202C31.6371 48.1304 31.8078 48.5748 31.9102 49.0192C32.0467 49.9421 31.6372 50.6258 30.8181 50.9677C30.1014 51.2753 29.3164 51.036 28.7704 50.3524C28.4973 50.0105 28.3608 49.6003 28.1219 49.2585C25.1869 44.507 20.8867 42.1825 15.3238 42.7294C9.69258 43.2764 5.25588 47.5151 4.06139 52.8136C2.42322 60.0605 7.09882 67.239 14.6071 68.6064C15.6651 68.8115 16.723 68.8115 17.781 68.8115C28.668 68.8115 39.5208 68.8115 50.4078 68.8115C52.1825 68.8115 52.1825 68.8115 52.1825 67.0681C52.1825 55.4457 52.1825 43.8233 52.1825 32.2009C52.1825 32.03 52.1825 31.8591 52.1825 31.6881C52.2507 30.9703 51.9777 30.5259 51.2951 30.1841C49.8959 29.4662 48.9744 28.304 48.5648 26.7999C47.9847 24.578 48.4966 22.6295 50.203 21.0912C51.9777 19.4846 54.0936 19.2111 56.2779 20.2025C58.3597 21.1596 59.4518 22.8688 59.5201 25.1591C59.5542 27.3468 58.5986 29.056 56.7215 30.1157C55.9707 30.5259 55.7318 31.0045 55.7318 31.8249C55.7659 43.6866 55.7318 55.5824 55.7318 67.4441C55.7318 67.615 55.7318 67.786 55.7318 67.9569C55.6977 68.5722 56.039 68.8115 56.585 68.8115C56.8239 68.8115 57.0969 68.8115 57.3358 68.8115C59.0764 68.8115 60.8511 68.8115 62.5916 68.8115C63.5472 68.8115 63.6496 68.6747 63.6496 67.786C63.6837 65.2564 63.6496 62.761 63.6837 60.2314C63.6837 59.5135 63.3424 59.2059 62.7623 58.8641C60.6804 57.6676 59.7248 55.8217 59.8613 53.4289C60.032 50.8309 62.2503 48.5748 64.81 48.4039C67.7109 48.1988 69.9634 49.7029 70.7824 52.3692C71.5674 54.8988 70.5094 57.4967 68.0522 58.8982C67.4379 59.2401 67.199 59.6161 67.199 60.2998C67.2331 62.761 67.199 65.2564 67.199 67.7176C67.199 68.7089 67.3013 68.7773 68.3252 68.8115C68.7006 68.8115 69.076 68.8115 69.4856 68.8115C78.7002 68.8115 87.9149 68.8115 97.1296 68.8115C97.6415 68.8115 98.1534 68.8115 98.6654 68.8456C99.6551 68.9482 100.201 69.5635 100.201 70.5548C100.201 71.5461 99.5868 72.264 98.5971 72.3665C98.1876 72.4007 97.7439 72.4007 97.3344 72.4007C88.0856 72.4007 78.8368 72.4007 69.5538 72.4007C69.2467 72.4007 68.9736 72.4007 68.6665 72.4007C67.2331 72.4007 67.2331 72.4007 67.199 73.8023C67.199 75.8875 67.199 77.9727 67.199 80.092C67.199 81.4252 67.2331 81.4594 68.5641 81.4594C74.6731 81.4594 80.7479 81.4594 86.8569 81.4594C93.3072 81.4594 99.7233 81.4594 106.174 81.4594C106.549 81.4594 106.959 81.4594 107.334 81.4594C108.46 81.5277 109.04 82.143 109.143 83.2027C109.177 83.5446 109.143 83.8864 109.143 84.2282C109.143 87.3048 109.143 90.3813 109.143 93.4578C109.143 93.7654 109.143 94.0731 109.143 94.3466C109.177 95.167 109.245 95.2353 110.03 95.2695C110.337 95.3037 110.61 95.2695 110.917 95.2695C113.989 95.2695 117.061 95.3379 120.132 95.2353C122.589 95.167 124.296 97.0471 124.228 99.3032C124.159 101.217 124.262 103.166 124.193 105.08C124.159 105.866 123.818 106.653 123.818 107.439C123.818 108.225 124.159 109.011 124.193 109.798C124.262 111.404 124.262 113.045 124.193 114.652C124.159 115.54 123.989 116.429 123.886 117.318C123.852 117.591 123.852 117.899 123.886 118.173C123.989 118.959 124.159 119.779 124.159 120.565C124.193 122.309 124.193 124.052 124.159 125.83C124.125 128.257 122.76 129.727 120.337 129.932C120.132 129.932 119.927 129.932 119.688 129.932C111.464 129.932 103.239 129.932 94.9795 129.932C94.4334 129.932 93.8533 129.863 93.3413 129.761C91.7032 129.419 90.5428 128.12 90.4745 126.445C90.4063 124.086 90.338 121.728 90.5087 119.403C90.5769 118.275 90.5769 117.181 90.5087 116.053C90.3722 113.763 90.4745 111.438 90.4745 109.148C90.4745 108.806 90.5087 108.464 90.6452 108.157C90.85 107.644 90.8158 107.2 90.6452 106.687C90.5087 106.277 90.4745 105.866 90.4745 105.422C90.4745 103.337 90.4404 101.252 90.4745 99.1323C90.5087 96.7736 91.9762 95.3037 94.3311 95.2695C97.5733 95.2353 100.815 95.2695 104.058 95.2695C105.525 95.2695 105.525 95.2695 105.525 93.7654C105.525 91.3726 105.525 88.9798 105.525 86.5869C105.525 86.2793 105.525 85.9716 105.491 85.6981C105.457 85.2196 105.184 85.0145 104.74 84.9803C104.399 84.9803 104.058 84.9803 103.716 84.9803C92.1127 84.9803 80.509 84.9803 68.9054 84.9803C67.1307 84.9803 67.0966 84.9803 67.0966 86.7236C67.0966 89.1165 67.0966 91.5093 67.0966 93.9022C67.0966 95.2695 67.1307 95.2695 68.4276 95.2695C71.6357 95.2695 74.8437 95.3379 78.0177 95.2353C80.6114 95.167 82.2837 97.1154 82.1472 99.3716C82.0448 101.252 82.1472 103.132 82.1131 105.012C82.1131 105.627 81.9424 106.277 81.8742 106.892C81.8401 107.234 81.8401 107.541 81.8742 107.883C81.9424 108.567 82.1131 109.216 82.1472 109.9C82.1813 111.678 82.1813 113.489 82.1472 115.267C82.1472 115.951 81.9766 116.6 81.8742 117.284C81.8401 117.557 81.8059 117.865 81.8401 118.138C81.9083 118.993 82.1131 119.813 82.1131 120.668C82.1472 122.445 82.1472 124.257 82.1131 126.035C82.079 128.154 80.8503 129.556 78.7344 129.863C78.2566 129.932 77.8129 129.932 77.3351 129.932C69.2808 129.932 61.2265 129.932 53.1381 129.932C52.5579 129.932 51.9436 129.897 51.3634 129.761C49.6911 129.419 48.4625 128.086 48.4283 126.342C48.3601 124.052 48.2918 121.728 48.4625 119.437C48.5648 118.241 48.5307 117.147 48.4625 115.951C48.3259 113.694 48.2918 111.404 48.4625 109.148C48.5648 107.917 48.5648 106.755 48.4625 105.525C48.2918 103.303 48.3942 101.081 48.4283 98.8588C48.4625 96.7052 49.9982 95.2012 52.2166 95.2012C55.4247 95.167 58.5986 95.2012 61.8067 95.2012C63.479 95.2012 63.479 95.2012 63.479 93.5262C63.479 91.1333 63.479 88.7405 63.479 86.3476C63.479 84.9461 63.4448 84.9119 62.0114 84.9119C55.9025 84.9119 49.8276 84.9119 43.7186 84.9119C38.0533 84.9119 32.388 84.9119 26.6885 84.9119C25.0845 84.9119 25.0845 84.9119 25.0845 86.5869C25.0845 88.9456 25.0845 91.2701 25.0845 93.6287C25.0845 93.9364 25.0845 94.2098 25.1186 94.5175C25.1527 94.9961 25.3916 95.2012 25.8694 95.2012C26.1766 95.2012 26.4496 95.2012 26.7568 95.2012C29.8625 95.2012 33.0023 95.2695 36.108 95.167C38.3604 95.0986 40.3058 96.7736 40.1693 99.2348C40.0669 101.183 40.2716 103.166 40.101 105.114C39.9986 106.618 39.9986 108.123 40.101 109.627C40.2375 111.541 40.1351 113.455 40.1351 115.404C40.1351 115.985 39.9986 116.566 39.8962 117.181C39.8621 117.42 39.7256 117.728 39.828 117.933C40.3399 119.266 40.101 120.634 40.1351 122.001C40.1693 123.368 40.1693 124.736 40.1351 126.103C40.101 128.188 38.9065 129.521 36.8588 129.829C36.381 129.897 35.9373 129.897 35.4595 129.897C27.3711 129.897 19.2485 129.897 11.1601 129.897C10.7847 129.897 10.3751 129.897 9.99973 129.863C7.78139 129.59 6.51863 128.154 6.48451 125.898C6.45038 123.881 6.34799 121.864 6.51863 119.882C6.65515 118.412 6.62102 116.976 6.51863 115.506C6.34799 113.558 6.45038 111.575 6.48451 109.627C6.51863 108.875 6.85992 108.123 6.85992 107.371C6.85992 106.618 6.48451 105.866 6.48451 105.114C6.41625 103.166 6.45038 101.183 6.48451 99.2348C6.51863 96.7394 8.02029 95.2353 10.4775 95.2353C13.5832 95.2353 16.6889 95.2353 19.8287 95.2353C20.17 95.2353 20.5113 95.2353 20.8526 95.2353C21.3304 95.2353 21.5351 94.9961 21.5693 94.5175C21.5693 94.1757 21.5693 93.8338 21.5693 93.492C21.5693 90.3471 21.5693 87.168 21.5693 84.0231C21.5693 83.6813 21.5693 83.3395 21.6034 82.9976C21.7058 82.1089 22.286 81.5277 23.1733 81.4252C23.6511 81.391 24.0948 81.391 24.5726 81.391C36.8247 81.391 49.0426 81.391 61.2947 81.391C61.636 81.391 61.9773 81.391 62.3186 81.391C63.4107 81.3568 63.479 81.3226 63.5131 80.2288C63.5131 77.9726 63.5131 75.7165 63.5131 73.4262C63.5131 72.4007 63.4107 72.3666 62.421 72.3324C62.0456 72.3324 61.6702 72.3324 61.2606 72.3324C46.3806 72.3324 31.5006 72.3666 16.5865 72.3324C11.0236 72.3324 6.48451 70.0421 3.17405 65.564C-2.38888 58.0436 -1.092 47.31 7.61074 41.6014C9.79496 40.1657 12.1498 39.2769 14.7436 39.0376C14.9142 39.0376 15.0849 38.9692 15.2555 38.9692C16.3817 38.7983 16.3817 38.7983 16.2452 37.6361C14.0951 20.2025 25.3916 4.37549 42.217 0.752034C57.3017 -2.52959 71.7722 4.75151 78.7002 17.7413C78.7344 17.8096 78.7685 17.9122 78.8026 17.9805C79.3487 19.006 79.3828 19.0402 80.4408 18.4249C84.6386 15.9979 89.2118 15.0408 93.9898 15.5877C101.259 16.4081 106.856 20.0657 110.781 26.253C112.965 29.7055 114.057 33.534 114.126 37.6703C114.126 37.807 114.126 37.9437 114.126 38.0463C114.091 38.6274 114.296 38.9009 114.91 38.935C115.832 39.0376 116.788 39.1401 117.675 39.3794C124.603 41.1912 128.835 45.635 130.439 52.6085C130.575 53.2238 130.678 53.8391 130.814 54.4544C130.985 55.309 130.985 56.1636 130.985 57.0181ZM65.5949 98.8588C63.752 98.8588 61.9432 98.8588 60.1003 98.8588C57.8819 98.8588 55.6636 98.8588 53.4452 98.8588C52.319 98.8588 52.2166 98.9613 52.2166 100.124C52.1825 101.525 52.1825 102.927 52.2166 104.362C52.2166 105.559 52.2507 105.559 53.4452 105.593C54.3667 105.593 55.3223 105.559 56.2437 105.593C57.3017 105.627 57.9843 106.174 58.1891 106.96C58.4962 108.157 57.7454 109.182 56.4485 109.251C55.4588 109.319 54.5032 109.251 53.5135 109.285C52.2166 109.285 52.2166 109.285 52.1825 110.55C52.1825 111.814 52.1825 113.113 52.1825 114.378C52.1825 116.019 52.1825 116.019 53.8206 116.019C61.5678 116.019 69.349 116.019 77.0962 116.019C77.3351 116.019 77.6081 116.019 77.847 116.019C78.359 116.019 78.6661 115.78 78.6661 115.267C78.6661 113.524 78.6661 111.78 78.6661 110.003C78.6661 109.456 78.359 109.251 77.847 109.285C77.5399 109.285 77.2668 109.285 76.9597 109.285C73.4786 109.285 69.9634 109.285 66.4823 109.285C66.141 109.285 65.7997 109.319 65.4584 109.285C64.4346 109.182 63.752 108.533 63.6837 107.61C63.6155 106.584 64.1957 105.866 65.2878 105.661C65.6632 105.593 66.0386 105.627 66.4481 105.627C69.9975 105.627 73.5127 105.627 77.0621 105.627C77.3692 105.627 77.6764 105.627 77.9494 105.627C78.4272 105.627 78.6661 105.388 78.6661 104.943C78.6661 103.2 78.6661 101.457 78.6661 99.6792C78.6661 99.2348 78.4272 98.9613 77.9494 98.9613C77.6081 98.9613 77.2668 98.9272 76.9256 98.9272C73.1714 98.8588 69.3832 98.8588 65.5949 98.8588ZM65.4584 126.308C69.4514 126.308 73.4786 126.308 77.4716 126.308C78.632 126.308 78.7002 126.24 78.7002 125.078C78.7344 123.813 78.7002 122.514 78.7002 121.249C78.7002 119.608 78.7002 119.608 77.0962 119.608C69.349 119.608 61.5678 119.608 53.8206 119.608C53.6158 119.608 53.377 119.608 53.1722 119.608C52.319 119.642 52.2507 119.745 52.1825 120.6C52.1483 121.488 52.1825 122.377 52.1825 123.3C52.1825 123.95 52.1825 124.599 52.1825 125.214C52.2166 126.274 52.2848 126.308 53.2746 126.342C53.5135 126.342 53.7865 126.342 54.0254 126.342C57.8819 126.308 61.6702 126.308 65.4584 126.308ZM23.4805 126.308C24.9821 126.308 26.4496 126.308 27.9513 126.308C30.5109 126.308 33.0705 126.308 35.6302 126.308C36.7223 126.308 36.7564 126.24 36.7905 125.146C36.8247 123.813 36.7905 122.514 36.7905 121.181C36.7905 119.608 36.7905 119.574 35.1524 119.574C27.4394 119.574 19.7263 119.574 12.0133 119.574C11.7062 119.574 11.4331 119.574 11.126 119.574C10.5799 119.574 10.3751 119.847 10.3751 120.36C10.3751 122.069 10.3751 123.779 10.3751 125.488C10.3751 126.103 10.6823 126.308 11.2284 126.308C11.5355 126.308 11.8085 126.308 12.1157 126.308C15.9039 126.308 19.6922 126.308 23.4805 126.308ZM23.5487 105.559C27.5076 105.559 31.4665 105.559 35.4595 105.559C36.7905 105.559 36.7905 105.559 36.7905 104.191C36.7905 102.995 36.7905 101.799 36.7905 100.602C36.7905 98.8588 36.7905 98.8588 35.0159 98.8588C27.3711 98.8588 19.7605 98.8588 12.1157 98.8588C11.7744 98.8588 11.4331 98.8588 11.0918 98.893C10.6482 98.9272 10.3751 99.0981 10.3751 99.5766C10.3751 101.354 10.3751 103.166 10.3751 104.943C10.3751 105.388 10.614 105.559 11.0236 105.559C11.3649 105.559 11.7062 105.559 12.0474 105.559C15.8698 105.559 19.6922 105.559 23.5487 105.559ZM107.3 105.559C111.293 105.559 115.32 105.559 119.313 105.559C120.542 105.559 120.542 105.559 120.542 104.362C120.542 102.927 120.542 101.457 120.542 100.021C120.542 98.9272 120.473 98.893 119.381 98.8588C119.177 98.8588 118.972 98.8588 118.733 98.8588C111.156 98.8588 103.546 98.8588 95.9692 98.8588C95.6621 98.8588 95.3549 98.8588 95.0819 98.8588C94.2628 98.9272 94.1604 98.9955 94.1263 99.8843C94.0922 101.457 94.0922 103.029 94.1263 104.636C94.1263 105.49 94.2287 105.525 95.116 105.559C95.3549 105.559 95.6279 105.559 95.8668 105.559C99.7233 105.559 103.512 105.559 107.3 105.559ZM23.617 109.251C22.6272 109.251 21.6717 109.251 20.6819 109.251C17.7128 109.251 14.7095 109.251 11.7403 109.251C10.3751 109.251 10.3751 109.251 10.3751 110.686C10.3751 111.917 10.3751 113.148 10.3751 114.412C10.3751 116.019 10.3751 116.019 12.0133 116.019C19.7263 116.019 27.4394 116.019 35.1524 116.019C35.3913 116.019 35.6643 116.019 35.9032 116.019C36.654 115.951 36.7905 115.848 36.7905 115.062C36.8247 113.455 36.8247 111.814 36.7905 110.208C36.7905 109.422 36.6882 109.353 35.9032 109.285C35.596 109.285 35.323 109.285 35.0159 109.285C31.1935 109.251 27.4052 109.251 23.617 109.251ZM107.436 109.251C106.378 109.251 105.32 109.251 104.228 109.251C101.259 109.251 98.2558 109.251 95.2867 109.251C94.1945 109.251 94.1604 109.319 94.1263 110.413C94.0922 111.643 94.1263 112.874 94.1263 114.139C94.1263 115.985 94.1263 115.985 95.9351 115.985C103.58 115.985 111.19 115.985 118.835 115.985C119.142 115.985 119.415 115.985 119.723 115.985C120.269 115.985 120.61 115.78 120.576 115.164C120.576 113.455 120.576 111.746 120.576 110.037C120.576 109.524 120.405 109.216 119.825 109.251C119.484 109.251 119.142 109.251 118.801 109.251C115.047 109.251 111.225 109.251 107.436 109.251ZM107.334 126.308C108.938 126.308 110.576 126.308 112.18 126.308C114.637 126.308 117.129 126.308 119.586 126.308C120.508 126.308 120.576 126.24 120.576 125.385C120.61 123.779 120.576 122.138 120.576 120.531C120.576 120.018 120.473 119.608 119.825 119.608C119.484 119.608 119.142 119.608 118.801 119.608C114.842 119.608 110.883 119.608 106.924 119.608C103.102 119.608 99.2455 119.608 95.4232 119.608C94.2287 119.608 94.1604 119.677 94.1263 120.805C94.0922 122.309 94.0922 123.779 94.1263 125.283C94.1263 126.24 94.2287 126.274 95.1501 126.342C95.389 126.342 95.6621 126.342 95.901 126.342C99.7233 126.308 103.546 126.308 107.334 126.308ZM53.9913 23.2448C52.9674 23.2106 52.0459 24.1336 52.0118 25.1591C51.9777 26.2188 52.7968 27.1417 53.8889 27.1759C55.0151 27.2101 55.9366 26.3555 55.9366 25.2275C55.9025 24.1678 55.0151 23.2448 53.9913 23.2448ZM65.4584 55.8217C66.5505 55.8217 67.4037 54.9671 67.4037 53.9074C67.4037 52.8819 66.5164 51.9248 65.4925 51.8906C64.4346 51.8564 63.4448 52.8477 63.479 53.9074C63.5131 55.0013 64.3663 55.8217 65.4584 55.8217Z" fill="#202833"/>
</svg>
