<svg width="48" height="48" viewBox="0 0 48 48" fill="none" xmlns="http://www.w3.org/2000/svg">
<rect width="48" height="48" fill="#202833"/>
<path d="M45.2548 22.5195C44.9541 20.3044 43.92 18.4708 42.1743 17.0699C40.5167 15.7424 38.6171 15.185 36.5047 15.4197C35.1405 15.5663 33.901 16.0724 32.8008 16.9012C32.4267 17.1799 31.7226 17.818 31.7226 17.818L34.275 21.2432C34.275 21.2432 34.4217 21.0599 34.4877 20.9865C35.5366 19.8497 36.8128 19.3803 38.3237 19.7764C40.6121 20.3778 41.8956 22.9522 41.0375 25.1599C40.3187 27.0082 38.4631 28.079 36.5194 27.6976C34.8911 27.3749 33.901 26.3261 33.4242 24.7638C33.3142 24.3971 33.2482 24.023 33.2849 23.605C33.8056 23.605 34.8838 23.605 34.8838 23.605L31.2385 18.7349L27.5859 23.6123C27.5859 23.6123 28.7081 23.6123 29.2142 23.6123C29.2289 23.6636 29.2215 23.8397 29.2289 23.913C29.2655 25.3946 29.6396 26.7955 30.4171 28.057C32.148 30.8661 34.6638 32.245 37.979 32.0176C39.8786 31.8856 41.5142 31.0935 42.8491 29.7439C44.8441 27.7269 45.6362 25.2992 45.2548 22.5195Z" fill="#66FCF1"/>
<path d="M15.5481 22.5932C14.7927 21.7864 13.8319 21.3537 12.739 21.1116C14.1399 19.2267 16.8977 15.5227 16.8977 15.5227L6.50464 15.5007L4.75902 16.975V19.102L10.3113 19.1313L6.82003 24.1921L7.4728 24.0381C8.41162 23.7594 9.40178 23.664 10.3699 23.8107C10.7367 23.8621 11.1107 23.9867 11.4335 24.1628C12.2329 24.5882 12.497 25.3143 12.453 26.1798C12.4089 27.0232 12.0202 27.654 11.2501 28.0354C10.876 28.2187 10.48 28.2921 10.0692 28.3214C8.8517 28.4021 7.84686 28.006 7.13541 26.9792C7.00339 26.7885 6.89337 26.5832 6.76869 26.3778C6.65867 26.4291 6.54865 26.4805 6.44597 26.5391C5.36779 27.0966 4.28228 27.6467 3.2041 28.2041C3.2041 28.2187 3.2041 28.2334 3.2041 28.2481C3.22611 28.2774 3.25544 28.2994 3.27745 28.3361C4.2016 30.023 5.6245 31.0719 7.4288 31.644C8.54365 31.996 9.68784 32.084 10.854 31.996C11.9836 31.9153 13.0544 31.6513 14.0519 31.1012C14.7487 30.7198 15.3501 30.2211 15.8195 29.5756C14.4186 27.2873 14.536 24.9622 15.5481 22.5932Z" fill="#66FCF1"/>
<path d="M28.5351 25.1748C28.4837 24.852 28.3957 24.1626 28.3957 24.1626H26.2247C26.2247 24.1626 27.2295 22.813 27.7209 22.1456C26.298 20.7227 24.5671 20.2606 22.5721 20.3927C23.1808 19.5272 23.7456 18.7204 24.3177 17.9063C24.8825 17.0995 26.0413 15.4492 26.0413 15.4492H21.6406C21.5892 15.4859 21.5452 15.5226 21.4939 15.5519C21.0245 16.212 18.5014 19.7839 17.2472 21.6029C16.8951 22.1163 16.5871 22.6664 16.3377 23.2311C15.795 24.4706 15.6116 25.7762 15.8683 27.1111C16.213 28.8933 17.2252 30.2282 18.8021 31.0717C21.1345 32.3259 23.5476 32.3332 25.924 31.2037C27.5229 30.4409 28.5864 29.1721 29.0631 27.4411C29.1071 27.2944 29.1071 27.1624 29.0485 27.0157C28.8138 26.429 28.6377 25.8129 28.5351 25.1748ZM22.4547 28.4753C21.0465 28.4753 19.9683 27.3751 19.9683 25.9595C19.9683 24.5 21.0245 23.4291 22.4547 23.4291C23.8996 23.4291 24.9338 24.4853 24.9338 25.9595C24.9265 27.3971 23.8703 28.4753 22.4547 28.4753Z" fill="#66FCF1"/>
</svg>
