<svg viewBox="0 0 167 34"  xmlns="http://www.w3.org/2000/svg">
<path fill-rule="evenodd" clip-rule="evenodd" d="M166.58 21.0448C166.171 18.0312 164.764 15.5366 162.389 13.6307C160.134 11.8246 157.549 11.0662 154.676 11.3855C152.82 11.5851 151.133 12.2736 149.636 13.4012C149.128 13.7804 148.17 14.6485 148.17 14.6485L151.642 19.3085C151.642 19.3085 151.842 19.059 151.932 18.9592C153.358 17.4126 155.095 16.7739 157.15 17.3128C160.264 18.131 162.01 21.6335 160.842 24.6371C159.864 27.1517 157.34 28.6085 154.696 28.0896C152.48 27.6506 151.133 26.2236 150.485 24.0982C150.335 23.5993 150.245 23.0904 150.295 22.5216H152.47L147.511 15.8958L142.542 22.5316H144.757C144.769 22.5732 144.77 22.6752 144.771 22.7719V22.772C144.772 22.8374 144.773 22.9004 144.777 22.9407C144.827 24.9564 145.336 26.8623 146.393 28.5786C148.748 32.4004 152.171 34.2764 156.681 33.967C159.266 33.7874 161.491 32.7097 163.307 30.8737C166.021 28.1296 167.099 24.8266 166.58 21.0448ZM126.162 21.1448C125.134 20.0472 123.827 19.4585 122.34 19.1292C124.246 16.5647 127.998 11.5255 127.998 11.5255L113.859 11.4956L111.484 13.5013V16.395L119.037 16.435L114.288 23.3202L115.176 23.1106C116.453 22.7314 117.8 22.6017 119.117 22.8013C119.616 22.8711 120.125 23.0408 120.564 23.2803C121.652 23.859 122.011 24.8469 121.951 26.0244C121.891 27.1719 121.362 28.0301 120.315 28.5489C119.806 28.7984 119.267 28.8982 118.708 28.9381C117.052 29.0479 115.685 28.509 114.717 27.112C114.595 26.9367 114.488 26.7523 114.378 26.5649L114.378 26.5649L114.378 26.5648C114.326 26.4749 114.273 26.3844 114.218 26.2938C114.068 26.3636 113.918 26.4335 113.779 26.5133C113.045 26.8924 112.31 27.269 111.574 27.6456L111.574 27.6458L111.573 27.6459C110.838 28.0226 110.102 28.3993 109.368 28.7785V28.8383C109.38 28.8544 109.394 28.8688 109.408 28.8836C109.429 28.9055 109.45 28.9282 109.468 28.9581C110.725 31.2531 112.661 32.6801 115.116 33.4584C116.633 33.9374 118.189 34.0571 119.776 33.9374C121.313 33.8276 122.769 33.4684 124.126 32.72C125.074 32.2011 125.893 31.5226 126.531 30.6444C124.625 27.5311 124.785 24.3679 126.162 21.1448ZM143.641 23.2802C143.641 23.2802 143.76 24.2182 143.83 24.6572C143.97 25.5254 144.209 26.3636 144.529 27.1618C144.609 27.3614 144.609 27.541 144.549 27.7406C143.9 30.0955 142.453 31.8218 140.278 32.8596C137.045 34.3963 133.762 34.3863 130.589 32.68C128.443 31.5325 127.066 29.7164 126.597 27.2916C126.248 25.4755 126.498 23.6993 127.236 22.0129C127.575 21.2445 127.994 20.4962 128.473 19.7977C130.18 17.323 133.612 12.4634 134.251 11.5653C134.3 11.5374 134.344 11.5045 134.39 11.4702C134.409 11.4555 134.43 11.4406 134.45 11.4256H140.438C140.438 11.4256 138.861 13.6708 138.093 14.7685C137.754 15.25 137.418 15.7297 137.077 16.2149C136.635 16.8456 136.186 17.4856 135.718 18.1512C138.432 17.9716 140.787 18.6002 142.723 20.5361C142.054 21.4441 140.687 23.2802 140.687 23.2802H143.641ZM132.175 25.7249C132.175 27.6508 133.642 29.1476 135.558 29.1476C137.484 29.1476 138.921 27.6807 138.931 25.7249C138.931 23.7192 137.524 22.2823 135.558 22.2823C133.612 22.2823 132.175 23.7392 132.175 25.7249Z" fill="#66FCF1"/>
<path fill-rule="evenodd" clip-rule="evenodd" d="M1.29721 0H31.1617L29.9144 7.23447H17.0035L12.4533 33.528H4.50034L9.00067 7.23447H0L1.29721 0ZM37.1306 11.4952C37.4999 11.7048 37.8291 11.9443 38.1385 12.2336C37.2803 13.0219 36.512 13.94 35.8334 14.9678C35.125 16.0355 34.5662 17.183 34.157 18.4004C33.9974 18.2807 33.8377 18.1809 33.6781 18.0811C33.2789 17.8416 32.7999 17.7219 32.2611 17.7219C31.4628 17.6919 30.7444 17.9114 30.1057 18.3705C29.4671 18.8295 28.9482 19.4382 28.5291 20.1866C28.1998 20.7953 27.9603 21.4239 27.8107 22.1024L25.8449 33.5279H18.81L22.5919 11.4952H29.6367L29.1179 14.5088C29.7764 13.6406 30.5149 12.9022 31.3331 12.2835C32.5006 11.4054 33.718 10.9664 34.9952 10.9664C35.7935 10.9664 36.512 11.146 37.1306 11.4952ZM54.9536 15.5067C54.8039 15.1574 54.6442 14.8281 54.4646 14.5088C53.8459 13.4212 53.0077 12.573 51.97 11.9443C50.9322 11.3257 49.6749 11.0064 48.208 11.0064C46.2223 11.0064 44.3863 11.5053 42.6699 12.4932C40.9636 13.481 39.5367 14.8481 38.3792 16.5844C37.2316 18.3306 36.5132 20.2764 36.2238 22.4518C35.9643 24.5573 36.1539 26.4831 36.7726 28.2194C37.3913 29.9557 38.3891 31.3527 39.7462 32.3904C41.1033 33.4282 42.7498 33.9471 44.7056 33.9471C46.1724 33.9471 47.5395 33.6477 48.7968 33.059C50.0541 32.4703 51.1717 31.642 52.1296 30.5943C52.1845 30.5344 52.2369 30.4746 52.2893 30.4147C52.3417 30.3548 52.3941 30.2949 52.4489 30.2351L51.8901 33.518H58.9749L62.7568 11.4853H55.6221L54.9536 15.5067ZM53.7262 22.4618C53.5965 23.2301 53.337 23.9585 52.9578 24.667C52.5787 25.3655 52.0997 25.9842 51.5409 26.5131C50.9821 27.0419 50.3634 27.451 49.6949 27.7304C49.0263 28.0198 48.3378 28.1495 47.6393 28.1096C46.6813 28.1096 45.8731 27.8502 45.2245 27.3213C44.5659 26.7925 44.1268 26.1039 43.8773 25.2358C43.6379 24.3776 43.578 23.4596 43.7077 22.5017C43.8674 21.4839 44.2466 20.5259 44.8552 19.6478C45.4639 18.7697 46.2223 18.0712 47.1304 17.5623C48.0384 17.0534 48.9864 16.8139 49.9743 16.8438C50.6428 16.8738 51.2316 17.0434 51.7205 17.3427C52.2094 17.6421 52.6286 18.0612 52.9678 18.5901C53.3071 19.1189 53.5366 19.7077 53.6663 20.3663C53.806 21.0348 53.816 21.7333 53.7262 22.4618ZM71.3099 12.473C73.3256 11.5051 75.5109 11.0162 77.8758 11.0162C79.3127 11.0162 80.58 11.1958 81.6876 11.545C82.7853 11.8943 83.7731 12.3533 84.6313 12.9321L83.6734 20.0168C83.0746 18.999 82.2664 18.2007 81.2585 17.622C80.2507 17.0532 79.1531 16.7638 77.9756 16.7638C76.8281 16.7638 75.7703 17.0233 74.8124 17.5521C73.8544 18.071 73.0562 18.7595 72.4175 19.6077C71.7789 20.4459 71.3798 21.4138 71.2201 22.5015C71.0604 23.5592 71.1403 24.5172 71.4795 25.3753C71.8088 26.2335 72.3577 26.912 73.106 27.411C73.8544 27.8999 74.7525 28.1693 75.8102 28.1993C77.1474 28.2292 78.4246 27.9298 79.642 27.2912C80.8494 26.6526 81.8772 25.8942 82.7054 24.9961L81.7974 31.9911C80.8694 32.5898 79.8316 33.0788 78.6841 33.448C77.5365 33.8172 76.2094 33.9968 74.7126 33.9968C72.4475 33.9968 70.4318 33.4979 68.6756 32.4901C66.9193 31.4922 65.6022 30.1251 64.744 28.3988C63.8858 26.6725 63.5965 24.6968 63.8858 22.4616C64.2052 20.1865 65.0234 18.2007 66.3306 16.4944C67.6378 14.7881 69.2942 13.4509 71.3099 12.473ZM84.9689 33.5283H91.8142L93.3769 22.2517L100.296 33.5283H108.189L100.286 20.8355L108.978 13.5013L111.353 11.4956H102.542L93.8452 18.8723L96.4342 0.189912H89.539L84.9689 33.5283Z"/>
</svg>
