<svg width="134" height="90" viewBox="0 0 134 90" fill="none" xmlns="http://www.w3.org/2000/svg">
<path d="M124.826 0H24.3913C19.5725 0 15.6522 3.92035 15.6522 8.73913V27.3913H1.95652C0.876 27.3913 0 28.267 0 29.3478C0 30.4286 0.876 31.3043 1.95652 31.3043H25.4348C26.5153 31.3043 27.3913 30.4286 27.3913 29.3478C27.3913 28.267 26.5153 27.3913 25.4348 27.3913H19.5652V8.73913C19.5652 8.12817 19.6839 7.54539 19.8921 7.00696L57.8851 45L19.8921 82.993C19.6839 82.4546 19.5652 81.8718 19.5652 81.2609V68.4783C19.5652 67.3975 18.6892 66.5217 17.6087 66.5217C16.5282 66.5217 15.6522 67.3975 15.6522 68.4783V81.2609C15.6522 86.0797 19.5725 90 24.3913 90H124.826C129.645 90 133.565 86.0797 133.565 81.2609V8.73913C133.565 3.92035 129.645 0 124.826 0ZM91.3323 45L129.325 7.00696C129.533 7.54539 129.652 8.12817 129.652 8.73913V81.2609C129.652 81.8718 129.533 82.4546 129.325 82.993L91.3323 45ZM124.826 3.91304C125.437 3.91304 126.02 4.03174 126.558 4.23991L82.9096 47.8886C78.3326 52.4661 70.885 52.4661 66.3078 47.8886L22.6591 4.23991C23.1976 4.03174 23.7804 3.91304 24.3913 3.91304H124.826ZM24.3913 86.087C23.7804 86.087 23.1976 85.9683 22.6591 85.7601L60.6522 47.767L63.5411 50.6559C66.5924 53.707 70.6007 55.2329 74.609 55.2329C78.6172 55.2329 82.6252 53.707 85.6766 50.6559L88.5655 47.767L126.559 85.7601C126.02 85.9683 125.437 86.087 124.826 86.087H24.3913Z" fill="#53DFD5"/>
<path d="M17.6087 35.2172C16.5282 35.2172 15.6522 36.093 15.6522 37.1737V43.0433H1.95652C0.876 43.0433 0 43.9191 0 44.9998C0 46.0806 0.876 46.9564 1.95652 46.9564H33.2609C34.3414 46.9564 35.2174 46.0806 35.2174 44.9998C35.2174 43.9191 34.3414 43.0433 33.2609 43.0433H19.5652V37.1737C19.5652 36.093 18.6892 35.2172 17.6087 35.2172Z" fill="#53DFD5"/>
<path d="M25.4348 62.6086C26.5153 62.6086 27.3913 61.7328 27.3913 60.6521C27.3913 59.5713 26.5153 58.6955 25.4348 58.6955H19.5652V52.826C19.5652 51.7452 18.6892 50.8694 17.6087 50.8694C16.5282 50.8694 15.6522 51.7452 15.6522 52.826V58.6955H1.95652C0.876 58.6955 0 59.5713 0 60.6521C0 61.7328 0.876 62.6086 1.95652 62.6086H25.4348Z" fill="#53DFD5"/>
</svg>
