<svg width="54" height="54" viewBox="0 0 54 54" fill="none" xmlns="http://www.w3.org/2000/svg">
<path d="M44.4796 17.7296C47.0516 15.1577 45.8788 12.1537 44.4796 10.6929L38.3067 4.52031C35.7141 1.94841 32.7305 3.1212 31.2696 4.52031L27.7716 8.03868H22.4424C18.5329 8.03868 16.2695 10.0962 15.1172 12.4624L5.98131 21.5978V29.8279L4.52039 31.2681C1.94835 33.8606 3.1212 36.844 4.52039 38.3049L10.6933 44.4774C11.8044 45.5885 12.9978 46 14.1295 46C15.5905 46 16.9279 45.2799 17.7304 44.4774L23.286 38.9015H30.6729C34.1709 38.9015 35.9404 36.7206 36.5783 34.5807C38.9034 33.9635 40.1792 32.194 40.6936 30.4657C43.8829 29.6427 45.0763 26.6181 45.0763 24.4989V18.3263H43.8623L44.4796 17.7296ZM40.9611 24.4989C40.9611 25.4248 40.5701 26.5564 38.9034 26.5564H36.8458V28.6139C36.8458 29.5398 36.4548 30.6714 34.7882 30.6714H32.7305V32.729C32.7305 33.6549 32.3396 34.7865 30.6729 34.7865H21.5987L14.8497 41.5352C14.2118 42.1319 13.8415 41.7821 13.6151 41.5558L7.46281 35.4243C6.86609 34.7865 7.21589 34.4161 7.44223 34.1898L10.0966 31.515V23.2849L14.2118 19.1699V22.4413C14.2118 24.931 15.8579 28.6139 20.3847 28.6139C24.9115 28.6139 26.5576 24.931 26.5576 22.4413H40.9611V24.4989ZM41.5578 14.8079L38.0598 18.3263H22.4424V22.4413C22.4424 23.3672 22.0514 24.4989 20.3847 24.4989C18.7181 24.4989 18.3271 23.3672 18.3271 22.4413V16.2688C18.3271 15.3223 18.6769 12.1537 22.4424 12.1537H29.4589L34.1503 7.46257C34.7882 6.86589 35.1585 7.21567 35.3849 7.442L41.5372 13.5734C42.1339 14.2113 41.7841 14.5816 41.5578 14.8079Z" fill="#53DFD5"/>
</svg>
