<svg width="45" height="45" viewBox="0 0 45 45" fill="none" xmlns="http://www.w3.org/2000/svg">
<g clip-path="url(#clip0_1054_3522)">
<path d="M40.0781 5.90626C39.5946 5.59346 39.0417 5.40422 38.4679 5.35518C37.8941 5.30614 37.3171 5.3988 36.7875 5.62501L19.4344 12.4594C19.0235 12.6266 18.5842 12.7125 18.1406 12.7125H7.03125C6.09885 12.7125 5.20464 13.0829 4.54533 13.7422C3.88602 14.4015 3.51563 15.2957 3.51562 16.2281V16.5094H0V24.9469H3.51562V25.3125C3.53766 26.2302 3.91775 27.1029 4.57469 27.7441C5.23162 28.3852 6.11328 28.744 7.03125 28.7438L11.25 37.6875C11.5357 38.2898 11.9854 38.7993 12.5476 39.1575C13.1098 39.5157 13.7616 39.708 14.4281 39.7125H16.2C17.1275 39.7051 18.0145 39.3314 18.6678 38.6729C19.321 38.0144 19.6875 37.1244 19.6875 36.1969V29.0813L36.7875 35.9156C37.2081 36.083 37.6567 36.1689 38.1094 36.1688C38.8117 36.1574 39.4956 35.9425 40.0781 35.55C40.5407 35.2377 40.9223 34.8197 41.1913 34.3306C41.4603 33.8415 41.6089 33.2954 41.625 32.7375V8.80313C41.6224 8.23084 41.4802 7.66782 41.2106 7.16298C40.941 6.65814 40.5523 6.22674 40.0781 5.90626ZM16.1719 16.2281V25.3125H7.03125V16.2281H16.1719ZM16.1719 36.1969H14.4L10.9406 28.7438H16.1719V36.1969ZM20.7281 25.7344C20.3942 25.5637 20.046 25.4226 19.6875 25.3125V16.0313C20.0426 15.958 20.3907 15.8545 20.7281 15.7219L38.1094 8.80313V32.6531L20.7281 25.7344ZM41.7094 17.2125V24.2438C42.6418 24.2438 43.536 23.8734 44.1953 23.2141C44.8546 22.5547 45.225 21.6605 45.225 20.7281C45.225 19.7957 44.8546 18.9015 44.1953 18.2422C43.536 17.5829 42.6418 17.2125 41.7094 17.2125Z" fill="#53DFD5"/>
</g>
<defs>
<clipPath id="clip0_1054_3522">
<rect width="45" height="45" fill="white"/>
</clipPath>
</defs>
</svg>
