<svg width="36" height="36" viewBox="0 0 36 36" fill="none" xmlns="http://www.w3.org/2000/svg">
<g clip-path="url(#clip0_1054_3382)">
<path d="M31.4367 6.06094C28.1461 2.34844 23.3578 0 18 0C8.05781 0 0 8.05781 0 18H4.5C4.5 10.5398 10.5398 4.5 18 4.5C22.1133 4.5 25.7625 6.36328 28.2305 9.26719L23.9977 13.5H36V1.49766L31.4367 6.06094ZM18 31.5C13.8867 31.5 10.2375 29.6367 7.76953 26.7328L12.0023 22.5H0V34.5023L4.56328 29.9391C7.85391 33.6516 12.6492 36 18 36C27.9422 36 36 27.9422 36 18H31.5C31.5 25.4602 25.4602 31.5 18 31.5Z" fill="#53DFD5"/>
</g>
<defs>
<clipPath id="clip0_1054_3382">
<rect width="36" height="36" fill="white"/>
</clipPath>
</defs>
</svg>
