<svg width="40" height="38" viewBox="0 0 40 38" fill="none" xmlns="http://www.w3.org/2000/svg">
<path d="M9.53368 19.9776H29.5781V23.7421H31.5337V18.0221H20.5337V14.111H18.5781V18.0221H7.57812V23.7421H9.53368V19.9776Z" fill="#53DFD5"/>
<path d="M14.6667 25.111H2.44444C1.79614 25.111 1.17438 25.3685 0.715961 25.8269C0.257539 26.2853 0 26.9071 0 27.5554V34.8887C0 35.537 0.257539 36.1588 0.715961 36.6172C1.17438 37.0756 1.79614 37.3332 2.44444 37.3332H14.6667C15.315 37.3332 15.9367 37.0756 16.3951 36.6172C16.8536 36.1588 17.1111 35.537 17.1111 34.8887V27.5554C17.1111 26.9071 16.8536 26.2853 16.3951 25.8269C15.9367 25.3685 15.315 25.111 14.6667 25.111ZM2.44444 34.8887V27.5554H14.6667V34.8887H2.44444Z" fill="#53DFD5"/>
<path d="M36.6667 25.111H24.4444C23.7961 25.111 23.1744 25.3685 22.716 25.8269C22.2575 26.2853 22 26.9071 22 27.5554V34.8887C22 35.537 22.2575 36.1588 22.716 36.6172C23.1744 37.0756 23.7961 37.3332 24.4444 37.3332H36.6667C37.315 37.3332 37.9367 37.0756 38.3952 36.6172C38.8536 36.1588 39.1111 35.537 39.1111 34.8887V27.5554C39.1111 26.9071 38.8536 26.2853 38.3952 25.8269C37.9367 25.3685 37.315 25.111 36.6667 25.111ZM24.4444 34.8887V27.5554H36.6667V34.8887H24.4444Z" fill="#53DFD5"/>
<path d="M13.4444 12.8887H25.6667C26.315 12.8887 26.9367 12.6312 27.3951 12.1728C27.8536 11.7143 28.1111 11.0926 28.1111 10.4443V3.11095C28.1111 2.46264 27.8536 1.84089 27.3951 1.38246C26.9367 0.924043 26.315 0.666504 25.6667 0.666504H13.4444C12.7961 0.666504 12.1744 0.924043 11.716 1.38246C11.2575 1.84089 11 2.46264 11 3.11095V10.4443C11 11.0926 11.2575 11.7143 11.716 12.1728C12.1744 12.6312 12.7961 12.8887 13.4444 12.8887ZM13.4444 3.11095H25.6667V10.4443H13.4444V3.11095Z" fill="#53DFD5"/>
</svg>
