<svg width="36" height="36" viewBox="0 0 36 36" fill="none" xmlns="http://www.w3.org/2000/svg">
<path d="M3.8752 32.1248C5.7488 34 8.7664 34 14.8 34H21.2C27.2336 34 30.2512 34 32.1248 32.1248C34 30.2512 34 27.2336 34 21.2C34 19.328 34 17.7472 33.944 16.4M32.1248 10.2752C30.2512 8.4 27.2336 8.4 21.2 8.4H14.8C8.7664 8.4 5.7488 8.4 3.8752 10.2752C2 12.1488 2 15.1664 2 21.2C2 23.072 2 24.6528 2.056 26M18 2C21.0176 2 22.5248 2 23.4624 2.9376C24.4 3.8752 24.4 5.3824 24.4 8.4M12.5376 2.9376C11.6 3.8752 11.6 5.3824 11.6 8.4" stroke="#53DFD5" stroke-width="3.5" stroke-linecap="round"/>
<path d="M17.9998 26.5328C19.7678 26.5328 21.1998 25.3392 21.1998 23.8672C21.1998 22.3952 19.7678 21.2 17.9998 21.2C16.2318 21.2 14.7998 20.0064 14.7998 18.5328C14.7998 17.0608 16.2318 15.8672 17.9998 15.8672M17.9998 26.5328C16.2318 26.5328 14.7998 25.3392 14.7998 23.8672M17.9998 26.5328V27.6M17.9998 15.8672V14.8M17.9998 15.8672C19.7678 15.8672 21.1998 17.0608 21.1998 18.5328" stroke="#53DFD5" stroke-width="3.5" stroke-linecap="round"/>
</svg>
