<svg viewBox="0 0 717 648" fill="none" xmlns="http://www.w3.org/2000/svg"><circle cx="394" cy="325" r="322" stroke="#53DFD5" stroke-linecap="round" stroke-linejoin="round" stroke-dasharray="0 8"/><g filter="url(#a)"><path d="M35 88.89a2.654 2.654 0 0 1 2.653-2.656h299.772a2.654 2.654 0 0 1 2.653 2.655v380.307c0 1.1-.891 1.992-1.99 1.992H36.99a1.99 1.99 0 0 1-1.99-1.992V88.889Z" fill="#fff"/></g><g filter="url(#b)"><path d="M35 88.823c0-1.43 1.242-2.589 2.773-2.589h299.532c1.531 0 2.773 1.16 2.773 2.589v36.239H35v-36.24Z" fill="#fff"/></g><path d="M286.705 105.217v-3.02a.431.431 0 0 0-.863 0v3.02h-3.02a.431.431 0 0 0 0 .863h3.02v3.02a.431.431 0 0 0 .863 0v-3.02h3.02a.431.431 0 0 0 0-.863h-3.02Z" fill="#53DFD5"/><path fill-rule="evenodd" clip-rule="evenodd" d="M286.273 112.929a7.281 7.281 0 1 0 0-14.562 7.281 7.281 0 0 0 0 14.562Zm0 1.04a8.32 8.32 0 1 0 .001-16.64 8.32 8.32 0 0 0-.001 16.64Z" fill="#53DFD5"/><path d="M320.262 105.849v2.704c0 .214-.19.389-.423.389h-8.297c-.234 0-.424-.175-.424-.389v-2.704h-.847v2.704c0 .643.57 1.167 1.271 1.167h8.297c.7 0 1.27-.524 1.27-1.167v-2.704h-.847Z" fill="#9DA3B5" fill-opacity=".5"/><path d="m317.37 104.356-1.381 1.515v-6.215h-.727v6.215l-1.38-1.515-.514.564 2.258 2.477 2.257-2.477-.513-.564Z" fill="#9DA3B5" fill-opacity=".5"/><g filter="url(#c)"><circle cx="352.5" cy="42.641" r="33.281" fill="#fff"/><circle cx="352.5" cy="42.641" r="32.781" stroke="#9DA3B5" stroke-opacity=".5"/></g><path d="M365.958 45.745v9.051c0 .718-.585 1.303-1.303 1.303h-25.526a1.304 1.304 0 0 1-1.303-1.303v-9.051h-2.604v9.051a3.911 3.911 0 0 0 3.907 3.907h25.526a3.911 3.911 0 0 0 3.907-3.907v-9.051h-2.604Z" fill="#53DFD5"/><path d="m358.139 40.712-4.949 4.95v-20.3h-2.605v20.3l-4.949-4.95-1.842 1.842 8.094 8.093 8.093-8.093-1.842-1.842Z" fill="#53DFD5"/><path d="M50.95 103.119v1.659h1.882c.336 0 .608-.061.816-.184.211-.126.317-.347.317-.664 0-.35-.139-.582-.416-.694-.24-.078-.544-.117-.915-.117H50.95Zm0 2.905v2.006h1.882c.336 0 .597-.044.785-.133.34-.163.509-.476.509-.939 0-.391-.165-.66-.494-.807-.183-.081-.442-.124-.774-.127H50.95Zm2.194-4.212c.939.013 1.604.28 1.996.801.235.32.353.703.353 1.149 0 .459-.118.829-.353 1.108a1.84 1.84 0 0 1-.583.429c.392.139.686.36.884.663.201.303.301.671.301 1.103 0 .446-.114.846-.342 1.2a2.092 2.092 0 0 1-.546.592c-.246.184-.537.31-.873.378a5.428 5.428 0 0 1-1.087.102h-3.472v-7.525h3.722ZM58.765 103.772v3.355c0 .316.038.554.114.714.135.283.4.424.796.424.505 0 .852-.201 1.039-.602.097-.218.146-.506.146-.863v-3.028h1.502v5.565h-1.44v-.786a2.618 2.618 0 0 0-.104.153c-.055.085-.121.16-.197.225a2.046 2.046 0 0 1-.676.418 2.305 2.305 0 0 1-.76.113c-.838 0-1.403-.296-1.694-.889-.163-.326-.244-.808-.244-1.444v-3.355h1.518ZM65.27 107.56c.03.259.099.443.202.552.184.194.524.291 1.02.291.29 0 .52-.043.69-.128.174-.085.26-.212.26-.383a.41.41 0 0 0-.207-.372c-.14-.085-.654-.232-1.544-.439-.641-.157-1.094-.353-1.357-.588-.263-.231-.395-.565-.395-1 0-.514.205-.955.613-1.323.413-.371.991-.556 1.736-.556.707 0 1.283.139 1.726.419.447.275.704.753.77 1.434h-1.482a.852.852 0 0 0-.161-.444c-.163-.197-.44-.296-.832-.296-.322 0-.552.049-.691.148-.135.099-.203.214-.203.347a.38.38 0 0 0 .219.363c.145.078.66.212 1.543.403.59.136 1.031.342 1.326.618.29.279.436.628.436 1.046 0 .552-.21 1.003-.628 1.353-.416.348-1.06.521-1.934.521-.89 0-1.55-.184-1.975-.551a1.8 1.8 0 0 1-.635-1.415h1.503ZM71.884 103.108h-1.502v-1.342h1.502v1.342Zm-1.502.664h1.502v5.565h-1.502v-5.565ZM76.782 103.639c.586 0 1.064.152 1.435.455.374.299.561.798.561 1.496v3.747h-1.517v-3.385c0-.293-.04-.517-.12-.674-.145-.286-.423-.429-.832-.429-.502 0-.847.21-1.034.628-.097.222-.146.504-.146.848v3.012h-1.476v-5.555h1.43v.812c.19-.286.37-.492.54-.618.305-.224.692-.337 1.16-.337ZM82.705 104.824c-.343 0-.61.105-.8.316-.187.211-.305.497-.354.858h2.303c-.024-.384-.144-.675-.359-.873a1.102 1.102 0 0 0-.79-.301Zm0-1.2c.472 0 .896.087 1.274.26.377.174.69.448.935.822.222.331.366.714.432 1.149.038.255.053.623.046 1.103h-3.877c.02.558.2.95.535 1.174.205.14.45.21.738.21.305 0 .553-.085.744-.256.104-.092.196-.219.275-.383h1.513c-.038.331-.213.666-.525 1.006-.485.541-1.165.812-2.038.812-.72 0-1.357-.228-1.907-.684-.551-.456-.827-1.198-.827-2.226 0-.963.248-1.702.743-2.216.5-.514 1.146-.771 1.94-.771ZM87.869 107.56c.031.259.099.443.203.552.183.194.523.291 1.019.291.29 0 .521-.043.69-.128.174-.085.26-.212.26-.383a.41.41 0 0 0-.207-.372c-.139-.085-.653-.232-1.544-.439-.641-.157-1.093-.353-1.357-.588-.263-.231-.395-.565-.395-1 0-.514.205-.955.614-1.323.412-.371.99-.556 1.736-.556.707 0 1.282.139 1.725.419.448.275.704.753.77 1.434H89.9a.852.852 0 0 0-.16-.444c-.164-.197-.44-.296-.832-.296-.323 0-.553.049-.692.148-.135.099-.202.214-.202.347a.38.38 0 0 0 .218.363c.145.078.66.212 1.544.403.589.136 1.03.342 1.325.618.291.279.437.628.437 1.046 0 .552-.21 1.003-.63 1.353-.415.348-1.06.521-1.933.521-.89 0-1.549-.184-1.975-.551a1.8 1.8 0 0 1-.634-1.415h1.502ZM94.114 107.56c.031.259.099.443.203.552.183.194.523.291 1.019.291.29 0 .521-.043.69-.128.174-.085.26-.212.26-.383a.41.41 0 0 0-.207-.372c-.139-.085-.653-.232-1.544-.439-.641-.157-1.093-.353-1.357-.588-.263-.231-.395-.565-.395-1 0-.514.205-.955.614-1.323.412-.371.99-.556 1.736-.556.707 0 1.282.139 1.726.419.447.275.703.753.769 1.434h-1.482a.852.852 0 0 0-.16-.444c-.164-.197-.44-.296-.832-.296-.323 0-.553.049-.692.148-.135.099-.202.214-.202.347a.38.38 0 0 0 .218.363c.145.078.66.212 1.544.403.589.136 1.03.342 1.325.618.291.279.437.628.437 1.046 0 .552-.21 1.003-.63 1.353-.415.348-1.06.521-1.933.521-.89 0-1.549-.184-1.975-.551a1.8 1.8 0 0 1-.634-1.415h1.502ZM102.607 101.812h1.627v4.625c0 .518.062.895.187 1.134.194.422.617.633 1.268.633.648 0 1.069-.211 1.263-.633.125-.239.187-.616.187-1.134v-4.625h1.627v4.625c0 .8-.126 1.423-.379 1.869-.471.817-1.371 1.225-2.698 1.225s-2.228-.408-2.703-1.225c-.253-.446-.379-1.069-.379-1.869v-4.625ZM113.639 103.639c.586 0 1.064.152 1.435.455.374.299.561.798.561 1.496v3.747h-1.518v-3.385c0-.293-.04-.517-.119-.674-.146-.286-.423-.429-.832-.429-.502 0-.847.21-1.034.628-.097.222-.146.504-.146.848v3.012h-1.476v-5.555h1.429v.812c.191-.286.371-.492.541-.618.305-.224.691-.337 1.159-.337ZM118.85 103.108h-1.503v-1.342h1.503v1.342Zm-1.503.664h1.503v5.565h-1.503v-5.565ZM120.027 104.86v-1.037h.79v-1.552h1.466v1.552h.92v1.037h-.92v2.94c0 .229.029.371.088.429.059.055.239.082.541.082h.14l.151-.01v1.087l-.702.026c-.7.024-1.178-.095-1.435-.358-.166-.166-.249-.423-.249-.771v-3.425h-.79ZM125.627 107.56c.031.259.099.443.203.552.184.194.523.291 1.019.291.291 0 .521-.043.691-.128.173-.085.26-.212.26-.383a.41.41 0 0 0-.208-.372c-.139-.085-.653-.232-1.544-.439-.641-.157-1.093-.353-1.356-.588-.264-.231-.396-.565-.396-1 0-.514.205-.955.614-1.323.412-.371.991-.556 1.736-.556.707 0 1.282.139 1.726.419.447.275.703.753.769 1.434h-1.481a.85.85 0 0 0-.162-.444c-.162-.197-.44-.296-.831-.296-.323 0-.553.049-.692.148-.135.099-.202.214-.202.347 0 .167.072.288.218.363.146.078.66.212 1.544.403.589.136 1.031.342 1.325.618.291.279.437.628.437 1.046 0 .552-.21 1.003-.629 1.353-.416.348-1.06.521-1.934.521-.89 0-1.549-.184-1.975-.551a1.8 1.8 0 0 1-.634-1.415h1.502Z" fill="#717685"/><path d="M63.844 156.081v-7.722h1.56v2.944h2.948v-2.944h1.566v7.722h-1.566v-3.447h-2.947v3.447h-1.561ZM73.825 151.45c-.337 0-.6.108-.788.325-.184.216-.3.51-.348.88h2.267c-.023-.395-.141-.693-.353-.896a1.062 1.062 0 0 0-.778-.309Zm0-1.231c.464 0 .882.089 1.254.267.372.178.68.459.921.844.219.338.36.731.425 1.178.038.262.053.639.046 1.132h-3.818c.02.572.197.974.528 1.205.2.143.443.214.726.214.3 0 .544-.087.732-.262.102-.094.193-.225.271-.393h1.49c-.038.339-.21.683-.517 1.032-.478.556-1.147.833-2.006.833a2.79 2.79 0 0 1-1.879-.702c-.542-.468-.813-1.229-.813-2.284 0-.988.244-1.746.731-2.273.492-.527 1.128-.791 1.91-.791ZM80.849 153.304c-.092.06-.186.109-.282.147-.092.035-.22.068-.383.1l-.328.062c-.307.056-.527.124-.66.205-.225.136-.338.347-.338.634 0 .255.069.44.205.555.14.112.309.168.507.168.314 0 .602-.095.865-.283.266-.189.404-.533.414-1.032v-.556Zm-.885-.696c.27-.035.462-.079.578-.131.208-.091.312-.232.312-.425 0-.234-.08-.394-.24-.481-.157-.091-.39-.137-.696-.137-.345 0-.589.088-.732.262-.103.129-.17.304-.205.524h-1.407c.03-.499.167-.91.41-1.231.385-.503 1.047-.754 1.985-.754.61 0 1.153.124 1.627.372s.712.716.712 1.404v2.619c0 .181.003.401.01.66.01.195.039.328.087.398.047.07.12.127.215.173v.22h-1.587a1.702 1.702 0 0 1-.092-.325 4.018 4.018 0 0 1-.04-.346 2.994 2.994 0 0 1-.697.571 2.057 2.057 0 0 1-1.064.278c-.505 0-.923-.147-1.254-.44-.328-.297-.491-.716-.491-1.257 0-.702.264-1.21.793-1.525.29-.171.716-.293 1.28-.366l.496-.063ZM85.98 150.235a1.757 1.757 0 0 1 1.54.859v-2.724h1.479v7.711H87.58v-.791c-.208.339-.445.585-.711.738-.267.154-.598.231-.993.231-.652 0-1.201-.269-1.648-.807-.444-.541-.665-1.234-.665-2.079 0-.975.218-1.741.655-2.3.44-.559 1.027-.838 1.76-.838Zm.316 4.767c.413 0 .727-.157.942-.472.215-.314.323-.721.323-1.22 0-.699-.173-1.198-.517-1.499a1.1 1.1 0 0 0-.737-.272c-.427 0-.74.166-.942.498-.198.328-.297.737-.297 1.226 0 .527.1.949.302 1.267.205.315.514.472.926.472ZM93.008 154.981c.501 0 .858-.22 1.07-.66.136-.29.204-.657.204-1.1 0-.35-.058-.662-.174-.938-.208-.496-.573-.744-1.095-.744-.369 0-.665.145-.89.435-.222.29-.333.73-.333 1.32 0 .395.051.718.153.969.192.478.546.718 1.065.718Zm-.369-4.757c.464 0 .84.117 1.126.351.168.133.338.351.512.655v-.849h1.407v7.963h-1.443v-2.97c-.109.23-.297.436-.563.618-.262.178-.622.267-1.08.267-.644 0-1.194-.264-1.647-.791-.454-.527-.681-1.231-.681-2.111 0-.95.227-1.71.68-2.279.458-.569 1.02-.854 1.69-.854ZM98.819 150.371v3.442c0 .324.037.569.112.733.133.29.394.435.783.435.498 0 .84-.206 1.024-.618.095-.224.143-.519.143-.886v-3.106h1.479v5.71h-1.418v-.807c-.013.018-.047.07-.102.157a1.03 1.03 0 0 1-.194.231 2.033 2.033 0 0 1-.666.429c-.211.077-.46.115-.747.115-.826 0-1.382-.303-1.668-.911-.16-.335-.24-.829-.24-1.482v-3.442h1.494ZM107.163 153.304c-.092.06-.186.109-.282.147-.092.035-.22.068-.384.1l-.327.062c-.307.056-.527.124-.66.205-.226.136-.338.347-.338.634 0 .255.068.44.205.555a.782.782 0 0 0 .506.168c.314 0 .602-.095.865-.283.266-.189.404-.533.415-1.032v-.556Zm-.886-.696c.27-.035.463-.079.579-.131.208-.091.312-.232.312-.425 0-.234-.08-.394-.241-.481-.157-.091-.389-.137-.696-.137-.344 0-.588.088-.732.262-.102.129-.17.304-.204.524h-1.408c.031-.499.168-.91.41-1.231.385-.503 1.047-.754 1.985-.754.611 0 1.154.124 1.628.372s.711.716.711 1.404v2.619c0 .181.004.401.01.66.011.195.04.328.087.398.048.07.12.127.215.173v.22h-1.586a1.716 1.716 0 0 1-.092-.325 3.938 3.938 0 0 1-.041-.346 2.982 2.982 0 0 1-.696.571 2.059 2.059 0 0 1-1.065.278c-.505 0-.923-.147-1.253-.44-.328-.297-.492-.716-.492-1.257 0-.702.265-1.21.793-1.525.29-.171.717-.293 1.28-.366l.496-.063ZM113.265 150.235c.027 0 .05.001.067.005l.128.005v1.53a3.272 3.272 0 0 0-.42-.026c-.587 0-.981.195-1.182.586-.113.22-.169.559-.169 1.017v2.729h-1.469v-5.71h1.392v.995c.225-.38.421-.641.589-.78.273-.234.627-.351 1.064-.351ZM114.061 151.487v-1.064h.777v-1.592h1.444v1.592h.905v1.064h-.905v3.017c0 .234.029.381.087.44.058.056.235.084.532.084h.138l.148-.011v1.116l-.69.026c-.69.025-1.16-.097-1.413-.366-.164-.171-.246-.435-.246-.791v-3.515h-.777ZM120.639 151.45c-.338 0-.6.108-.788.325-.184.216-.3.51-.348.88h2.267c-.024-.395-.142-.693-.353-.896a1.062 1.062 0 0 0-.778-.309Zm0-1.231c.464 0 .882.089 1.254.267.372.178.679.459.921.844.218.338.36.731.425 1.178.037.262.053.639.046 1.132h-3.818c.021.572.196.974.527 1.205.201.143.444.214.727.214.3 0 .544-.087.732-.262.102-.094.192-.225.271-.393h1.489c-.037.339-.21.683-.517 1.032-.477.556-1.146.833-2.006.833a2.79 2.79 0 0 1-1.878-.702c-.542-.468-.814-1.229-.814-2.284 0-.988.244-1.746.732-2.273.491-.527 1.128-.791 1.909-.791ZM127.617 150.235c.027 0 .049.001.066.005l.128.005v1.53a3.23 3.23 0 0 0-.42-.026c-.586 0-.98.195-1.182.586-.112.22-.169.559-.169 1.017v2.729h-1.468v-5.71h1.392v.995c.225-.38.421-.641.588-.78.273-.234.628-.351 1.065-.351ZM130.121 154.258c.031.265.098.454.2.566.181.199.515.298 1.003.298.287 0 .513-.044.681-.131.17-.087.255-.218.255-.393a.426.426 0 0 0-.204-.382c-.137-.087-.643-.238-1.52-.451-.631-.16-1.077-.361-1.336-.602-.259-.237-.389-.58-.389-1.027 0-.527.202-.979.604-1.356.406-.381.976-.571 1.709-.571.696 0 1.263.143 1.699.429.441.283.693.774.758 1.472h-1.459a.896.896 0 0 0-.158-.456c-.161-.202-.434-.304-.819-.304-.317 0-.544.051-.681.152-.133.102-.199.22-.199.357a.39.39 0 0 0 .215.372c.143.08.65.218 1.519.413.58.14 1.015.351 1.305.634.287.287.43.645.43 1.074 0 .566-.206 1.029-.619 1.388-.409.356-1.044.535-1.904.535-.876 0-1.525-.189-1.944-.566-.417-.381-.625-.864-.625-1.451h1.479Z" fill="#000"/><path fill-rule="evenodd" clip-rule="evenodd" d="M55.339 163.891c.204 0 .37.148.37.33v.665c0 .182-.166.33-.37.33-.205 0-.37-.148-.37-.33v-.665c0-.182.165-.33.37-.33Zm0 2.656c.204 0 .37.148.37.331v1.328c0 .182-.166.331-.37.331-.205 0-.37-.149-.37-.331v-1.328c0-.183.165-.331.37-.331Zm0 3.32c.204 0 .37.148.37.331v1.328c0 .183-.166.331-.37.331-.205 0-.37-.148-.37-.331v-1.328c0-.183.165-.331.37-.331Zm0 3.32c.204 0 .37.148.37.331v1.328c0 .183-.166.331-.37.331-.205 0-.37-.148-.37-.331v-1.328c0-.183.165-.331.37-.331Zm0 3.321c.204 0 .37.148.37.33v1.329c0 .182-.166.33-.37.33-.205 0-.37-.148-.37-.33v-1.329c0-.182.165-.33.37-.33Zm0 3.32c.204 0 .37.148.37.331v1.328c0 .182-.166.331-.37.331-.205 0-.37-.149-.37-.331v-1.328c0-.183.165-.331.37-.331Zm0 3.32c.204 0 .37.148.37.331v1.328c0 .183-.166.331-.37.331-.205 0-.37-.148-.37-.331v-1.328c0-.183.165-.331.37-.331Zm0 3.32c.204 0 .37.148.37.331v1.328c0 .183-.166.331-.37.331-.205 0-.37-.148-.37-.331v-1.328c0-.183.165-.331.37-.331Zm0 3.321c.204 0 .37.148.37.33v1.328c0 .183-.166.331-.37.331-.205 0-.37-.148-.37-.331v-1.328c0-.182.165-.33.37-.33Zm0 3.32c.204 0 .37.148.37.331v1.328c0 .182-.166.331-.37.331-.205 0-.37-.149-.37-.331v-1.328c0-.183.165-.331.37-.331Zm0 3.32c.204 0 .37.148.37.331v1.328c0 .183-.166.331-.37.331-.205 0-.37-.148-.37-.331v-1.328c0-.183.165-.331.37-.331Zm0 3.32c.204 0 .37.148.37.331v1.328c0 .183-.166.331-.37.331-.205 0-.37-.148-.37-.331v-1.328c0-.183.165-.331.37-.331Zm0 3.321c.204 0 .37.148.37.33v1.328c0 .183-.166.331-.37.331-.205 0-.37-.148-.37-.331V203.4c0-.182.165-.33.37-.33Zm0 3.32c.204 0 .37.148.37.331v1.328c0 .182-.166.331-.37.331-.205 0-.37-.149-.37-.331v-1.328c0-.183.165-.331.37-.331Zm0 3.32c.204 0 .37.148.37.331v1.328c0 .183-.166.331-.37.331-.205 0-.37-.148-.37-.331v-1.328c0-.183.165-.331.37-.331Zm0 3.32c.204 0 .37.148.37.331v1.328c0 .183-.166.331-.37.331-.205 0-.37-.148-.37-.331v-1.328c0-.183.165-.331.37-.331Zm0 3.321c.204 0 .37.148.37.33v1.328c0 .183-.166.331-.37.331-.205 0-.37-.148-.37-.331v-1.328c0-.182.165-.33.37-.33Zm0 3.32c.204 0 .37.148.37.331v1.328c0 .182-.166.331-.37.331-.205 0-.37-.149-.37-.331v-1.328c0-.183.165-.331.37-.331Zm0 3.32c.204 0 .37.148.37.331v1.328c0 .183-.166.331-.37.331-.205 0-.37-.148-.37-.331v-1.328c0-.183.165-.331.37-.331Zm0 3.32c.204 0 .37.148.37.331v1.328c0 .183-.166.331-.37.331-.205 0-.37-.148-.37-.331v-1.328c0-.183.165-.331.37-.331Zm0 3.321c.204 0 .37.148.37.33v1.328c0 .183-.166.331-.37.331-.205 0-.37-.148-.37-.331v-1.328c0-.182.165-.33.37-.33Zm0 3.32c.204 0 .37.148.37.331v1.328c0 .182-.166.331-.37.331-.205 0-.37-.149-.37-.331v-1.328c0-.183.165-.331.37-.331Zm0 3.32c.204 0 .37.148.37.331v1.328c0 .183-.166.331-.37.331-.205 0-.37-.148-.37-.331v-1.328c0-.183.165-.331.37-.331Zm0 3.32c.204 0 .37.148.37.331v1.328c0 .183-.166.331-.37.331-.205 0-.37-.148-.37-.331v-1.328c0-.183.165-.331.37-.331Zm0 3.32c.204 0 .37.149.37.331v1.328c0 .183-.166.331-.37.331-.205 0-.37-.148-.37-.331v-1.328c0-.182.165-.331.37-.331Zm0 3.321c.204 0 .37.148.37.331v1.328c0 .182-.166.331-.37.331-.205 0-.37-.149-.37-.331v-1.328c0-.183.165-.331.37-.331Zm0 3.32c.204 0 .37.148.37.331v1.328c0 .183-.166.331-.37.331-.205 0-.37-.148-.37-.331v-1.328c0-.183.165-.331.37-.331Zm0 3.32c.204 0 .37.148.37.331v1.328c0 .183-.166.331-.37.331-.205 0-.37-.148-.37-.331v-1.328c0-.183.165-.331.37-.331Zm0 3.32c.204 0 .37.149.37.331v1.328c0 .183-.166.331-.37.331-.205 0-.37-.148-.37-.331v-1.328c0-.182.165-.331.37-.331Zm0 3.321c.204 0 .37.148.37.331v1.328c0 .182-.166.33-.37.33-.205 0-.37-.148-.37-.33v-1.328c0-.183.165-.331.37-.331Zm0 3.32c.204 0 .37.148.37.331v1.328c0 .183-.166.331-.37.331-.205 0-.37-.148-.37-.331v-1.328c0-.183.165-.331.37-.331Zm0 3.32c.204 0 .37.148.37.331v1.328c0 .183-.166.331-.37.331-.205 0-.37-.148-.37-.331v-1.328c0-.183.165-.331.37-.331Zm0 3.32c.204 0 .37.149.37.331v1.328c0 .183-.166.331-.37.331-.205 0-.37-.148-.37-.331v-1.328c0-.182.165-.331.37-.331Zm0 3.321c.204 0 .37.148.37.331v1.328c0 .182-.166.33-.37.33-.205 0-.37-.148-.37-.33v-1.328c0-.183.165-.331.37-.331Zm0 3.32c.204 0 .37.148.37.331v1.328c0 .183-.166.331-.37.331-.205 0-.37-.148-.37-.331v-1.328c0-.183.165-.331.37-.331Zm0 3.32c.204 0 .37.148.37.331v1.328c0 .183-.166.331-.37.331-.205 0-.37-.148-.37-.331v-1.328c0-.183.165-.331.37-.331Zm0 3.32c.204 0 .37.149.37.331v1.328c0 .183-.166.331-.37.331-.205 0-.37-.148-.37-.331v-1.328c0-.182.165-.331.37-.331Zm0 3.321c.204 0 .37.148.37.331v1.328c0 .182-.166.33-.37.33-.205 0-.37-.148-.37-.33v-1.328c0-.183.165-.331.37-.331Zm0 3.32c.204 0 .37.148.37.331v1.328c0 .183-.166.331-.37.331-.205 0-.37-.148-.37-.331v-1.328c0-.183.165-.331.37-.331Zm0 3.32c.204 0 .37.148.37.331v1.328c0 .183-.166.331-.37.331-.205 0-.37-.148-.37-.331v-1.328c0-.183.165-.331.37-.331Zm0 3.32c.204 0 .37.149.37.331v1.328c0 .183-.166.331-.37.331-.205 0-.37-.148-.37-.331v-1.328c0-.182.165-.331.37-.331Zm0 3.321c.204 0 .37.148.37.33v1.329c0 .182-.166.33-.37.33-.205 0-.37-.148-.37-.33v-1.329c0-.182.165-.33.37-.33Zm0 3.32c.204 0 .37.148.37.331v1.328c0 .183-.166.331-.37.331-.205 0-.37-.148-.37-.331v-1.328c0-.183.165-.331.37-.331Zm0 3.32c.204 0 .37.148.37.331v1.328c0 .183-.166.331-.37.331-.205 0-.37-.148-.37-.331v-1.328c0-.183.165-.331.37-.331Zm0 3.32c.204 0 .37.148.37.331v1.328c0 .183-.166.331-.37.331-.205 0-.37-.148-.37-.331v-1.328c0-.183.165-.331.37-.331Zm0 3.321c.204 0 .37.148.37.33v1.329c0 .182-.166.33-.37.33-.205 0-.37-.148-.37-.33v-1.329c0-.182.165-.33.37-.33Zm0 3.32c.204 0 .37.148.37.331v1.328c0 .183-.166.331-.37.331-.205 0-.37-.148-.37-.331v-1.328c0-.183.165-.331.37-.331Zm0 3.32c.204 0 .37.148.37.331v1.328c0 .183-.166.331-.37.331-.205 0-.37-.148-.37-.331v-1.328c0-.183.165-.331.37-.331Zm0 3.32c.204 0 .37.148.37.331v1.328c0 .183-.166.331-.37.331-.205 0-.37-.148-.37-.331v-1.328c0-.183.165-.331.37-.331Zm0 3.321c.204 0 .37.148.37.33v1.329c0 .182-.166.33-.37.33-.205 0-.37-.148-.37-.33v-1.329c0-.182.165-.33.37-.33Zm0 3.32c.204 0 .37.148.37.331v1.328c0 .183-.166.331-.37.331-.205 0-.37-.148-.37-.331v-1.328c0-.183.165-.331.37-.331Zm0 3.32c.204 0 .37.148.37.331v1.328c0 .183-.166.331-.37.331-.205 0-.37-.148-.37-.331v-1.328c0-.183.165-.331.37-.331Zm0 3.32c.204 0 .37.148.37.331v1.328c0 .183-.166.331-.37.331-.205 0-.37-.148-.37-.331v-1.328c0-.183.165-.331.37-.331Zm0 3.321c.204 0 .37.148.37.33v1.329c0 .182-.166.33-.37.33-.205 0-.37-.148-.37-.33v-1.329c0-.182.165-.33.37-.33Zm0 3.32c.204 0 .37.148.37.331v1.328c0 .182-.166.331-.37.331-.205 0-.37-.149-.37-.331v-1.328c0-.183.165-.331.37-.331Zm0 3.32c.204 0 .37.148.37.331v1.328c0 .183-.166.331-.37.331-.205 0-.37-.148-.37-.331v-1.328c0-.183.165-.331.37-.331Zm0 3.32c.204 0 .37.148.37.331v1.328c0 .183-.166.331-.37.331-.205 0-.37-.148-.37-.331v-1.328c0-.183.165-.331.37-.331Zm0 3.321c.204 0 .37.148.37.33v1.329c0 .182-.166.33-.37.33-.205 0-.37-.148-.37-.33v-1.329c0-.182.165-.33.37-.33Zm0 3.32c.204 0 .37.148.37.331v1.328c0 .182-.166.331-.37.331-.205 0-.37-.149-.37-.331v-1.328c0-.183.165-.331.37-.331Zm0 3.32c.204 0 .37.148.37.331v1.328c0 .183-.166.331-.37.331-.205 0-.37-.148-.37-.331v-1.328c0-.183.165-.331.37-.331Zm0 3.32c.204 0 .37.148.37.331v1.328c0 .183-.166.331-.37.331-.205 0-.37-.148-.37-.331v-1.328c0-.183.165-.331.37-.331Zm0 3.321c.204 0 .37.148.37.33v1.328c0 .183-.166.331-.37.331-.205 0-.37-.148-.37-.331v-1.328c0-.182.165-.33.37-.33Zm0 3.32c.204 0 .37.148.37.331v1.328c0 .182-.166.331-.37.331-.205 0-.37-.149-.37-.331v-1.328c0-.183.165-.331.37-.331Zm0 3.32c.204 0 .37.148.37.331v1.328c0 .183-.166.331-.37.331-.205 0-.37-.148-.37-.331v-1.328c0-.183.165-.331.37-.331Zm0 3.32c.204 0 .37.148.37.331v1.328c0 .183-.166.331-.37.331-.205 0-.37-.148-.37-.331v-1.328c0-.183.165-.331.37-.331Zm0 3.321c.204 0 .37.148.37.33v1.328c0 .183-.166.331-.37.331-.205 0-.37-.148-.37-.331v-1.328c0-.182.165-.33.37-.33Zm0 3.32c.204 0 .37.148.37.331v1.328c0 .182-.166.331-.37.331-.205 0-.37-.149-.37-.331v-1.328c0-.183.165-.331.37-.331Zm0 3.32c.204 0 .37.148.37.331v1.328c0 .183-.166.331-.37.331-.205 0-.37-.148-.37-.331v-1.328c0-.183.165-.331.37-.331Zm0 3.32c.204 0 .37.148.37.331v1.328c0 .183-.166.331-.37.331-.205 0-.37-.148-.37-.331v-1.328c0-.183.165-.331.37-.331Zm0 3.321c.204 0 .37.148.37.33v1.328c0 .183-.166.331-.37.331-.205 0-.37-.148-.37-.331v-1.328c0-.182.165-.33.37-.33Zm0 3.32c.204 0 .37.148.37.331v1.328c0 .182-.166.331-.37.331-.205 0-.37-.149-.37-.331v-1.328c0-.183.165-.331.37-.331Zm0 3.32c.204 0 .37.148.37.331v1.328c0 .183-.166.331-.37.331-.205 0-.37-.148-.37-.331v-1.328c0-.183.165-.331.37-.331Zm0 3.32c.204 0 .37.148.37.331v1.328c0 .183-.166.331-.37.331-.205 0-.37-.148-.37-.331v-1.328c0-.183.165-.331.37-.331Zm0 3.32c.204 0 .37.149.37.331v1.328c0 .183-.166.331-.37.331-.205 0-.37-.148-.37-.331v-1.328c0-.182.165-.331.37-.331Zm0 3.321c.204 0 .37.148.37.331v1.328c0 .182-.166.331-.37.331-.205 0-.37-.149-.37-.331v-1.328c0-.183.165-.331.37-.331Zm0 3.32c.204 0 .37.148.37.331v1.328c0 .183-.166.331-.37.331-.205 0-.37-.148-.37-.331v-1.328c0-.183.165-.331.37-.331Zm0 3.32c.204 0 .37.148.37.331v1.328c0 .183-.166.331-.37.331-.205 0-.37-.148-.37-.331v-1.328c0-.183.165-.331.37-.331Zm0 3.32c.204 0 .37.149.37.331v1.328c0 .183-.166.331-.37.331-.205 0-.37-.148-.37-.331v-1.328c0-.182.165-.331.37-.331Zm0 3.321c.204 0 .37.148.37.331v1.328c0 .182-.166.33-.37.33-.205 0-.37-.148-.37-.33v-1.328c0-.183.165-.331.37-.331Zm0 3.32c.204 0 .37.148.37.331v1.328c0 .183-.166.331-.37.331-.205 0-.37-.148-.37-.331v-1.328c0-.183.165-.331.37-.331Zm0 3.32c.204 0 .37.148.37.331v1.328c0 .183-.166.331-.37.331-.205 0-.37-.148-.37-.331v-1.328c0-.183.165-.331.37-.331Zm0 3.32c.204 0 .37.149.37.331v1.328c0 .183-.166.331-.37.331-.205 0-.37-.148-.37-.331v-1.328c0-.182.165-.331.37-.331Zm0 3.321c.204 0 .37.148.37.331v1.328c0 .182-.166.33-.37.33-.205 0-.37-.148-.37-.33v-1.328c0-.183.165-.331.37-.331Zm0 3.32c.204 0 .37.148.37.331v1.328c0 .183-.166.331-.37.331-.205 0-.37-.148-.37-.331v-1.328c0-.183.165-.331.37-.331Zm0 3.32c.204 0 .37.148.37.331v.333h.591c.204 0 .37.149.37.331 0 .183-.166.331-.37.331h-.961c-.205 0-.37-.148-.37-.331v-.664c0-.183.165-.331.37-.331Zm3.476.995c0-.182.165-.331.37-.331h.96c.205 0 .37.149.37.331 0 .183-.165.331-.37.331h-.96c-.205 0-.37-.148-.37-.331Z" fill="#9DA3B5"/><path d="M54.969 146.141h1.11v12.203h-1.11v-12.203ZM67.172 171.656h1.11v12.203h-1.11v-12.203ZM67.172 203.828h1.11v13.313h-1.11v-13.313ZM67.172 237.109h1.11v13.313h-1.11v-13.313ZM67.172 270.391h1.11v12.203h-1.11v-12.203Z" fill="#53DFD5"/><path d="M67.172 303.672h1.11v13.312h-1.11v-13.312Z" fill="#9DA3B5"/><path d="M67.172 336.953h1.11v13.313h-1.11v-13.313Z" fill="#53DFD5"/><path d="M67.172 369.125h1.11v14.422h-1.11v-14.422ZM67.172 402.406h1.11v14.422h-1.11v-14.422ZM67.172 435.688h1.11v14.421h-1.11v-14.421Z" fill="#9DA3B5"/><path fill-rule="evenodd" clip-rule="evenodd" d="M60.516 376.336c0 .306-.166.555-.37.555h-.74c-.204 0-.37-.249-.37-.555 0-.306.166-.555.37-.555h.74c.204 0 .37.249.37.555Zm-2.959 0c0 .306-.165.555-.37.555h-.74c-.203 0-.369-.249-.369-.555 0-.306.166-.555.37-.555h.74c.204 0 .37.249.37.555ZM60.516 310.883c0 .306-.166.555-.37.555h-.74c-.204 0-.37-.249-.37-.555 0-.307.166-.555.37-.555h.74c.204 0 .37.248.37.555Zm-2.959 0c0 .306-.165.555-.37.555h-.74c-.203 0-.369-.249-.369-.555 0-.307.166-.555.37-.555h.74c.204 0 .37.248.37.555ZM60.516 277.602c0 .306-.166.554-.37.554h-.74c-.204 0-.37-.248-.37-.554 0-.307.166-.555.37-.555h.74c.204 0 .37.248.37.555Zm-2.959 0c0 .306-.165.554-.37.554h-.74c-.203 0-.369-.248-.369-.554 0-.307.166-.555.37-.555h.74c.204 0 .37.248.37.555ZM60.516 244.32c0 .307-.166.555-.37.555h-.74c-.204 0-.37-.248-.37-.555 0-.306.166-.554.37-.554h.74c.204 0 .37.248.37.554Zm-2.959 0c0 .307-.165.555-.37.555h-.74c-.203 0-.369-.248-.369-.555 0-.306.166-.554.37-.554h.74c.204 0 .37.248.37.554ZM60.516 211.039c0 .306-.166.555-.37.555h-.74c-.204 0-.37-.249-.37-.555 0-.306.166-.555.37-.555h.74c.204 0 .37.249.37.555Zm-2.959 0c0 .306-.165.555-.37.555h-.74c-.203 0-.369-.249-.369-.555 0-.306.166-.555.37-.555h.74c.204 0 .37.249.37.555ZM60.516 178.312c0 .613-.166 1.11-.37 1.11h-.74c-.204 0-.37-.497-.37-1.11 0-.612.166-1.109.37-1.109h.74c.204 0 .37.497.37 1.109Zm-2.959 0c0 .613-.165 1.11-.37 1.11h-.74c-.203 0-.369-.497-.369-1.11 0-.612.166-1.109.37-1.109h.74c.204 0 .37.497.37 1.109Z" fill="#9DA3B5"/><path d="M77.156 171.656h142v13.313h-142v-13.313ZM77.156 202.719h113.156v14.422H77.156v-14.422ZM77.156 270.391h130.906v14.421H77.156v-14.421ZM77.156 303.672h73.219v13.312H77.156v-13.312ZM77.156 336.953h113.156v13.313H77.156v-13.313ZM77.156 369.125H141.5v14.422H77.156v-14.422ZM77.156 402.406h142v14.422h-142v-14.422ZM77.156 435.688h73.219v14.421H77.156v-14.421Z" fill="#EAEEF6"/><g filter="url(#d)"><path d="M352.281 91.234a5 5 0 0 1 5-5h294.078a6 6 0 0 1 6 6V573.48c0 1.098-.89 1.989-1.989 1.989H354.271a1.99 1.99 0 0 1-1.99-1.989V91.234Z" fill="#fff"/></g><path opacity=".5" fill-rule="evenodd" clip-rule="evenodd" d="M645.156 218.25H366.703v-1.109h278.453v1.109ZM645.156 253.75H366.703v-1.109h278.453v1.109ZM645.156 289.25H366.703v-1.109h278.453v1.109ZM645.156 433.469H366.703v-1.11h278.453v1.11ZM645.156 468.969H366.703v-1.11h278.453v1.11ZM645.156 504.469H366.703v-1.11h278.453v1.11Z" fill="#9DA3B5"/><path d="M377.816 193.844h1.203v3.608c0 .404.046.699.138.885.143.329.456.494.937.494.479 0 .79-.165.934-.494.092-.186.138-.481.138-.885v-3.608h1.203v3.608c0 .624-.094 1.11-.281 1.458-.348.637-1.013.956-1.994.956-.981 0-1.647-.319-1.997-.956-.187-.348-.281-.834-.281-1.458v-3.608ZM384.414 198.329c.023.201.073.345.15.43.136.151.387.227.753.227.215 0 .385-.033.511-.1.128-.066.192-.166.192-.298a.323.323 0 0 0-.154-.291c-.102-.067-.483-.181-1.141-.343-.474-.122-.808-.275-1.003-.458-.194-.18-.291-.441-.291-.78 0-.401.151-.745.453-1.032.305-.29.732-.434 1.283-.434.522 0 .948.109 1.275.326.331.215.52.589.569 1.12h-1.095a.686.686 0 0 0-.119-.347c-.12-.154-.325-.231-.615-.231-.238 0-.408.039-.511.116-.099.077-.149.167-.149.27 0 .131.053.225.161.283.108.061.488.166 1.141.315.435.106.762.267.98.482.215.218.322.49.322.816 0 .431-.155.782-.465 1.056-.307.271-.783.406-1.429.406-.658 0-1.145-.143-1.46-.43a1.438 1.438 0 0 1-.468-1.103h1.11ZM389.74 196.194c-.253 0-.45.082-.591.247-.139.164-.226.387-.262.669h1.702c-.018-.3-.106-.527-.265-.681a.79.79 0 0 0-.584-.235Zm0-.936c.349 0 .662.067.942.203.279.135.509.349.691.641.164.258.27.556.319.896.028.199.04.486.035.861h-2.866c.015.435.147.741.395.916a.908.908 0 0 0 .546.163.767.767 0 0 0 .549-.199.944.944 0 0 0 .204-.299h1.118c-.028.258-.158.519-.388.785-.359.422-.861.633-1.506.633a2.078 2.078 0 0 1-1.41-.534c-.407-.355-.611-.934-.611-1.736 0-.752.183-1.328.549-1.729.369-.401.847-.601 1.433-.601ZM394.89 195.27c.02 0 .037.001.05.004l.096.004v1.163a2.444 2.444 0 0 0-.315-.02c-.441 0-.737.148-.888.446-.084.167-.126.425-.126.773v2.075h-1.103v-4.342h1.045v.757c.169-.289.316-.487.442-.593.205-.178.471-.267.799-.267ZM377.797 203.361h1.241l2.255 4.098v-4.098h1.103v5.871h-1.184l-2.313-4.171v4.171h-1.102v-5.871ZM385.87 207.121c-.069.045-.14.082-.211.111a1.747 1.747 0 0 1-.288.076l-.246.048c-.231.042-.396.094-.496.155-.169.103-.253.264-.253.482 0 .194.051.334.153.422a.587.587 0 0 0 .381.128c.235 0 .452-.072.649-.216.2-.143.303-.404.311-.784v-.422Zm-.665-.53c.203-.027.347-.06.435-.1.156-.069.234-.176.234-.322 0-.178-.06-.3-.181-.367-.117-.069-.292-.103-.522-.103-.259 0-.442.066-.55.199a.846.846 0 0 0-.153.398h-1.057c.023-.38.126-.692.308-.936.289-.382.786-.573 1.49-.573.459 0 .866.094 1.222.282.356.189.534.545.534 1.068v1.991c0 .138.003.306.008.502.007.149.029.25.065.303.036.053.09.097.161.131v.168h-1.191a1.345 1.345 0 0 1-.069-.247 3.14 3.14 0 0 1-.031-.263c-.151.17-.325.314-.522.434a1.526 1.526 0 0 1-.799.211c-.379 0-.693-.111-.941-.335-.246-.225-.369-.544-.369-.955 0-.534.198-.921.595-1.16.218-.13.538-.223.961-.278l.372-.048ZM392.768 204.794c.184 0 .366.038.545.112.179.074.342.204.488.39.118.152.197.338.238.558.026.146.039.36.039.641l-.008 2.737h-1.122v-2.765c0-.164-.025-.3-.077-.406-.097-.202-.276-.303-.537-.303-.303 0-.511.131-.627.391a1.264 1.264 0 0 0-.088.498v2.585h-1.103v-2.585c0-.258-.025-.445-.076-.562-.093-.21-.273-.315-.542-.315-.313 0-.523.105-.63.315-.059.119-.089.297-.089.534v2.613h-1.11v-4.334h1.064v.633c.136-.225.264-.386.384-.482.213-.17.488-.255.826-.255.321 0 .579.074.777.22.158.135.279.309.361.521.143-.255.321-.442.534-.561.225-.12.476-.18.753-.18ZM396.888 205.711c-.254 0-.451.082-.592.247-.138.164-.225.387-.261.669h1.702c-.018-.3-.107-.527-.265-.681a.792.792 0 0 0-.584-.235Zm0-.936c.348 0 .662.067.941.203.279.135.51.349.691.641.164.258.271.556.319.896.028.199.04.486.035.861h-2.866c.015.435.147.74.396.916a.911.911 0 0 0 .545.163.766.766 0 0 0 .549-.199.956.956 0 0 0 .204-.299h1.118c-.028.258-.157.519-.388.785-.359.422-.861.633-1.506.633a2.078 2.078 0 0 1-1.41-.534c-.407-.356-.611-.934-.611-1.736 0-.752.183-1.328.55-1.729.368-.401.846-.601 1.433-.601ZM528.691 193.844h1.183v4.815h2.805v1.056h-3.988v-5.871ZM535.869 197.604a1.22 1.22 0 0 1-.211.111 1.747 1.747 0 0 1-.288.076l-.246.048c-.231.042-.396.094-.496.155-.169.104-.253.264-.253.482 0 .194.051.335.153.422a.587.587 0 0 0 .381.128c.235 0 .452-.072.649-.215.2-.144.303-.405.311-.785v-.422Zm-.665-.53c.203-.027.348-.06.435-.1.156-.069.234-.176.234-.322 0-.178-.06-.3-.181-.367-.117-.069-.292-.103-.522-.103-.259 0-.442.066-.549.199a.836.836 0 0 0-.154.398h-1.057c.023-.379.126-.691.308-.936.289-.382.786-.573 1.49-.573.459 0 .866.094 1.222.282.356.189.534.545.534 1.068v1.991c0 .139.003.306.008.502.007.149.029.25.065.303.036.053.09.097.161.131v.168h-1.191a1.345 1.345 0 0 1-.069-.247 2.792 2.792 0 0 1-.03-.263c-.152.17-.326.315-.523.434a1.526 1.526 0 0 1-.799.211c-.379 0-.693-.111-.941-.334-.246-.226-.369-.545-.369-.956 0-.534.198-.92.595-1.159.218-.13.538-.223.961-.279l.372-.048ZM538.94 198.329c.023.201.073.345.15.43.136.151.387.227.753.227.215 0 .386-.033.511-.1.128-.066.192-.166.192-.298a.323.323 0 0 0-.154-.291c-.102-.067-.482-.181-1.141-.343-.473-.122-.808-.275-1.002-.458-.195-.18-.292-.441-.292-.78 0-.401.151-.745.453-1.032.305-.29.733-.434 1.283-.434.523 0 .948.109 1.276.326.33.215.52.589.568 1.12h-1.095a.686.686 0 0 0-.119-.347c-.12-.154-.325-.231-.614-.231-.239 0-.409.039-.511.116-.1.077-.15.167-.15.27 0 .131.054.225.161.283.108.061.488.166 1.141.315.436.106.762.267.98.482.215.218.323.49.323.816 0 .431-.155.782-.465 1.056-.308.271-.784.406-1.429.406-.659 0-1.145-.143-1.46-.43a1.436 1.436 0 0 1-.469-1.103h1.11ZM542.184 196.222v-.809h.584v-1.211h1.084v1.211h.68v.809h-.68v2.294c0 .178.021.289.065.334.043.043.177.064.399.064h.104l.112-.008v.849l-.519.02c-.517.018-.871-.075-1.06-.279-.123-.13-.185-.331-.185-.602v-2.672h-.584ZM528.672 203.361h1.241l2.255 4.098v-4.098h1.103v5.871h-1.184l-2.313-4.171v4.171h-1.102v-5.871ZM536.745 207.121c-.069.045-.14.082-.211.111a1.747 1.747 0 0 1-.288.076l-.246.048c-.231.042-.396.094-.496.155-.169.103-.253.264-.253.482 0 .194.051.334.153.422a.587.587 0 0 0 .381.128c.235 0 .452-.072.649-.216.2-.143.303-.404.311-.784v-.422Zm-.665-.53c.203-.027.347-.06.435-.1.156-.069.234-.176.234-.322 0-.178-.06-.3-.181-.367-.117-.069-.292-.103-.522-.103-.259 0-.442.066-.55.199a.846.846 0 0 0-.153.398h-1.057c.023-.38.126-.692.308-.936.289-.382.786-.573 1.49-.573.459 0 .866.094 1.222.282.356.189.534.545.534 1.068v1.991c0 .138.003.306.008.502.007.149.029.25.065.303.036.053.09.097.161.131v.168h-1.191a1.345 1.345 0 0 1-.069-.247 3.14 3.14 0 0 1-.031-.263c-.151.17-.325.314-.522.434a1.526 1.526 0 0 1-.799.211c-.379 0-.693-.111-.941-.335-.246-.225-.369-.544-.369-.955 0-.534.198-.921.595-1.16.218-.13.538-.223.961-.278l.372-.048ZM543.643 204.794c.184 0 .366.038.545.112.179.074.342.204.488.39.118.152.197.338.238.558.026.146.039.36.039.641l-.008 2.737h-1.122v-2.765c0-.164-.025-.3-.077-.406-.097-.202-.276-.303-.537-.303-.303 0-.511.131-.627.391a1.264 1.264 0 0 0-.088.498v2.585h-1.103v-2.585c0-.258-.025-.445-.076-.562-.093-.21-.273-.315-.542-.315-.313 0-.523.105-.63.315-.059.119-.089.297-.089.534v2.613h-1.11v-4.334h1.064v.633c.136-.225.264-.386.384-.482.213-.17.488-.255.826-.255.321 0 .579.074.777.22.158.135.279.309.361.521.143-.255.321-.442.534-.561.225-.12.476-.18.753-.18ZM547.763 205.711c-.254 0-.451.082-.592.247-.138.164-.225.387-.261.669h1.702c-.018-.3-.107-.527-.265-.681a.792.792 0 0 0-.584-.235Zm0-.936c.348 0 .662.067.941.203.279.135.51.349.691.641.164.258.271.556.319.896.028.199.04.486.035.861h-2.866c.015.435.147.74.396.916a.911.911 0 0 0 .545.163.766.766 0 0 0 .549-.199.956.956 0 0 0 .204-.299h1.118c-.028.258-.157.519-.388.785-.359.422-.861.633-1.506.633a2.078 2.078 0 0 1-1.41-.534c-.407-.356-.611-.934-.611-1.736 0-.752.183-1.328.55-1.729.368-.401.846-.601 1.433-.601ZM593.096 197.488v.136c.01.454.059.774.145.96.089.183.277.274.565.274.286 0 .474-.1.566-.302.055-.12.082-.322.082-.606v-4.106h1.209v4.086c0 .5-.085.895-.255 1.187-.288.494-.807.741-1.559.741-.751 0-1.254-.199-1.511-.597-.256-.401-.385-.947-.385-1.637v-.136h1.143ZM598.845 198.914c.327 0 .578-.118.753-.354.176-.237.263-.573.263-1.008 0-.436-.087-.77-.263-1.004-.175-.236-.426-.354-.753-.354-.328 0-.58.118-.758.354-.175.234-.263.568-.263 1.004 0 .435.088.771.263 1.008.178.236.43.354.758.354Zm2.19-1.362c0 .637-.181 1.183-.542 1.637-.361.451-.909.677-1.645.677-.735 0-1.283-.226-1.644-.677-.362-.454-.542-1-.542-1.637 0-.627.18-1.17.542-1.629.361-.459.909-.689 1.644-.689.736 0 1.284.23 1.645.689.361.459.542 1.002.542 1.629ZM604.303 195.278c.562 0 1.002.205 1.319.617.319.412.479.943.479 1.593 0 .675-.157 1.234-.471 1.677-.314.444-.753.665-1.315.665-.354 0-.638-.071-.852-.215-.129-.085-.267-.233-.416-.446v.546h-1.096v-5.863h1.115v2.087c.142-.202.297-.356.467-.462.202-.133.458-.199.77-.199Zm-.287 3.616a.767.767 0 0 0 .672-.354c.159-.237.239-.547.239-.932 0-.308-.039-.563-.118-.765-.149-.382-.424-.574-.824-.574-.406 0-.685.188-.836.562-.079.199-.118.457-.118.773 0 .372.081.68.243.924.163.244.41.366.742.366ZM596.594 203.361v1.039h-1.732v4.832h-1.217V204.4h-1.739v-1.039h4.688ZM598.373 204.372h-1.134v-1.047h1.134v1.047Zm-1.134.518h1.134v4.342h-1.134v-4.342ZM599.172 205.738v-.808h.597v-1.211h1.107v1.211h.695v.808h-.695v2.295c0 .178.022.289.066.334.045.043.181.064.409.064h.106l.114-.008v.848l-.53.02c-.529.019-.89-.074-1.084-.278-.126-.131-.188-.331-.188-.602v-2.673h-.597ZM603.582 209.232h-1.119v-5.871h1.119v5.871ZM606.516 205.711c-.259 0-.461.082-.604.247-.142.164-.231.387-.267.669h1.739c-.019-.3-.109-.527-.271-.681a.818.818 0 0 0-.597-.235Zm0-.936c.356 0 .677.067.962.203.285.135.521.349.707.641.167.258.276.556.325.896.029.199.041.486.036.861h-2.929c.016.435.151.74.404.916a.952.952 0 0 0 .558.163c.23 0 .417-.066.561-.199a.945.945 0 0 0 .208-.299h1.143c-.029.258-.161.519-.397.785-.366.422-.879.633-1.539.633a2.15 2.15 0 0 1-1.44-.534c-.417-.356-.625-.934-.625-1.736 0-.752.188-1.328.562-1.729.377-.401.865-.601 1.464-.601ZM459.91 193.887h4.015v1.03h-2.84v1.347h2.486v1.017h-2.486v2.456h-1.175v-5.85ZM465.905 194.889h-1.111v-1.045h1.111v1.045Zm-1.111.516h1.111v4.332h-1.111v-4.332ZM469.391 195.302c.02 0 .037.001.05.004l.096.004v1.16a3.099 3.099 0 0 0-.315-.019c-.441 0-.737.148-.888.445-.084.167-.127.424-.127.771v2.07h-1.102v-4.332h1.045v.756c.169-.289.316-.487.442-.593.204-.177.471-.266.799-.266ZM471.182 198.354c.024.201.073.345.15.429.136.151.387.227.753.227.215 0 .386-.033.511-.1.128-.066.192-.165.192-.298a.325.325 0 0 0-.153-.29c-.103-.066-.483-.18-1.141-.341-.474-.122-.808-.275-1.003-.457-.195-.181-.292-.44-.292-.779 0-.4.151-.743.453-1.03.305-.288.733-.433 1.283-.433.523 0 .948.109 1.276.326.33.215.52.587.569 1.117h-1.095a.691.691 0 0 0-.119-.346c-.121-.154-.326-.23-.615-.23-.238 0-.409.038-.511.115-.1.077-.15.167-.15.27 0 .13.054.224.161.282.108.061.488.166 1.141.314.436.106.762.266.98.481.215.217.323.489.323.815 0 .429-.155.78-.465 1.053-.307.27-.784.405-1.429.405-.658 0-1.145-.143-1.46-.429a1.433 1.433 0 0 1-.469-1.101h1.11ZM474.427 196.252v-.807h.583v-1.208h1.084v1.208h.68v.807h-.68v2.289c0 .177.022.289.065.334.044.042.177.063.4.063h.103l.112-.008v.847l-.519.02c-.517.018-.871-.075-1.06-.279-.123-.129-.185-.329-.185-.6v-2.666h-.583ZM459.891 203.374h1.241l2.255 4.09v-4.09h1.102v5.858h-1.183l-2.313-4.161v4.161h-1.102v-5.858ZM467.964 207.126c-.069.045-.14.082-.211.111-.07.027-.166.052-.289.076l-.246.047c-.23.043-.395.094-.495.155-.169.104-.254.264-.254.481 0 .193.052.334.154.421a.585.585 0 0 0 .38.127c.236 0 .452-.071.65-.214.199-.143.303-.404.311-.783v-.421Zm-.665-.529c.203-.026.347-.059.434-.099.157-.069.235-.176.235-.322 0-.177-.061-.299-.181-.366-.118-.068-.292-.103-.522-.103-.259 0-.442.066-.55.199a.831.831 0 0 0-.153.397h-1.057c.023-.379.126-.69.307-.934.29-.381.787-.572 1.491-.572.458 0 .866.094 1.222.282.356.188.534.543.534 1.065v1.987c0 .138.002.305.007.501.008.148.03.249.066.302a.39.39 0 0 0 .161.131v.167h-1.191a1.336 1.336 0 0 1-.069-.246 3.14 3.14 0 0 1-.031-.263c-.151.17-.325.314-.522.433a1.526 1.526 0 0 1-.799.211c-.379 0-.693-.111-.942-.334-.245-.225-.368-.543-.368-.953 0-.533.198-.918.595-1.157.218-.13.538-.222.961-.278l.372-.048ZM474.861 204.805c.185 0 .367.037.546.111.179.074.342.204.488.39.118.151.197.336.238.556.026.146.038.359.038.64l-.007 2.73h-1.122v-2.758a.934.934 0 0 0-.077-.405c-.097-.202-.276-.302-.538-.302-.302 0-.511.13-.626.389a1.259 1.259 0 0 0-.088.497v2.579h-1.103v-2.579c0-.257-.026-.444-.077-.56-.092-.21-.273-.314-.541-.314-.313 0-.523.104-.63.314-.059.119-.089.296-.089.532v2.607h-1.11v-4.324h1.064v.632c.136-.225.264-.385.384-.481.213-.169.488-.254.826-.254.32 0 .579.073.776.219.159.135.279.308.361.52.144-.254.322-.441.534-.56.226-.119.477-.179.753-.179ZM478.981 205.719c-.253 0-.45.082-.591.246-.139.165-.226.387-.262.668h1.702c-.018-.299-.106-.526-.265-.68a.793.793 0 0 0-.584-.234Zm0-.934c.349 0 .662.068.942.203.279.135.509.348.691.64.164.257.27.555.319.894.028.198.04.485.035.858h-2.866c.015.435.147.739.395.914a.908.908 0 0 0 .546.163.767.767 0 0 0 .549-.199.939.939 0 0 0 .204-.298h1.118c-.028.257-.158.518-.388.783-.359.421-.861.632-1.506.632a2.077 2.077 0 0 1-1.41-.533c-.407-.354-.611-.932-.611-1.732 0-.75.183-1.325.549-1.725.369-.4.847-.6 1.433-.6Z" fill="#717685"/><g filter="url(#e)"><path d="M352.281 88.897a2.658 2.658 0 0 1 2.653-2.663h299.773a2.657 2.657 0 0 1 2.652 2.663v37.275H352.281V88.897Z" fill="#fff"/></g><path fill-rule="evenodd" clip-rule="evenodd" d="m634.062 108.987 4.204-4.89a.3.3 0 0 1 .468 0l4.203 4.89-.467.544-3.97-4.618-3.97 4.618-.468-.544Z" fill="#000"/><path d="M373.79 104.317v4.953h1.463c.749 0 1.271-.369 1.567-1.107.161-.405.242-.887.242-1.447 0-.772-.122-1.364-.366-1.776-.241-.416-.721-.623-1.443-.623h-1.463Zm1.731-1.318c.471.006.862.061 1.175.164.532.175.963.496 1.293.963.264.378.445.786.541 1.226.096.439.144.858.144 1.256 0 1.009-.203 1.864-.608 2.565-.549.944-1.398 1.416-2.545 1.416h-3.271v-7.59h3.271ZM381.582 104.306h-1.489v-1.354h1.489v1.354Zm-1.489.67h1.489v5.613h-1.489v-5.613ZM386.375 104.842a.39.39 0 0 1 .067.005l.129.005v1.504a4.858 4.858 0 0 0-.423-.026c-.59 0-.987.192-1.19.577-.113.216-.17.549-.17.999v2.683h-1.478v-5.613h1.401v.978c.227-.374.424-.63.593-.767.274-.23.632-.345 1.071-.345ZM389.968 106.037c-.34 0-.604.106-.793.319-.186.213-.302.501-.351.865h2.283c-.024-.388-.143-.681-.356-.881a1.082 1.082 0 0 0-.783-.303Zm0-1.21c.467 0 .888.087 1.262.262.375.175.684.452.928.829.219.333.362.719.427 1.159.038.257.053.628.047 1.112h-3.844c.021.563.198.958.531 1.184.203.141.446.211.732.211.302 0 .547-.085.736-.257.103-.093.194-.221.273-.386h1.499c-.037.333-.211.671-.52 1.014-.481.546-1.154.819-2.019.819-.715 0-1.345-.23-1.891-.69-.546-.46-.819-1.208-.819-2.245 0-.972.245-1.717.737-2.235.494-.518 1.135-.777 1.921-.777ZM397.296 106.989a1.3 1.3 0 0 0-.211-.566c-.165-.227-.421-.34-.768-.34-.494 0-.833.245-1.015.736-.096.261-.144.608-.144 1.04 0 .412.048.744.144.994.175.467.505.701.989.701.344 0 .588-.093.732-.278.144-.186.232-.426.263-.721h1.499a2.462 2.462 0 0 1-.484 1.266c-.461.642-1.142.963-2.046.963-.903 0-1.567-.268-1.993-.803-.426-.536-.639-1.231-.639-2.085 0-.965.235-1.715.706-2.251.47-.535 1.119-.803 1.947-.803.704 0 1.279.158 1.726.474.45.316.716.873.798 1.673h-1.504ZM399.555 106.073v-1.046h.783v-1.565h1.453v1.565h.911v1.046h-.911v2.966c0 .23.029.374.087.432.058.055.237.083.536.083h.139l.149-.011v1.097l-.695.026c-.694.024-1.168-.096-1.422-.361-.165-.168-.247-.427-.247-.777v-3.455h-.783ZM412.948 104.343h-4.018v1.611h3.689v1.318h-3.689v1.952h4.204v1.365h-5.755v-7.59h5.569v1.344ZM420.843 104.852c.247 0 .491.048.731.144a1.643 1.643 0 0 1 .974 1.226c.034.189.052.465.052.829l-.011 3.538h-1.504v-3.574c0-.213-.034-.388-.103-.525-.131-.261-.371-.392-.721-.392-.405 0-.685.169-.84.505a1.586 1.586 0 0 0-.118.644v3.342h-1.479v-3.342c0-.333-.034-.575-.103-.726-.124-.272-.366-.407-.726-.407-.419 0-.701.135-.845.407-.079.154-.119.384-.119.69v3.378h-1.489v-5.603h1.427v.819c.182-.292.354-.5.516-.623.285-.22.654-.33 1.107-.33.43 0 .776.095 1.041.284.213.175.374.399.484.674.192-.329.431-.571.716-.726a2.192 2.192 0 0 1 1.01-.232ZM428.14 107.782c0-.432-.1-.815-.299-1.148-.196-.333-.515-.5-.958-.5-.532 0-.898.253-1.097.757-.103.268-.155.608-.155 1.02 0 .652.173 1.11.52 1.375.206.154.45.232.732.232.409 0 .719-.158.932-.474.217-.316.325-.737.325-1.262Zm-.835-2.93c.656 0 1.211.242 1.664.726.457.484.685 1.195.685 2.132 0 .989-.223 1.742-.669 2.261-.443.518-1.015.777-1.716.777-.446 0-.817-.111-1.112-.335a2.12 2.12 0 0 1-.474-.54v2.925h-1.453v-7.822h1.406v.829a2.35 2.35 0 0 1 .505-.577c.326-.25.714-.376 1.164-.376ZM432.537 110.589h-1.469v-7.59h1.469v7.59ZM436.809 109.554c.43 0 .759-.153.99-.459.23-.305.345-.739.345-1.302 0-.563-.115-.996-.345-1.298-.231-.306-.56-.458-.99-.458-.429 0-.76.152-.994.458-.23.302-.345.735-.345 1.298 0 .563.115.997.345 1.302.234.306.565.459.994.459Zm2.875-1.761c0 .823-.237 1.529-.711 2.116-.474.583-1.193.875-2.158.875-.965 0-1.685-.292-2.159-.875-.474-.587-.711-1.293-.711-2.116 0-.811.237-1.513.711-2.107.474-.593 1.194-.89 2.159-.89.965 0 1.684.297 2.158.89.474.594.711 1.296.711 2.107ZM441.283 111.665l.186.01c.144.007.281.002.412-.015a.755.755 0 0 0 .33-.119c.086-.058.165-.18.237-.365.075-.186.106-.299.092-.34l-2.06-5.86h1.633l1.226 4.14 1.159-4.14h1.561l-1.927 5.52c-.371 1.064-.664 1.723-.881 1.977-.216.258-.649.386-1.298.386-.13 0-.235-.001-.314-.005-.079 0-.198-.005-.356-.015v-1.174ZM449.461 106.037c-.34 0-.604.106-.793.319-.186.213-.302.501-.35.865h2.282c-.024-.388-.143-.681-.356-.881a1.082 1.082 0 0 0-.783-.303Zm0-1.21c.467 0 .888.087 1.262.262.375.175.684.452.928.829.22.333.362.719.427 1.159.038.257.054.628.047 1.112h-3.843c.02.563.197.958.53 1.184.203.141.447.211.732.211.302 0 .547-.085.736-.257.103-.093.194-.221.273-.386h1.5c-.038.333-.212.671-.521 1.014-.481.546-1.154.819-2.019.819-.715 0-1.345-.23-1.891-.69-.546-.46-.819-1.208-.819-2.245 0-.972.246-1.717.737-2.235.494-.518 1.135-.777 1.921-.777ZM455.651 106.037c-.34 0-.605.106-.794.319-.185.213-.302.501-.35.865h2.282c-.024-.388-.142-.681-.355-.881a1.085 1.085 0 0 0-.783-.303Zm0-1.21c.467 0 .887.087 1.262.262.374.175.683.452.927.829.22.333.362.719.428 1.159.037.257.053.628.046 1.112h-3.843c.021.563.197.958.531 1.184.202.141.446.211.731.211.302 0 .548-.085.737-.257.103-.093.194-.221.273-.386h1.499c-.038.333-.211.671-.52 1.014-.481.546-1.154.819-2.02.819-.714 0-1.344-.23-1.89-.69-.547-.46-.82-1.208-.82-2.245 0-.972.246-1.717.737-2.235.495-.518 1.135-.777 1.922-.777ZM460.768 108.797c.031.261.098.446.201.556.182.195.519.293 1.01.293.289 0 .517-.043.685-.128.172-.086.258-.215.258-.387a.418.418 0 0 0-.206-.376c-.138-.085-.648-.233-1.53-.442-.636-.158-1.084-.356-1.345-.593-.261-.233-.391-.569-.391-1.009 0-.518.202-.963.608-1.333.408-.375.982-.562 1.72-.562.701 0 1.271.141 1.711.423.443.278.697.76.762 1.446h-1.468a.874.874 0 0 0-.16-.448c-.161-.199-.436-.298-.824-.298-.32 0-.548.05-.685.149-.134.1-.201.216-.201.35 0 .168.072.29.216.366.144.079.654.214 1.53.407.584.137 1.022.345 1.314.623.288.281.433.633.433 1.055a1.71 1.71 0 0 1-.624 1.365c-.412.35-1.051.525-1.916.525-.883 0-1.535-.185-1.958-.556-.419-.374-.628-.85-.628-1.426h1.488ZM469.443 104.914c.272-.632.668-1.311 1.19-2.039h1.108l-.314.577a8.563 8.563 0 0 0-.902 2.492 9.846 9.846 0 0 0-.165 1.864c0 1.05.153 2.017.459 2.899.178.522.494 1.191.948 2.008h-1.087l-.366-.499c-.237-.302-.49-.752-.757-1.349-.478-1.068-.717-2.118-.717-3.152 0-.94.201-1.874.603-2.801ZM472.943 105.439v-.999c.464-.02.789-.051.974-.092.295-.066.536-.196.721-.392.127-.134.224-.312.289-.535.038-.134.057-.234.057-.299h1.22v7.467H474.7v-5.15h-1.757ZM483.919 108.982h-.845v1.607h-1.437v-1.607h-2.958V107.7l2.746-4.531h1.649v4.665h.845v1.148Zm-2.282-1.148v-3.224l-1.871 3.224h1.871ZM485.832 102.875c.522.728.919 1.407 1.19 2.039.402.927.603 1.861.603 2.801 0 1.034-.239 2.084-.716 3.152-.268.597-.52 1.047-.757 1.349l-.366.499h-1.087c.453-.817.769-1.486.948-2.008.305-.882.458-1.849.458-2.899 0-.673-.055-1.294-.165-1.864a8.561 8.561 0 0 0-.901-2.492l-.314-.577h1.107Z" fill="#717685"/><path d="M370.031 143.506c0-2.221 2.414-4.022 5.392-4.022h258.795c2.977 0 5.391 1.801 5.391 4.022v24.129c0 2.221-2.414 4.021-5.391 4.021H375.423c-2.978 0-5.392-1.8-5.392-4.021v-24.129Z" fill="#EAEEF6" fill-opacity=".5"/><path fill-rule="evenodd" clip-rule="evenodd" d="M387.781 159.599a5.695 5.695 0 0 0 5.697-5.693 5.695 5.695 0 0 0-5.697-5.693 5.695 5.695 0 0 0-5.697 5.693 5.695 5.695 0 0 0 5.697 5.693Zm0 .963a6.657 6.657 0 1 0 0-13.314 6.657 6.657 0 0 0 0 13.314Z" fill="#9DA3B5"/><path fill-rule="evenodd" clip-rule="evenodd" d="M392.372 158.499a.526.526 0 0 1 .745-.001l4.494 4.49a.53.53 0 0 1 .001.747.524.524 0 0 1-.744.002l-4.494-4.491a.53.53 0 0 1-.002-.747Z" fill="#9DA3B5"/><path d="M497.609 559.321v-.536c.273-.05.463-.131.571-.245.107-.117.188-.391.241-.821h.298v5.547h-.403v-3.945h-.707Z" fill="#53DFD5"/><path d="M510.922 563.266c.022-.476.107-.891.255-1.243.151-.353.442-.673.874-.961l.646-.429c.289-.193.492-.358.608-.494.184-.214.276-.458.276-.733 0-.322-.084-.577-.252-.765a.853.853 0 0 0-.672-.285c-.415 0-.702.18-.861.54-.085.193-.132.461-.141.803h-.615c.006-.481.084-.874.231-1.177.263-.536.726-.803 1.389-.803.551 0 .954.171 1.207.513.255.342.383.723.383 1.143 0 .442-.136.821-.407 1.135-.157.182-.438.404-.844.663l-.46.294c-.22.139-.392.271-.518.397a1.486 1.486 0 0 0-.423.745h2.628v.657h-3.304Z" fill="#9DA3B5"/><path fill-rule="evenodd" clip-rule="evenodd" d="m524.715 557.829 1.662 2.397a.502.502 0 0 1 0 .533l-1.662 2.396c-.101.147-.267.147-.369 0a.5.5 0 0 1 0-.532l1.216-1.754h-3.546v-.753h3.546l-1.216-1.754a.502.502 0 0 1 0-.533c.102-.147.268-.147.369 0Z" fill="#53DFD5"/><path fill-rule="evenodd" clip-rule="evenodd" d="m485.794 563.155-2.492-2.396a.367.367 0 0 1 0-.533l2.492-2.397a.403.403 0 0 1 .554 0 .367.367 0 0 1 0 .533l-1.824 1.754h5.32v.753h-5.32l1.824 1.754a.366.366 0 0 1 0 .532.403.403 0 0 1-.554 0Z" fill="#9DA3B5"/><path d="M376.688 228.234h51.031v14.422h-51.031v-14.422ZM458.781 228.234h42.157v14.422h-42.157v-14.422ZM458.781 263.734h24.407v14.422h-24.407v-14.422ZM458.781 301.453h38.828v13.313h-38.828v-13.313ZM469.875 336.953h11.094v13.313h-11.094v-13.313ZM458.781 371.344h38.828v13.312h-38.828v-13.312ZM458.781 407.953h32.172v13.313h-32.172v-13.313ZM458.781 478.953h36.61v14.422h-36.61v-14.422ZM458.781 514.453h42.157v14.422h-42.157v-14.422ZM458.781 443.453h42.157v13.313h-42.157v-13.313ZM528.672 228.234h24.406v14.422h-24.406v-14.422ZM528.672 263.734h33.281v14.422h-33.281v-14.422ZM528.672 301.453h17.75v13.313h-17.75v-13.313ZM539.766 336.953h33.281v13.313h-33.281v-13.313ZM528.672 371.344h24.406v13.312h-24.406v-13.312ZM528.672 407.953h33.281v13.313h-33.281v-13.313ZM528.672 478.953h41.047v14.422h-41.047v-14.422ZM528.672 514.453h33.281v14.422h-33.281v-14.422ZM528.672 443.453h33.281v13.313h-33.281v-13.313ZM591.906 228.234h18.86v14.422h-18.86v-14.422ZM591.906 263.734h26.625v14.422h-26.625v-14.422ZM591.906 301.453h29.953v13.313h-29.953v-13.313ZM603 336.953h26.625v13.313H603v-13.313ZM591.906 371.344h35.5v13.312h-35.5v-13.312ZM591.906 407.953h26.625v13.313h-26.625v-13.313ZM591.906 478.953h26.625v14.422h-26.625v-14.422ZM591.906 514.453h36.61v14.422h-36.61v-14.422ZM591.906 443.453h44.375v13.313h-44.375v-13.313ZM376.688 263.734h61.015v14.422h-61.015v-14.422ZM376.688 302.562h26.624v13.313h-26.624v-13.313ZM387.781 339.172h45.485v13.312h-45.485v-13.312ZM376.688 371.344h61.015v13.312h-61.015v-13.312ZM376.688 407.953h45.484v13.313h-45.484v-13.313ZM376.688 478.953h36.609v14.422h-36.609v-14.422ZM376.688 514.453h61.015v14.422h-61.015v-14.422ZM376.688 443.453h61.015v13.313h-61.015v-13.313Z" fill="#EAEEF6"/><g filter="url(#f)"><path d="M360.047 326.32a2.67 2.67 0 0 1 2.66-2.679h308.632A2.67 2.67 0 0 1 674 326.32v30.141a2.67 2.67 0 0 1-2.661 2.68H362.707a2.67 2.67 0 0 1-2.66-2.68V326.32Z" fill="#EAEEF6"/></g><path d="M656.25 336.813c0-.557-.2-1.079-.561-1.472a1.804 1.804 0 0 0-2.702.003l-7.693 8.412c-.25.272-.441.609-.552.975l-.008.023-.687 3.293 3.032-.739.022-.008c.336-.122.646-.329.896-.602l7.694-8.413c.361-.393.559-.916.559-1.472Zm-10.522 9.759-.321-.35.232-1.112 1.113 1.212-1.024.25Zm9.287-9.021-7.469 8.167-1.352-1.474 5.116-5.594.779.848.675-.734-.781-.85.726-.794.782.852.675-.735-.783-.853.279-.306a.904.904 0 0 1 1.353-.001c.181.196.28.458.281.736 0 .279-.099.541-.281.738Zm-5.948 9.445h7.183v1.04h-8.134l.951-1.04Z" fill="url(#g)"/><g filter="url(#h)"><path d="M77.156 227.536c0-1.452 1.188-2.63 2.652-2.63h273.149a2.641 2.641 0 0 1 2.652 2.63v30.241c0 1.452-1.187 2.629-2.652 2.629H79.808c-1.464 0-2.652-1.177-2.652-2.629v-30.241Z" fill="#EAEEF6"/><path d="M321.219 238.078a2.065 2.065 0 0 0-.613-1.471 2.089 2.089 0 0 0-2.947.003l-8.392 8.411a2.5 2.5 0 0 0-.603.975l-.008.024-.75 3.292 3.308-.739.024-.008c.366-.121.704-.329.978-.602l8.393-8.412c.394-.394.61-.917.61-1.473Zm-11.479 9.76-.35-.351.253-1.112 1.214 1.213-1.117.25Zm10.132-9.021-8.148 8.167-1.476-1.474 5.582-5.594.85.848.736-.735-.852-.85.792-.793.853.851.736-.735-.854-.853.305-.305a1.045 1.045 0 0 1 1.782.735c0 .279-.108.54-.306.738Zm-6.49 9.445h7.837v1.039h-8.874l1.037-1.039Z" fill="url(#i)"/><path fill-rule="evenodd" clip-rule="evenodd" d="m341.698 237.109 4.931 4.747a.338.338 0 0 1 0 .491l-4.931 4.747-.51-.491 4.675-4.501-4.675-4.501.51-.492Z" fill="#000"/><path d="M89.469 233.781h1.547l2.29 6.452 2.274-6.452h1.53v7.631h-1.025v-4.503c0-.156.003-.414.01-.775.008-.36.011-.746.011-1.158l-2.274 6.436h-1.069l-2.29-6.436v.234c0 .187.003.473.01.857.011.381.017.661.017.842v4.503h-1.031v-7.631ZM99.707 239.932c0 .27.103.483.309.639.206.156.451.234.733.234.344 0 .676-.077.998-.229.543-.253.814-.667.814-1.242v-.753a1.683 1.683 0 0 1-.461.182 4.057 4.057 0 0 1-.553.104l-.592.073c-.355.045-.62.116-.798.213-.3.162-.45.422-.45.779Zm2.366-1.891c.224-.028.374-.118.45-.27a.784.784 0 0 0 .066-.359c0-.318-.12-.549-.359-.691-.235-.145-.573-.218-1.014-.218-.511 0-.872.132-1.086.395-.119.146-.197.362-.233.649h-.912c.018-.685.25-1.161.695-1.428.448-.27.967-.405 1.557-.405.684 0 1.239.124 1.666.374.424.249.635.637.635 1.163v3.206c0 .097.02.174.06.233.043.059.132.089.266.089.043 0 .092-.002.147-.006.054-.006.112-.015.173-.026v.691a2.7 2.7 0 0 1-.347.078c-.08.011-.188.016-.326.016-.336 0-.58-.114-.732-.343-.08-.121-.136-.293-.169-.514-.199.249-.485.466-.857.649a2.747 2.747 0 0 1-1.232.275c-.54 0-.98-.155-1.324-.467a1.54 1.54 0 0 1-.51-1.179c0-.516.168-.916.504-1.2.337-.284.778-.459 1.324-.525l1.558-.187ZM105.505 235.849h.928v.961c.076-.187.263-.414.559-.681a1.48 1.48 0 0 1 1.118-.4l.223.021v.987a1.78 1.78 0 0 0-.32-.026c-.492 0-.87.152-1.135.457a1.54 1.54 0 0 0-.396 1.044v3.2h-.977v-5.563ZM109.491 233.781h.939v4.431l2.508-2.363h1.248l-2.225 2.083 2.35 3.48h-1.249l-1.812-2.805-.82.717v2.088h-.939v-7.631ZM117.824 235.724c.413 0 .813.094 1.2.281.387.183.682.422.884.716.196.281.326.608.391.982.058.257.087.665.087 1.226h-4.26c.018.565.157 1.018.418 1.361.26.34.663.509 1.21.509.51 0 .917-.161 1.221-.483.174-.187.297-.403.369-.649h.961a1.911 1.911 0 0 1-.255.686 2.312 2.312 0 0 1-1.58 1.174 3.513 3.513 0 0 1-.798.083 2.505 2.505 0 0 1-1.839-.753c-.503-.506-.755-1.213-.755-2.12 0-.893.254-1.619.76-2.177.507-.557 1.169-.836 1.986-.836Zm1.558 2.462c-.04-.405-.132-.729-.277-.971-.268-.45-.714-.675-1.34-.675-.449 0-.825.156-1.129.467-.304.308-.465.702-.483 1.179h3.229ZM122.12 234.296h.987v1.553h.928v.763h-.928v3.632c0 .193.069.323.207.389.076.038.202.057.38.057h.151a4.55 4.55 0 0 0 .19-.015v.737a2.171 2.171 0 0 1-.352.068c-.12.014-.25.021-.391.021-.456 0-.765-.111-.928-.333-.163-.225-.244-.516-.244-.872v-3.684h-.787v-.763h.787v-1.553ZM125.351 235.875h.993v5.537h-.993v-5.537Zm0-2.094h.993v1.06h-.993v-1.06ZM128.159 235.849h.928v.789c.275-.325.567-.559.874-.701.308-.142.65-.213 1.026-.213.825 0 1.382.275 1.672.826.159.301.238.733.238 1.294v3.568h-.993v-3.506c0-.339-.052-.613-.157-.821-.174-.346-.489-.519-.945-.519-.231 0-.421.022-.569.067a1.477 1.477 0 0 0-.706.457 1.386 1.386 0 0 0-.32.572c-.047.194-.071.472-.071.836v2.914h-.977v-5.563ZM136.731 235.75c.456 0 .854.107 1.194.322.185.121.373.298.565.53v-.701h.901v5.059c0 .707-.109 1.265-.326 1.673-.405.755-1.17 1.133-2.296 1.133-.626 0-1.152-.135-1.579-.406-.427-.266-.666-.685-.716-1.257h.993c.047.25.141.442.282.577.221.208.568.312 1.042.312.749 0 1.239-.253 1.471-.759.137-.298.201-.829.19-1.595a1.888 1.888 0 0 1-.706.634c-.275.139-.638.208-1.091.208a2.4 2.4 0 0 1-1.655-.639c-.47-.429-.705-1.138-.705-2.125 0-.931.237-1.659.71-2.182.478-.522 1.053-.784 1.726-.784Zm1.759 2.857c0-.689-.149-1.2-.445-1.532a1.453 1.453 0 0 0-1.135-.499c-.687 0-1.157.308-1.411.925-.134.329-.2.76-.2 1.293 0 .627.132 1.105.396 1.434.267.326.626.488 1.074.488.702 0 1.196-.303 1.482-.909.159-.343.239-.743.239-1.2Z" fill="#000"/><path d="M91.534 248.55c.328 0 .584-.046.766-.14.286-.146.43-.41.43-.791 0-.384-.153-.642-.458-.775-.171-.075-.427-.112-.765-.112h-1.386v1.818h1.413Zm.262 2.71c.476 0 .816-.141 1.02-.424.127-.178.19-.394.19-.647 0-.426-.186-.717-.558-.871-.198-.083-.46-.124-.785-.124h-1.542v2.066h1.675Zm-2.437-5.192h2.464c.672 0 1.15.205 1.434.616.166.242.25.522.25.839 0 .37-.103.674-.31.911-.106.126-.26.24-.46.344.294.115.514.244.66.388.258.256.387.609.387 1.059 0 .378-.116.721-.348 1.027-.346.458-.897.687-1.652.687H89.36v-5.871Z" fill="url(#j)"/><path d="M95.562 247.659v2.842c0 .218.034.397.102.535.125.256.358.384.699.384.489 0 .822-.224 1-.672.096-.239.144-.568.144-.987v-2.102h.703v4.28h-.664l.008-.631c-.091.163-.205.3-.34.412a1.477 1.477 0 0 1-.976.335c-.597 0-1.003-.203-1.219-.611-.117-.219-.175-.51-.175-.875v-2.91h.718Z" fill="url(#k)"/><path d="M99.969 250.597c.02.239.079.423.175.551.177.232.485.348.922.348.26 0 .489-.057.687-.172a.584.584 0 0 0 .297-.54.463.463 0 0 0-.238-.419c-.102-.059-.302-.127-.602-.204l-.558-.144c-.357-.091-.62-.192-.789-.304-.302-.194-.453-.463-.453-.807 0-.405.142-.733.426-.983.286-.251.67-.376 1.152-.376.63 0 1.084.189 1.363.568.174.239.259.498.253.775h-.663a.845.845 0 0 0-.168-.444c-.162-.189-.442-.283-.84-.283-.265 0-.467.052-.605.155a.494.494 0 0 0-.203.412c0 .187.09.336.269.448.104.066.258.125.461.176l.465.116c.505.125.843.246 1.015.363.273.184.41.473.41.868 0 .381-.142.71-.426.987-.281.277-.71.415-1.288.415-.622 0-1.064-.144-1.324-.431-.258-.291-.396-.649-.414-1.075h.676Z" fill="url(#l)"/><path d="M103.789 247.679h.715v4.26h-.715v-4.26Zm0-1.611h.715v.816h-.715v-.816Z" fill="url(#m)"/><path d="M105.81 247.659h.668v.608a1.87 1.87 0 0 1 .628-.54c.222-.109.468-.164.738-.164.594 0 .995.212 1.203.636.115.231.172.563.172.995v2.745h-.715v-2.697c0-.261-.037-.472-.113-.632-.125-.266-.351-.399-.679-.399-.167 0-.304.017-.41.052a1.049 1.049 0 0 0-.508.351 1.081 1.081 0 0 0-.23.44 3.08 3.08 0 0 0-.051.643v2.242h-.703v-4.28Z" fill="url(#n)"/><path d="M112.243 247.563c.297 0 .584.072.863.216.279.141.491.325.636.551.141.216.235.468.282.756.041.197.062.511.062.943h-3.065c.013.434.113.783.3 1.047.188.261.478.392.871.392.367 0 .66-.124.879-.372a1.26 1.26 0 0 0 .265-.499h.692c-.019.157-.08.333-.184.527a1.851 1.851 0 0 1-.344.472 1.618 1.618 0 0 1-.792.431c-.17.043-.361.064-.574.064-.521 0-.962-.193-1.324-.579-.362-.389-.543-.933-.543-1.631 0-.687.182-1.245.547-1.674.364-.429.841-.644 1.429-.644Zm1.121 1.895c-.029-.312-.095-.561-.199-.748-.193-.346-.515-.519-.965-.519-.323 0-.594.119-.812.359-.219.237-.335.54-.348.908h2.324Z" fill="url(#o)"/><path d="M115.611 250.597c.021.239.079.423.175.551.177.232.485.348.922.348.26 0 .489-.057.687-.172a.584.584 0 0 0 .297-.54.461.461 0 0 0-.238-.419c-.102-.059-.302-.127-.601-.204l-.559-.144c-.357-.091-.619-.192-.789-.304-.302-.194-.453-.463-.453-.807 0-.405.142-.733.426-.983.286-.251.67-.376 1.152-.376.63 0 1.084.189 1.363.568.174.239.259.498.254.775h-.664a.845.845 0 0 0-.168-.444c-.162-.189-.441-.283-.84-.283-.265 0-.467.052-.605.155a.496.496 0 0 0-.203.412c0 .187.09.336.269.448.105.066.258.125.461.176l.465.116c.505.125.843.246 1.015.363.273.184.41.473.41.868 0 .381-.142.71-.425.987-.282.277-.711.415-1.289.415-.622 0-1.064-.144-1.324-.431-.258-.291-.396-.649-.414-1.075h.676Z" fill="url(#p)"/><path d="M119.849 250.597c.021.239.08.423.176.551.177.232.484.348.922.348.26 0 .489-.057.687-.172a.584.584 0 0 0 .297-.54.462.462 0 0 0-.239-.419c-.101-.059-.302-.127-.601-.204l-.558-.144c-.357-.091-.62-.192-.789-.304-.302-.194-.453-.463-.453-.807 0-.405.142-.733.426-.983.286-.251.67-.376 1.151-.376.63 0 1.085.189 1.363.568.175.239.259.498.254.775h-.664a.845.845 0 0 0-.168-.444c-.161-.189-.441-.283-.839-.283-.266 0-.467.052-.605.155a.494.494 0 0 0-.204.412c0 .187.09.336.27.448.104.066.258.125.461.176l.464.116c.505.125.844.246 1.016.363.273.184.41.473.41.868 0 .381-.142.71-.426.987-.281.277-.711.415-1.289.415-.622 0-1.063-.144-1.323-.431-.258-.291-.396-.649-.414-1.075h.675Z" fill="url(#q)"/><path d="M126.839 247.659v2.842c0 .218.033.397.101.535.125.256.358.384.699.384.49 0 .823-.224 1-.672.096-.239.144-.568.144-.987v-2.102h.703v4.28h-.664l.008-.631c-.091.163-.204.3-.34.412a1.475 1.475 0 0 1-.976.335c-.596 0-1.002-.203-1.218-.611-.117-.219-.176-.51-.176-.875v-2.91h.719Z" fill="url(#r)"/><path d="M130.827 247.659h.668v.608c.198-.251.407-.431.629-.54.221-.109.467-.164.738-.164.593 0 .994.212 1.202.636.115.231.172.563.172.995v2.745h-.714v-2.697c0-.261-.038-.472-.114-.632-.125-.266-.351-.399-.679-.399-.167 0-.303.017-.41.052a1.049 1.049 0 0 0-.508.351 1.081 1.081 0 0 0-.23.44 3.08 3.08 0 0 0-.051.643v2.242h-.703v-4.28Z" fill="url(#s)"/><path d="M135.519 247.679h.714v4.26h-.714v-4.26Zm0-1.611h.714v.816h-.714v-.816Z" fill="url(#t)"/><path d="M137.68 246.464h.711v1.195h.667v.588h-.667v2.793c0 .149.049.249.148.3a.623.623 0 0 0 .273.044h.11l.136-.012v.567c-.08.024-.165.042-.253.052-.086.011-.18.016-.282.016-.328 0-.55-.085-.667-.255-.117-.174-.176-.397-.176-.672v-2.833h-.566v-.588h.566v-1.195Z" fill="url(#u)"/><path d="M142.647 247.008c.01-.299.061-.517.152-.656.164-.245.48-.368.949-.368a3.18 3.18 0 0 1 .296.016v.656a2.023 2.023 0 0 0-.16-.008.924.924 0 0 0-.089-.004c-.214 0-.341.057-.383.172-.042.112-.063.399-.063.863h.695v.568h-.702v3.692h-.695v-3.692h-.582v-.568h.582v-.671Z" fill="url(#v)"/><path d="M146.596 251.476c.466 0 .785-.18.957-.54.174-.362.261-.764.261-1.207 0-.399-.062-.724-.187-.975-.198-.394-.539-.591-1.023-.591-.43 0-.742.167-.937.503-.196.336-.293.741-.293 1.215 0 .456.097.835.293 1.139.195.304.505.456.929.456Zm.027-3.941c.539 0 .995.184 1.367.552.372.367.559.908.559 1.622 0 .69-.164 1.261-.492 1.711-.328.45-.837.675-1.527.675-.576 0-1.032-.198-1.371-.595-.338-.4-.508-.935-.508-1.607 0-.719.179-1.292.535-1.718.357-.427.836-.64 1.437-.64Z" fill="url(#w)"/><path d="M149.648 247.659h.667v.739c.055-.143.189-.318.403-.523a1.025 1.025 0 0 1 .804-.308l.16.016v.759a1.121 1.121 0 0 0-.23-.02c-.354 0-.626.118-.816.352-.191.232-.286.5-.286.804v2.461h-.702v-4.28Z" fill="url(#x)"/><path d="M155.071 246.068h1.113l1.648 4.964 1.636-4.964h1.101v5.871h-.738v-3.465c0-.12.003-.318.008-.595.005-.277.008-.574.008-.891l-1.636 4.951h-.77l-1.648-4.951v.179c0 .144.003.364.008.66.008.293.012.509.012.647v3.465h-.742v-5.871Z" fill="url(#y)"/><path d="M162.437 250.8a.6.6 0 0 0 .223.492c.148.12.324.18.527.18.247 0 .487-.059.719-.176.39-.194.585-.513.585-.955v-.58a1.164 1.164 0 0 1-.331.14 2.846 2.846 0 0 1-.399.08l-.425.056c-.256.035-.447.089-.574.164-.217.125-.325.325-.325.599Zm1.703-1.454c.161-.022.269-.091.324-.208a.65.65 0 0 0 .047-.276c0-.245-.086-.422-.258-.532-.169-.111-.412-.167-.73-.167-.367 0-.627.101-.781.303-.086.112-.142.279-.168.5h-.656c.013-.528.18-.894.5-1.099a2.023 2.023 0 0 1 1.121-.312c.492 0 .891.096 1.198.288.305.192.457.49.457.895v2.466c0 .075.015.135.043.18.032.045.095.068.192.068.031 0 .066-.001.105-.004.039-.005.081-.012.125-.02v.531a1.916 1.916 0 0 1-.25.06 1.775 1.775 0 0 1-.234.012c-.242 0-.418-.088-.527-.263a1.024 1.024 0 0 1-.121-.396 1.813 1.813 0 0 1-.617.5 1.879 1.879 0 0 1-.887.211c-.388 0-.705-.12-.953-.359a1.23 1.23 0 0 1-.367-.908c0-.397.121-.704.363-.923.243-.218.56-.353.953-.404l1.121-.143Z" fill="url(#z)"/><path d="M166.61 247.659h.667v.739c.055-.143.189-.318.403-.523a1.025 1.025 0 0 1 .804-.308l.16.016v.759a1.121 1.121 0 0 0-.23-.02c-.354 0-.626.118-.816.352-.19.232-.286.5-.286.804v2.461h-.702v-4.28Z" fill="url(#A)"/><path d="M169.478 246.068h.675v3.41l1.804-1.819h.898l-1.601 1.603 1.691 2.677h-.898l-1.304-2.158-.59.552v1.606h-.675v-5.871Z" fill="url(#B)"/><path d="M175.473 247.563c.297 0 .585.072.863.216.279.141.491.325.637.551.14.216.234.468.281.756.042.197.062.511.062.943h-3.065c.013.434.113.783.301 1.047.187.261.477.392.871.392.367 0 .659-.124.878-.372.125-.144.214-.31.266-.499h.691c-.018.157-.08.333-.184.527a1.849 1.849 0 0 1-.343.472 1.625 1.625 0 0 1-.793.431 2.338 2.338 0 0 1-.574.064c-.521 0-.962-.193-1.324-.579-.362-.389-.543-.933-.543-1.631 0-.687.183-1.245.547-1.674.365-.429.841-.644 1.429-.644Zm1.121 1.895c-.029-.312-.095-.561-.199-.748-.193-.346-.514-.519-.965-.519-.322 0-.593.119-.812.359-.219.237-.334.54-.347.908h2.323Z" fill="url(#C)"/><path d="M178.564 246.464h.711v1.195h.667v.588h-.667v2.793c0 .149.049.249.148.3a.623.623 0 0 0 .273.044h.11l.136-.012v.567c-.08.024-.165.042-.254.052a2.208 2.208 0 0 1-.281.016c-.328 0-.55-.085-.667-.255-.118-.174-.176-.397-.176-.672v-2.833h-.566v-.588h.566v-1.195Z" fill="url(#D)"/><path d="M180.889 247.679h.715v4.26h-.715v-4.26Zm0-1.611h.715v.816h-.715v-.816Z" fill="url(#E)"/><path d="M182.91 247.659h.667v.608c.198-.251.408-.431.629-.54.221-.109.467-.164.738-.164.594 0 .994.212 1.203.636.114.231.172.563.172.995v2.745h-.715v-2.697c0-.261-.038-.472-.113-.632-.125-.266-.352-.399-.68-.399-.166 0-.303.017-.41.052a1.046 1.046 0 0 0-.507.351 1.084 1.084 0 0 0-.231.44 3.08 3.08 0 0 0-.051.643v2.242h-.702v-4.28Z" fill="url(#F)"/><path d="M189.077 247.583a1.5 1.5 0 0 1 .859.248c.133.093.268.229.406.408v-.54h.649v3.893c0 .543-.079.972-.235 1.287-.291.581-.842.871-1.652.871-.45 0-.829-.104-1.136-.312-.307-.205-.479-.527-.515-.967h.714c.034.192.102.34.203.444.159.16.409.239.75.239.539 0 .892-.194 1.058-.583.099-.229.145-.638.137-1.227-.141.218-.31.381-.508.488-.198.106-.459.159-.785.159-.453 0-.85-.163-1.191-.491-.338-.331-.507-.875-.507-1.635 0-.717.17-1.276.511-1.678.344-.403.758-.604 1.242-.604Zm1.265 2.198c0-.53-.106-.923-.32-1.179a1.014 1.014 0 0 0-.816-.383c-.495 0-.833.237-1.015.711-.097.253-.145.585-.145.995 0 .482.095.85.285 1.103a.926.926 0 0 0 .773.376c.505 0 .861-.233 1.066-.699.115-.264.172-.572.172-.924Z" fill="url(#G)"/><path d="M194.758 247.679h.715v4.26h-.715v-4.26Zm0-1.611h.715v.816h-.715v-.816Z" fill="url(#H)"/><path d="M196.779 247.659h.668v.608a1.87 1.87 0 0 1 .628-.54c.222-.109.468-.164.738-.164.594 0 .995.212 1.203.636.115.231.172.563.172.995v2.745h-.715v-2.697c0-.261-.038-.472-.113-.632-.125-.266-.351-.399-.679-.399-.167 0-.304.017-.41.052a1.049 1.049 0 0 0-.508.351 1.081 1.081 0 0 0-.23.44 3.08 3.08 0 0 0-.051.643v2.242h-.703v-4.28Z" fill="url(#I)"/><path d="M204.049 246.068h.785v2.426h2.984v-2.426h.784v5.871h-.784v-2.745h-2.984v2.745h-.785v-5.871Z" fill="url(#J)"/><path d="M211.697 247.563c.297 0 .584.072.863.216.278.141.491.325.636.551.141.216.235.468.282.756.041.197.062.511.062.943h-3.065c.013.434.113.783.3 1.047.188.261.478.392.871.392.367 0 .66-.124.879-.372a1.26 1.26 0 0 0 .265-.499h.691a1.504 1.504 0 0 1-.183.527 1.851 1.851 0 0 1-.344.472 1.618 1.618 0 0 1-.792.431c-.17.043-.361.064-.574.064-.521 0-.962-.193-1.324-.579-.362-.389-.543-.933-.543-1.631 0-.687.182-1.245.547-1.674.364-.429.841-.644 1.429-.644Zm1.121 1.895c-.029-.312-.095-.561-.2-.748-.192-.346-.514-.519-.964-.519-.323 0-.594.119-.812.359-.219.237-.335.54-.348.908h2.324Z" fill="url(#K)"/><path d="M215.186 250.8a.6.6 0 0 0 .222.492c.149.12.324.18.527.18.248 0 .487-.059.719-.176.39-.194.586-.513.586-.955v-.58a1.184 1.184 0 0 1-.332.14 2.818 2.818 0 0 1-.399.08l-.425.056c-.255.035-.447.089-.574.164-.216.125-.324.325-.324.599Zm1.702-1.454c.162-.022.27-.091.324-.208a.635.635 0 0 0 .047-.276c0-.245-.086-.422-.258-.532-.169-.111-.412-.167-.73-.167-.367 0-.627.101-.781.303-.086.112-.142.279-.168.5h-.656c.013-.528.18-.894.5-1.099a2.025 2.025 0 0 1 1.121-.312c.492 0 .892.096 1.199.288.304.192.457.49.457.895v2.466c0 .075.014.135.043.18.031.045.095.068.191.068.031 0 .066-.001.105-.004.039-.005.081-.012.125-.02v.531a1.88 1.88 0 0 1-.25.06 1.775 1.775 0 0 1-.234.012c-.242 0-.418-.088-.527-.263a1.041 1.041 0 0 1-.121-.396 1.804 1.804 0 0 1-.617.5 1.876 1.876 0 0 1-.887.211c-.387 0-.705-.12-.952-.359a1.226 1.226 0 0 1-.367-.908c0-.397.121-.704.363-.923.242-.218.559-.353.953-.404l1.12-.143Z" fill="url(#L)"/><path d="M219.784 249.849c0 .458.095.842.285 1.151.19.309.494.464.913.464.326 0 .593-.143.801-.428.211-.288.316-.699.316-1.235 0-.541-.108-.94-.324-1.199a1 1 0 0 0-.8-.391c-.355 0-.642.138-.863.415-.219.277-.328.685-.328 1.223Zm1.058-2.266c.32 0 .588.069.804.208.125.08.267.22.426.42v-2.163h.675v5.891h-.632v-.595a1.541 1.541 0 0 1-.582.572c-.224.117-.48.175-.769.175-.466 0-.87-.199-1.211-.599-.341-.402-.511-.937-.511-1.603 0-.623.154-1.163.464-1.619.313-.458.758-.687 1.336-.687Z" fill="url(#M)"/><path d="M224.483 249.857c0 .371.051.681.152.931.18.445.501.668.965.668.489 0 .826-.235 1.011-.704.102-.258.152-.588.152-.991 0-.37-.056-.679-.168-.927-.19-.424-.524-.635-1.003-.635-.305 0-.566.135-.785.407-.216.269-.324.686-.324 1.251Zm1.039-2.294c.346 0 .637.089.874.268.13.096.255.237.375.424v-.596h.668v5.987h-.707v-2.198c-.117.192-.28.345-.488.46-.206.111-.463.167-.773.167-.445 0-.844-.178-1.195-.535-.352-.357-.527-.901-.527-1.631 0-.685.164-1.247.492-1.686.33-.44.757-.66 1.281-.66Z" fill="url(#N)"/><path d="M229.424 247.659v2.842c0 .218.034.397.102.535.125.256.358.384.699.384.489 0 .822-.224.999-.672.097-.239.145-.568.145-.987v-2.102h.703v4.28h-.664l.008-.631c-.091.163-.205.3-.34.412a1.475 1.475 0 0 1-.976.335c-.596 0-1.002-.203-1.218-.611-.118-.219-.176-.51-.176-.875v-2.91h.718Z" fill="url(#O)"/><path d="M233.952 250.8a.6.6 0 0 0 .222.492c.149.12.324.18.528.18.247 0 .486-.059.718-.176.391-.194.586-.513.586-.955v-.58a1.184 1.184 0 0 1-.332.14 2.834 2.834 0 0 1-.398.08l-.426.056c-.255.035-.447.089-.574.164-.216.125-.324.325-.324.599Zm1.702-1.454c.162-.022.27-.091.324-.208a.635.635 0 0 0 .047-.276c0-.245-.086-.422-.257-.532-.17-.111-.413-.167-.731-.167-.367 0-.627.101-.781.303-.086.112-.141.279-.168.5h-.656c.013-.528.18-.894.5-1.099a2.025 2.025 0 0 1 1.121-.312c.492 0 .892.096 1.199.288.304.192.457.49.457.895v2.466c0 .075.014.135.043.18.031.045.095.068.191.068.031 0 .066-.001.105-.004.039-.005.081-.012.125-.02v.531a1.88 1.88 0 0 1-.25.06 1.775 1.775 0 0 1-.234.012c-.242 0-.418-.088-.527-.263a1.041 1.041 0 0 1-.121-.396 1.804 1.804 0 0 1-.617.5 1.875 1.875 0 0 1-.886.211c-.388 0-.706-.12-.953-.359a1.226 1.226 0 0 1-.367-.908c0-.397.121-.704.363-.923.242-.218.56-.353.953-.404l1.12-.143Z" fill="url(#P)"/><path d="M238.124 247.659h.668v.739c.054-.143.188-.318.402-.523a1.025 1.025 0 0 1 .804-.308l.16.016v.759a1.053 1.053 0 0 0-.23-.02c-.354 0-.626.118-.816.352-.19.232-.285.5-.285.804v2.461h-.703v-4.28Z" fill="url(#Q)"/><path d="M241.148 246.464h.711v1.195h.668v.588h-.668v2.793c0 .149.049.249.148.3a.625.625 0 0 0 .274.044h.109a8.13 8.13 0 0 0 .137-.012v.567a1.485 1.485 0 0 1-.254.052 2.23 2.23 0 0 1-.281.016c-.328 0-.551-.085-.668-.255-.117-.174-.176-.397-.176-.672v-2.833h-.566v-.588h.566v-1.195Z" fill="url(#R)"/><path d="M245.215 247.563c.297 0 .584.072.863.216.278.141.491.325.636.551.141.216.235.468.281.756.042.197.063.511.063.943h-3.065c.013.434.113.783.3 1.047.188.261.478.392.871.392.367 0 .66-.124.879-.372a1.26 1.26 0 0 0 .265-.499h.691a1.504 1.504 0 0 1-.183.527 1.851 1.851 0 0 1-.344.472 1.618 1.618 0 0 1-.792.431c-.17.043-.361.064-.575.064-.52 0-.961-.193-1.323-.579-.362-.389-.543-.933-.543-1.631 0-.687.182-1.245.547-1.674.364-.429.84-.644 1.429-.644Zm1.121 1.895c-.029-.312-.095-.561-.2-.748-.192-.346-.514-.519-.964-.519-.323 0-.594.119-.812.359-.219.237-.335.54-.348.908h2.324Z" fill="url(#S)"/><path d="M248.184 247.659h.668v.739c.055-.143.189-.318.402-.523a1.029 1.029 0 0 1 .805-.308l.16.016v.759a1.121 1.121 0 0 0-.231-.02c-.354 0-.626.118-.816.352-.19.232-.285.5-.285.804v2.461h-.703v-4.28Z" fill="url(#T)"/></g><path d="m596.3 342.172-.809-2.353-.859 2.353h1.668Zm-1.186-3.144h.816l1.933 5.327h-.79l-.541-1.595h-2.107l-.576 1.595h-.74l2.005-5.327Zm3.614 0h3.695v.653h-2.974v1.617h2.615v.635h-2.615v2.422h-.721v-5.327Zm4.679 0h3.696v.653h-2.974v1.617h2.615v.635h-2.615v2.422h-.722v-5.327Zm3.853 4.537h.758v.79h-.758v-.79Zm4.326-4.537h1.033l1.531 4.504 1.519-4.504h1.023v5.327h-.686v-3.144c0-.108.003-.289.008-.54.005-.251.007-.521.007-.809l-1.52 4.493h-.714l-1.53-4.493v.163c0 .131.002.33.007.599.007.266.011.462.011.587v3.144h-.689v-5.327Zm6.344 0h.852l2.691 4.316v-4.316h.685v5.327h-.808l-2.731-4.311v4.311h-.689v-5.327Zm7.809-.138c.501 0 .933.097 1.299.29.529.278.853.766.971 1.462h-.714c-.087-.389-.267-.672-.54-.849-.274-.179-.618-.268-1.034-.268-.493 0-.909.185-1.247.555-.336.37-.504.921-.504 1.654 0 .633.139 1.149.417 1.548.278.397.731.595 1.359.595.482 0 .879-.139 1.194-.417.316-.281.478-.733.486-1.357h-1.669v-.598h2.339v2.85h-.464l-.174-.685c-.244.268-.46.455-.649.559-.317.178-.719.268-1.208.268a2.351 2.351 0 0 1-1.628-.613c-.495-.513-.743-1.216-.743-2.111 0-.892.241-1.601.725-2.128.459-.503 1.054-.755 1.784-.755Z" fill="#000"/><path d="m324 96 20-22M320 94l8-30" stroke="#9DA3B5" stroke-opacity=".5"/><circle cx="315.5" cy="105.5" r="12" stroke="#EAEEF6"/><path d="M372.371 338.814h-.791v-.914h.791v.914Zm-1.538 6.732c.355-.011.567-.044.637-.096.073-.05.11-.21.11-.479v-5.3h.791v5.383c0 .343-.056.599-.167.769-.184.287-.535.431-1.05.431-.038 0-.079-.002-.123-.004a8.768 8.768 0 0 1-.198-.018v-.686Zm4.889-1.7c.524 0 .883-.198 1.076-.594.197-.398.295-.84.295-1.327 0-.439-.071-.797-.211-1.072-.223-.434-.607-.65-1.152-.65-.483 0-.835.184-1.054.553-.22.369-.33.815-.33 1.336 0 .501.11.919.33 1.253.219.334.568.501 1.046.501Zm.03-4.333c.607 0 1.12.202 1.539.606.418.404.628.999.628 1.784 0 .759-.185 1.386-.554 1.881-.369.495-.942.743-1.718.743-.648 0-1.162-.218-1.543-.655-.38-.439-.571-1.028-.571-1.767 0-.791.201-1.42.602-1.889.402-.469.941-.703 1.617-.703Zm3.382-1.635h.791v2.408c.187-.237.356-.404.505-.501.255-.167.573-.25.954-.25.682 0 1.145.238 1.388.716.132.261.198.623.198 1.085v3.019h-.813v-2.966c0-.346-.044-.599-.132-.76-.143-.258-.413-.387-.808-.387-.328 0-.626.113-.892.339-.267.225-.4.651-.4 1.278v2.496h-.791v-6.477Zm5.28 1.771h.751v.668c.223-.275.458-.473.708-.593.249-.12.525-.181.83-.181.668 0 1.119.233 1.354.699.128.255.193.62.193 1.094v3.019h-.804v-2.966c0-.287-.043-.518-.128-.694-.14-.293-.395-.44-.764-.44-.188 0-.342.019-.462.057a1.193 1.193 0 0 0-.571.387 1.183 1.183 0 0 0-.259.484c-.038.164-.057.4-.057.707v2.465h-.791v-4.706Zm5.468 3.748h.919v.958h-.919v-.958Zm3.087-1.34c0 .504.107.926.321 1.266.214.34.557.51 1.028.51.366 0 .667-.157.901-.471.237-.316.356-.769.356-1.358 0-.594-.121-1.034-.365-1.318a1.135 1.135 0 0 0-.901-.431c-.398 0-.722.153-.971.457-.246.305-.369.753-.369 1.345Zm1.191-2.492c.36 0 .662.077.905.229.141.088.301.242.479.461v-2.377h.761v6.477h-.712v-.654c-.185.29-.403.499-.655.628a1.875 1.875 0 0 1-.866.193c-.524 0-.978-.219-1.362-.659-.384-.442-.576-1.03-.576-1.762 0-.685.174-1.279.523-1.78.352-.504.853-.756 1.503-.756Zm5.456 4.281c.524 0 .883-.198 1.076-.594.197-.398.295-.84.295-1.327 0-.439-.071-.797-.211-1.072-.223-.434-.607-.65-1.152-.65-.483 0-.835.184-1.054.553-.22.369-.33.815-.33 1.336 0 .501.11.919.33 1.253.219.334.568.501 1.046.501Zm.03-4.333c.607 0 1.12.202 1.538.606.419.404.629.999.629 1.784 0 .759-.185 1.386-.554 1.881-.369.495-.942.743-1.718.743-.648 0-1.162-.218-1.543-.655-.38-.439-.571-1.028-.571-1.767 0-.791.201-1.42.602-1.889.402-.469.941-.703 1.617-.703Zm5.342.03c.334 0 .657.08.971.238.313.155.552.357.716.606.158.238.264.514.317.831.046.217.07.562.07 1.037h-3.45c.015.477.128.861.339 1.151.21.287.537.431.98.431.413 0 .742-.136.988-.409.141-.158.241-.341.299-.549h.778a1.632 1.632 0 0 1-.207.58 2.04 2.04 0 0 1-.386.519 1.85 1.85 0 0 1-.892.474 2.71 2.71 0 0 1-.646.07 1.985 1.985 0 0 1-1.49-.637c-.407-.427-.611-1.025-.611-1.793 0-.756.205-1.369.615-1.841.41-.472.947-.708 1.609-.708Zm1.261 2.083c-.032-.342-.107-.616-.224-.821-.217-.381-.579-.572-1.086-.572a1.2 1.2 0 0 0-.914.396c-.246.261-.376.593-.391.997h2.615Zm2.674 1.209c.023.436.192.738.505.905.161.088.343.132.545.132.378 0 .7-.157.967-.47.266-.317.455-.957.567-1.921a1.472 1.472 0 0 1-.655.589 2.072 2.072 0 0 1-.835.167c-.607 0-1.087-.189-1.441-.567-.352-.378-.528-.864-.528-1.459 0-.571.174-1.073.523-1.507.349-.433.863-.65 1.543-.65.917 0 1.549.413 1.898 1.239.193.454.29 1.022.29 1.705 0 .771-.116 1.453-.347 2.048-.384.99-1.034 1.485-1.951 1.485-.615 0-1.083-.161-1.402-.483-.319-.322-.479-.727-.479-1.213h.8Zm1.199-1.292c.314 0 .6-.103.857-.308.261-.208.391-.569.391-1.085 0-.463-.117-.807-.351-1.033-.232-.228-.527-.343-.888-.343-.387 0-.694.131-.923.392-.225.257-.338.603-.338 1.037 0 .41.1.736.299.98.199.24.517.36.953.36Zm3.166 2.812c.03-.542.141-1.013.334-1.415.197-.401.578-.766 1.143-1.094l.844-.488c.378-.219.643-.407.795-.562.24-.243.36-.522.36-.835 0-.366-.109-.656-.329-.87-.22-.217-.513-.325-.879-.325-.542 0-.917.205-1.125.615-.111.22-.173.524-.185.914h-.804c.009-.548.11-.995.303-1.34.343-.61.948-.914 1.815-.914.721 0 1.247.194 1.578.584.334.39.501.823.501 1.301 0 .504-.177.934-.532 1.292-.205.208-.573.46-1.103.756l-.602.334a3.926 3.926 0 0 0-.677.452c-.293.255-.477.538-.553.848h3.436v.747h-4.32Zm10.488-3.924a.732.732 0 0 0-.185-.488.613.613 0 0 0-.501-.219c-.334 0-.624.197-.87.593-.243.392-.365.784-.365 1.173 0 .287.063.507.189.659.126.15.284.225.475.225.395 0 .703-.23.923-.69.222-.463.334-.881.334-1.253Zm-.875 4.113c-1.224 0-2.168-.382-2.83-1.147a3.144 3.144 0 0 1-.795-2.122c0-.955.322-1.767.966-2.435.715-.744 1.675-1.116 2.879-1.116 1.043 0 1.863.264 2.461.791.559.498.839 1.144.839 1.938 0 .668-.2 1.239-.602 1.714-.398.472-.845.708-1.34.708-.29 0-.504-.069-.642-.207a.7.7 0 0 1-.198-.606c.006-.036.014-.072.022-.11-.155.337-.351.575-.588.716a1.444 1.444 0 0 1-.734.207c-.361 0-.654-.131-.879-.392-.223-.26-.334-.596-.334-1.006a2.3 2.3 0 0 1 .571-1.542c.384-.446.795-.668 1.235-.668.299 0 .545.086.738.259a.857.857 0 0 1 .312.624l.22-.738h.646l-.585 1.924a6.48 6.48 0 0 0-.096.361 1.082 1.082 0 0 0-.031.241c0 .132.04.229.119.291a.467.467 0 0 0 .277.087c.334 0 .632-.174.896-.523.267-.348.4-.804.4-1.366 0-.68-.237-1.213-.712-1.6-.475-.389-1.113-.584-1.916-.584-1.113 0-1.964.325-2.553.975-.504.554-.756 1.25-.756 2.088 0 .732.24 1.347.721 1.845.562.589 1.363.884 2.403.884a3.95 3.95 0 0 0 1.358-.229 4.545 4.545 0 0 0 1.152-.624l.29.396c-.264.234-.658.454-1.182.659a4.722 4.722 0 0 1-1.732.307Zm7.038-4.979c.369 0 .691.091.967.273.149.102.301.252.457.448v-.593h.729v4.28c0 .598-.088 1.069-.264 1.415-.328.639-.947.958-1.858.958-.507 0-.934-.114-1.279-.343-.346-.225-.539-.58-.58-1.063h.804c.038.211.114.373.228.488.179.176.46.263.844.263.607 0 1.004-.213 1.191-.641.111-.252.163-.702.154-1.349-.158.24-.349.419-.571.536-.223.117-.518.176-.884.176-.51 0-.956-.181-1.34-.541-.381-.363-.571-.962-.571-1.797 0-.788.192-1.404.575-1.846.387-.442.853-.664 1.398-.664Zm1.424 2.417c0-.583-.121-1.015-.361-1.296a1.154 1.154 0 0 0-.918-.422c-.557 0-.938.261-1.143.782-.108.279-.162.643-.162 1.095 0 .53.107.934.32 1.213.217.275.507.413.871.413.568 0 .968-.257 1.199-.769.129-.29.194-.629.194-1.016Zm2.194-2.333h.783v.668c.187-.232.357-.4.509-.505.261-.179.557-.269.888-.269.375 0 .677.093.905.277.129.106.246.261.352.466.176-.252.382-.438.62-.558.237-.123.503-.185.799-.185.633 0 1.064.229 1.292.686.123.246.185.577.185.993v3.133h-.822v-3.269c0-.314-.079-.529-.237-.646a.922.922 0 0 0-.571-.176c-.311 0-.579.104-.805.312-.222.208-.334.555-.334 1.042v2.737h-.804v-3.071c0-.32-.038-.553-.114-.699-.12-.22-.344-.33-.672-.33-.299 0-.572.116-.818.348-.243.231-.365.65-.365 1.256v2.496h-.791v-4.706Zm8.374 3.454c0 .229.083.409.25.541a.934.934 0 0 0 .594.197c.278 0 .548-.064.808-.193.44-.214.659-.564.659-1.05v-.638a1.33 1.33 0 0 1-.373.154 3.106 3.106 0 0 1-.448.088l-.479.062c-.287.038-.503.098-.646.18-.244.138-.365.357-.365.659Zm1.916-1.6c.182-.023.303-.099.365-.228a.696.696 0 0 0 .052-.303c0-.27-.096-.465-.29-.585-.19-.123-.464-.184-.821-.184-.414 0-.706.111-.879.334-.097.123-.16.306-.189.549h-.739c.015-.58.203-.983.563-1.209a2.322 2.322 0 0 1 1.261-.342c.554 0 1.004.105 1.349.316.343.211.514.539.514.984v2.712c0 .082.017.148.049.198.035.049.107.074.215.074.035 0 .075-.001.119-.004.044-.006.091-.013.14-.022v.584a1.934 1.934 0 0 1-.281.066 1.986 1.986 0 0 1-.264.014c-.272 0-.47-.097-.593-.29a1.126 1.126 0 0 1-.136-.436c-.161.211-.393.394-.694.55a2.155 2.155 0 0 1-.998.233c-.436 0-.794-.132-1.072-.396a1.328 1.328 0 0 1-.413-.997c0-.437.136-.775.408-1.016.273-.24.63-.388 1.073-.443l1.261-.159Zm2.757-1.832h.804v4.684h-.804v-4.684Zm0-1.771h.804v.896h-.804v-.896Zm2.296 0h.791v6.455h-.791V337.9Zm2.441 5.497h.918v.958h-.918v-.958Zm4.401-3.884c.53 0 .961.129 1.292.386.334.258.535.702.602 1.332h-.769a1.411 1.411 0 0 0-.321-.721c-.167-.193-.435-.29-.804-.29-.504 0-.864.246-1.081.738-.141.32-.211.714-.211 1.183 0 .471.099.868.299 1.191.199.322.512.483.94.483.328 0 .588-.1.778-.299.193-.202.327-.477.4-.826h.769c-.088.624-.308 1.081-.659 1.371-.352.287-.802.431-1.349.431-.616 0-1.106-.224-1.473-.673-.366-.451-.549-1.013-.549-1.687 0-.826.201-1.469.602-1.929.402-.46.913-.69 1.534-.69Zm4.823 4.333c.524 0 .883-.198 1.076-.594.197-.398.295-.84.295-1.327 0-.439-.071-.797-.211-1.072-.223-.434-.607-.65-1.152-.65-.483 0-.835.184-1.054.553-.22.369-.33.815-.33 1.336 0 .501.11.919.33 1.253.219.334.568.501 1.046.501Zm.03-4.333c.607 0 1.119.202 1.538.606.419.404.629.999.629 1.784 0 .759-.185 1.386-.554 1.881-.369.495-.942.743-1.718.743-.648 0-1.162-.218-1.543-.655-.38-.439-.571-1.028-.571-1.767 0-.791.201-1.42.602-1.889.402-.469.941-.703 1.617-.703Zm3.382.136h.782v.668c.187-.232.357-.4.51-.505.26-.179.556-.269.887-.269.375 0 .677.093.906.277.129.106.246.261.351.466.176-.252.383-.438.62-.558.237-.123.504-.185.8-.185.632 0 1.063.229 1.292.686.123.246.184.577.184.993v3.133h-.822v-3.269c0-.314-.079-.529-.237-.646a.922.922 0 0 0-.571-.176c-.311 0-.579.104-.804.312-.223.208-.334.555-.334 1.042v2.737h-.805v-3.071c0-.32-.038-.553-.114-.699-.12-.22-.344-.33-.672-.33-.299 0-.571.116-.818.348-.243.231-.364.65-.364 1.256v2.496h-.791v-4.706ZM487.769 337.9h4.707v.791h-3.854v1.96h3.564v.747h-3.564v2.188h3.92v.769h-4.773V337.9Zm6.084 1.749h.782v.668c.188-.232.358-.4.51-.505.261-.179.557-.269.888-.269.375 0 .676.093.905.277.129.106.246.261.352.466.175-.252.382-.438.619-.558.237-.123.504-.185.8-.185.633 0 1.063.229 1.292.686.123.246.185.577.185.993v3.133h-.822v-3.269c0-.314-.079-.529-.238-.646a.92.92 0 0 0-.571-.176c-.31 0-.578.104-.804.312-.223.208-.334.555-.334 1.042v2.737h-.804v-3.071c0-.32-.038-.553-.114-.699-.121-.22-.345-.33-.673-.33-.299 0-.571.116-.817.348-.243.231-.365.65-.365 1.256v2.496h-.791v-4.706Zm7.767.022h.804v4.684h-.804v-4.684Zm0-1.771h.804v.896h-.804v-.896Zm2.296 0h.791v6.455h-.791V337.9Zm5.192 1.749h.874c-.111.302-.359.99-.742 2.065-.287.809-.528 1.468-.721 1.978-.457 1.201-.779 1.933-.967 2.197-.187.264-.51.396-.967.396-.111 0-.197-.005-.259-.014a1.77 1.77 0 0 1-.22-.048v-.721c.138.039.238.062.299.071.062.009.116.013.163.013.146 0 .253-.025.321-.075a.624.624 0 0 0 .175-.176c.015-.023.068-.143.159-.36.09-.217.156-.378.197-.483l-1.74-4.843h.897l1.261 3.832 1.27-3.832ZM527.999 341.71l-.98-2.852-1.041 2.852h2.021Zm-1.437-3.81h.989l2.342 6.455h-.958l-.655-1.933h-2.553l-.699 1.933h-.896l2.43-6.455Zm4.291 1.749h.751v.668c.223-.275.459-.473.708-.593a1.89 1.89 0 0 1 .831-.181c.668 0 1.119.233 1.353.699.129.255.193.62.193 1.094v3.019h-.804v-2.966c0-.287-.042-.518-.127-.694-.141-.293-.396-.44-.765-.44-.187 0-.341.019-.461.057a1.196 1.196 0 0 0-.572.387 1.195 1.195 0 0 0-.259.484c-.038.164-.057.4-.057.707v2.465h-.791v-4.706Zm5.781 2.408c0 .504.107.926.321 1.266.213.34.556.51 1.028.51.366 0 .666-.157.901-.471.237-.316.356-.769.356-1.358 0-.594-.122-1.034-.365-1.318a1.135 1.135 0 0 0-.901-.431c-.398 0-.722.153-.971.457-.246.305-.369.753-.369 1.345Zm1.191-2.492c.36 0 .662.077.905.229.141.088.3.242.479.461v-2.377h.76v6.477h-.712v-.654c-.184.29-.403.499-.655.628-.251.129-.54.193-.865.193-.525 0-.979-.219-1.363-.659-.383-.442-.575-1.03-.575-1.762 0-.685.174-1.279.523-1.78.351-.504.852-.756 1.503-.756Zm5.547-.022c.334 0 .658.08.972.238.313.155.552.357.716.606.158.238.264.514.316.831.047.217.071.562.071 1.037h-3.45c.015.477.127.861.338 1.151.211.287.538.431.98.431.413 0 .743-.136.989-.409.141-.158.24-.341.299-.549h.778c-.021.173-.09.366-.207.58a2.04 2.04 0 0 1-.386.519 1.85 1.85 0 0 1-.893.474c-.19.047-.405.07-.646.07a1.984 1.984 0 0 1-1.489-.637c-.408-.427-.611-1.025-.611-1.793 0-.756.205-1.369.615-1.841.41-.472.946-.708 1.608-.708Zm1.262 2.083c-.032-.342-.107-.616-.224-.821-.217-.381-.579-.572-1.086-.572a1.2 1.2 0 0 0-.914.396c-.246.261-.376.593-.391.997h2.615Zm2.08-1.977h.752v.813c.061-.158.212-.35.452-.576.241-.228.517-.343.831-.343l.075.005.18.017v.835a1.407 1.407 0 0 0-.259-.022c-.399 0-.705.129-.919.387a1.333 1.333 0 0 0-.321.883v2.707h-.791v-4.706Zm3.716 3.23c.023.264.089.466.197.606.2.255.545.383 1.037.383.293 0 .551-.063.774-.189a.64.64 0 0 0 .334-.594.504.504 0 0 0-.268-.461c-.114-.064-.34-.139-.677-.224l-.628-.158c-.402-.1-.698-.211-.888-.334-.34-.214-.51-.51-.51-.888 0-.445.16-.806.479-1.081.322-.275.755-.413 1.297-.413.709 0 1.22.208 1.533.624.197.264.292.548.286.852h-.747a.919.919 0 0 0-.189-.487c-.182-.208-.497-.312-.945-.312-.299 0-.526.057-.681.171a.54.54 0 0 0-.229.453c0 .205.101.369.304.492.117.073.29.138.518.193l.523.128c.568.137.949.271 1.143.4.307.202.461.52.461.953 0 .419-.16.781-.479 1.086-.316.304-.8.457-1.45.457-.7 0-1.197-.159-1.49-.475-.29-.319-.445-.713-.466-1.182h.761Zm6.167.967c.524 0 .883-.198 1.077-.594.196-.398.294-.84.294-1.327 0-.439-.07-.797-.211-1.072-.222-.434-.606-.65-1.151-.65-.484 0-.835.184-1.055.553-.22.369-.329.815-.329 1.336 0 .501.109.919.329 1.253.22.334.569.501 1.046.501Zm.031-4.333c.606 0 1.119.202 1.538.606.419.404.628.999.628 1.784 0 .759-.184 1.386-.553 1.881-.37.495-.942.743-1.719.743-.647 0-1.161-.218-1.542-.655-.381-.439-.571-1.028-.571-1.767 0-.791.2-1.42.602-1.889.401-.469.94-.703 1.617-.703Zm3.381.136h.752v.668c.222-.275.458-.473.707-.593a1.89 1.89 0 0 1 .831-.181c.668 0 1.119.233 1.353.699.129.255.194.62.194 1.094v3.019h-.805v-2.966c0-.287-.042-.518-.127-.694-.141-.293-.396-.44-.765-.44-.187 0-.341.019-.461.057a1.193 1.193 0 0 0-.571.387 1.186 1.186 0 0 0-.26.484c-.038.164-.057.4-.057.707v2.465h-.791v-4.706Z" fill="#000"/><defs><linearGradient id="g" x1="643.805" y1="334.734" x2="658.983" y2="339.035" gradientUnits="userSpaceOnUse"><stop offset=".219" stop-color="#202833"/><stop offset=".771"/><stop offset=".99" stop-color="#202833"/></linearGradient><linearGradient id="i" x1="307.643" y1="236" x2="323.969" y2="241.047" gradientUnits="userSpaceOnUse"><stop offset=".219" stop-color="#202833"/><stop offset=".771"/><stop offset=".99" stop-color="#202833"/></linearGradient><linearGradient id="j" x1="86.176" y1="245.984" x2="91.321" y2="278.932" gradientUnits="userSpaceOnUse"><stop offset=".219" stop-color="#202833"/><stop offset=".771"/><stop offset=".99" stop-color="#202833"/></linearGradient><linearGradient id="k" x1="86.176" y1="245.984" x2="91.321" y2="278.932" gradientUnits="userSpaceOnUse"><stop offset=".219" stop-color="#202833"/><stop offset=".771"/><stop offset=".99" stop-color="#202833"/></linearGradient><linearGradient id="l" x1="86.176" y1="245.984" x2="91.321" y2="278.932" gradientUnits="userSpaceOnUse"><stop offset=".219" stop-color="#202833"/><stop offset=".771"/><stop offset=".99" stop-color="#202833"/></linearGradient><linearGradient id="m" x1="86.176" y1="245.984" x2="91.321" y2="278.932" gradientUnits="userSpaceOnUse"><stop offset=".219" stop-color="#202833"/><stop offset=".771"/><stop offset=".99" stop-color="#202833"/></linearGradient><linearGradient id="n" x1="86.176" y1="245.984" x2="91.321" y2="278.932" gradientUnits="userSpaceOnUse"><stop offset=".219" stop-color="#202833"/><stop offset=".771"/><stop offset=".99" stop-color="#202833"/></linearGradient><linearGradient id="o" x1="86.176" y1="245.984" x2="91.321" y2="278.932" gradientUnits="userSpaceOnUse"><stop offset=".219" stop-color="#202833"/><stop offset=".771"/><stop offset=".99" stop-color="#202833"/></linearGradient><linearGradient id="p" x1="86.176" y1="245.984" x2="91.321" y2="278.932" gradientUnits="userSpaceOnUse"><stop offset=".219" stop-color="#202833"/><stop offset=".771"/><stop offset=".99" stop-color="#202833"/></linearGradient><linearGradient id="q" x1="86.176" y1="245.984" x2="91.321" y2="278.932" gradientUnits="userSpaceOnUse"><stop offset=".219" stop-color="#202833"/><stop offset=".771"/><stop offset=".99" stop-color="#202833"/></linearGradient><linearGradient id="r" x1="86.176" y1="245.984" x2="91.321" y2="278.932" gradientUnits="userSpaceOnUse"><stop offset=".219" stop-color="#202833"/><stop offset=".771"/><stop offset=".99" stop-color="#202833"/></linearGradient><linearGradient id="s" x1="86.176" y1="245.984" x2="91.321" y2="278.932" gradientUnits="userSpaceOnUse"><stop offset=".219" stop-color="#202833"/><stop offset=".771"/><stop offset=".99" stop-color="#202833"/></linearGradient><linearGradient id="t" x1="86.176" y1="245.984" x2="91.321" y2="278.932" gradientUnits="userSpaceOnUse"><stop offset=".219" stop-color="#202833"/><stop offset=".771"/><stop offset=".99" stop-color="#202833"/></linearGradient><linearGradient id="u" x1="86.176" y1="245.984" x2="91.321" y2="278.932" gradientUnits="userSpaceOnUse"><stop offset=".219" stop-color="#202833"/><stop offset=".771"/><stop offset=".99" stop-color="#202833"/></linearGradient><linearGradient id="v" x1="86.176" y1="245.984" x2="91.321" y2="278.932" gradientUnits="userSpaceOnUse"><stop offset=".219" stop-color="#202833"/><stop offset=".771"/><stop offset=".99" stop-color="#202833"/></linearGradient><linearGradient id="w" x1="86.176" y1="245.984" x2="91.321" y2="278.932" gradientUnits="userSpaceOnUse"><stop offset=".219" stop-color="#202833"/><stop offset=".771"/><stop offset=".99" stop-color="#202833"/></linearGradient><linearGradient id="x" x1="86.176" y1="245.984" x2="91.321" y2="278.932" gradientUnits="userSpaceOnUse"><stop offset=".219" stop-color="#202833"/><stop offset=".771"/><stop offset=".99" stop-color="#202833"/></linearGradient><linearGradient id="y" x1="86.176" y1="245.984" x2="91.321" y2="278.932" gradientUnits="userSpaceOnUse"><stop offset=".219" stop-color="#202833"/><stop offset=".771"/><stop offset=".99" stop-color="#202833"/></linearGradient><linearGradient id="z" x1="86.176" y1="245.984" x2="91.321" y2="278.932" gradientUnits="userSpaceOnUse"><stop offset=".219" stop-color="#202833"/><stop offset=".771"/><stop offset=".99" stop-color="#202833"/></linearGradient><linearGradient id="A" x1="86.176" y1="245.984" x2="91.321" y2="278.932" gradientUnits="userSpaceOnUse"><stop offset=".219" stop-color="#202833"/><stop offset=".771"/><stop offset=".99" stop-color="#202833"/></linearGradient><linearGradient id="B" x1="86.176" y1="245.984" x2="91.321" y2="278.932" gradientUnits="userSpaceOnUse"><stop offset=".219" stop-color="#202833"/><stop offset=".771"/><stop offset=".99" stop-color="#202833"/></linearGradient><linearGradient id="C" x1="86.176" y1="245.984" x2="91.321" y2="278.932" gradientUnits="userSpaceOnUse"><stop offset=".219" stop-color="#202833"/><stop offset=".771"/><stop offset=".99" stop-color="#202833"/></linearGradient><linearGradient id="D" x1="86.176" y1="245.984" x2="91.321" y2="278.932" gradientUnits="userSpaceOnUse"><stop offset=".219" stop-color="#202833"/><stop offset=".771"/><stop offset=".99" stop-color="#202833"/></linearGradient><linearGradient id="E" x1="86.176" y1="245.984" x2="91.321" y2="278.932" gradientUnits="userSpaceOnUse"><stop offset=".219" stop-color="#202833"/><stop offset=".771"/><stop offset=".99" stop-color="#202833"/></linearGradient><linearGradient id="F" x1="86.176" y1="245.984" x2="91.321" y2="278.932" gradientUnits="userSpaceOnUse"><stop offset=".219" stop-color="#202833"/><stop offset=".771"/><stop offset=".99" stop-color="#202833"/></linearGradient><linearGradient id="G" x1="86.176" y1="245.984" x2="91.321" y2="278.932" gradientUnits="userSpaceOnUse"><stop offset=".219" stop-color="#202833"/><stop offset=".771"/><stop offset=".99" stop-color="#202833"/></linearGradient><linearGradient id="H" x1="86.176" y1="245.984" x2="91.321" y2="278.932" gradientUnits="userSpaceOnUse"><stop offset=".219" stop-color="#202833"/><stop offset=".771"/><stop offset=".99" stop-color="#202833"/></linearGradient><linearGradient id="I" x1="86.176" y1="245.984" x2="91.321" y2="278.932" gradientUnits="userSpaceOnUse"><stop offset=".219" stop-color="#202833"/><stop offset=".771"/><stop offset=".99" stop-color="#202833"/></linearGradient><linearGradient id="J" x1="86.176" y1="245.984" x2="91.321" y2="278.932" gradientUnits="userSpaceOnUse"><stop offset=".219" stop-color="#202833"/><stop offset=".771"/><stop offset=".99" stop-color="#202833"/></linearGradient><linearGradient id="K" x1="86.176" y1="245.984" x2="91.321" y2="278.932" gradientUnits="userSpaceOnUse"><stop offset=".219" stop-color="#202833"/><stop offset=".771"/><stop offset=".99" stop-color="#202833"/></linearGradient><linearGradient id="L" x1="86.176" y1="245.984" x2="91.321" y2="278.932" gradientUnits="userSpaceOnUse"><stop offset=".219" stop-color="#202833"/><stop offset=".771"/><stop offset=".99" stop-color="#202833"/></linearGradient><linearGradient id="M" x1="86.176" y1="245.984" x2="91.321" y2="278.932" gradientUnits="userSpaceOnUse"><stop offset=".219" stop-color="#202833"/><stop offset=".771"/><stop offset=".99" stop-color="#202833"/></linearGradient><linearGradient id="N" x1="86.176" y1="245.984" x2="91.321" y2="278.932" gradientUnits="userSpaceOnUse"><stop offset=".219" stop-color="#202833"/><stop offset=".771"/><stop offset=".99" stop-color="#202833"/></linearGradient><linearGradient id="O" x1="86.176" y1="245.984" x2="91.321" y2="278.932" gradientUnits="userSpaceOnUse"><stop offset=".219" stop-color="#202833"/><stop offset=".771"/><stop offset=".99" stop-color="#202833"/></linearGradient><linearGradient id="P" x1="86.176" y1="245.984" x2="91.321" y2="278.932" gradientUnits="userSpaceOnUse"><stop offset=".219" stop-color="#202833"/><stop offset=".771"/><stop offset=".99" stop-color="#202833"/></linearGradient><linearGradient id="Q" x1="86.176" y1="245.984" x2="91.321" y2="278.932" gradientUnits="userSpaceOnUse"><stop offset=".219" stop-color="#202833"/><stop offset=".771"/><stop offset=".99" stop-color="#202833"/></linearGradient><linearGradient id="R" x1="86.176" y1="245.984" x2="91.321" y2="278.932" gradientUnits="userSpaceOnUse"><stop offset=".219" stop-color="#202833"/><stop offset=".771"/><stop offset=".99" stop-color="#202833"/></linearGradient><linearGradient id="S" x1="86.176" y1="245.984" x2="91.321" y2="278.932" gradientUnits="userSpaceOnUse"><stop offset=".219" stop-color="#202833"/><stop offset=".771"/><stop offset=".99" stop-color="#202833"/></linearGradient><linearGradient id="T" x1="86.176" y1="245.984" x2="91.321" y2="278.932" gradientUnits="userSpaceOnUse"><stop offset=".219" stop-color="#202833"/><stop offset=".771"/><stop offset=".99" stop-color="#202833"/></linearGradient><filter id="a" x="0" y="79.724" width="355.078" height="434.953" filterUnits="userSpaceOnUse" color-interpolation-filters="sRGB"><feFlood flood-opacity="0" result="BackgroundImageFix"/><feColorMatrix in="SourceAlpha" values="0 0 0 0 0 0 0 0 0 0 0 0 0 0 0 0 0 0 127 0" result="hardAlpha"/><feOffset dx="-10" dy="18.49"/><feGaussianBlur stdDeviation="12.5"/><feColorMatrix values="0 0 0 0 0.219608 0 0 0 0 0.219608 0 0 0 0 0.431373 0 0 0 0.13 0"/><feBlend in2="BackgroundImageFix" result="effect1_dropShadow_1602_23"/><feBlend in="SourceGraphic" in2="effect1_dropShadow_1602_23" result="shape"/></filter><filter id="b" x="29" y="81.234" width="319.078" height="52.828" filterUnits="userSpaceOnUse" color-interpolation-filters="sRGB"><feFlood flood-opacity="0" result="BackgroundImageFix"/><feColorMatrix in="SourceAlpha" values="0 0 0 0 0 0 0 0 0 0 0 0 0 0 0 0 0 0 127 0" result="hardAlpha"/><feOffset dx="1" dy="2"/><feGaussianBlur stdDeviation="3.5"/><feColorMatrix values="0 0 0 0 0.294118 0 0 0 0 0.415686 0 0 0 0 0.964706 0 0 0 0.12 0"/><feBlend in2="BackgroundImageFix" result="effect1_dropShadow_1602_23"/><feBlend in="SourceGraphic" in2="effect1_dropShadow_1602_23" result="shape"/></filter><filter id="c" x="308.218" y=".359" width="94.563" height="94.563" filterUnits="userSpaceOnUse" color-interpolation-filters="sRGB"><feFlood flood-opacity="0" result="BackgroundImageFix"/><feColorMatrix in="SourceAlpha" values="0 0 0 0 0 0 0 0 0 0 0 0 0 0 0 0 0 0 127 0" result="hardAlpha"/><feOffset dx="3" dy="5"/><feGaussianBlur stdDeviation="7"/><feColorMatrix values="0 0 0 0 0.351285 0 0 0 0 0.421414 0 0 0 0 0.558333 0 0 0 0.23 0"/><feBlend in2="BackgroundImageFix" result="effect1_dropShadow_1602_23"/><feBlend in="SourceGraphic" in2="effect1_dropShadow_1602_23" result="shape"/></filter><filter id="d" x="336.281" y="73.234" width="355.078" height="539.234" filterUnits="userSpaceOnUse" color-interpolation-filters="sRGB"><feFlood flood-opacity="0" result="BackgroundImageFix"/><feColorMatrix in="SourceAlpha" values="0 0 0 0 0 0 0 0 0 0 0 0 0 0 0 0 0 0 127 0" result="hardAlpha"/><feOffset dx="9" dy="12"/><feGaussianBlur stdDeviation="12.5"/><feComposite in2="hardAlpha" operator="out"/><feColorMatrix values="0 0 0 0 0.219608 0 0 0 0 0.219608 0 0 0 0 0.431373 0 0 0 0.13 0"/><feBlend in2="BackgroundImageFix" result="effect1_dropShadow_1602_23"/><feBlend in="SourceGraphic" in2="effect1_dropShadow_1602_23" result="shape"/></filter><filter id="e" x="346.281" y="81.234" width="319.078" height="53.938" filterUnits="userSpaceOnUse" color-interpolation-filters="sRGB"><feFlood flood-opacity="0" result="BackgroundImageFix"/><feColorMatrix in="SourceAlpha" values="0 0 0 0 0 0 0 0 0 0 0 0 0 0 0 0 0 0 127 0" result="hardAlpha"/><feOffset dx="1" dy="2"/><feGaussianBlur stdDeviation="3.5"/><feColorMatrix values="0 0 0 0 0.294118 0 0 0 0 0.415686 0 0 0 0 0.964706 0 0 0 0.12 0"/><feBlend in2="BackgroundImageFix" result="effect1_dropShadow_1602_23"/><feBlend in="SourceGraphic" in2="effect1_dropShadow_1602_23" result="shape"/></filter><filter id="f" x="349.047" y="323.641" width="345.953" height="70.5" filterUnits="userSpaceOnUse" color-interpolation-filters="sRGB"><feFlood flood-opacity="0" result="BackgroundImageFix"/><feColorMatrix in="SourceAlpha" values="0 0 0 0 0 0 0 0 0 0 0 0 0 0 0 0 0 0 127 0" result="hardAlpha"/><feOffset dx="5" dy="19"/><feGaussianBlur stdDeviation="8"/><feColorMatrix values="0 0 0 0 0.137255 0 0 0 0 0.188235 0 0 0 0 0.419608 0 0 0 0.23 0"/><feBlend in2="BackgroundImageFix" result="effect1_dropShadow_1602_23"/><feBlend in="SourceGraphic" in2="effect1_dropShadow_1602_23" result="shape"/></filter><filter id="h" x="68.156" y="224.906" width="318.453" height="77.5" filterUnits="userSpaceOnUse" color-interpolation-filters="sRGB"><feFlood flood-opacity="0" result="BackgroundImageFix"/><feColorMatrix in="SourceAlpha" values="0 0 0 0 0 0 0 0 0 0 0 0 0 0 0 0 0 0 127 0" result="hardAlpha"/><feOffset dx="11" dy="22"/><feGaussianBlur stdDeviation="10"/><feColorMatrix values="0 0 0 0 0.137255 0 0 0 0 0.188235 0 0 0 0 0.419608 0 0 0 0.2 0"/><feBlend in2="BackgroundImageFix" result="effect1_dropShadow_1602_23"/><feBlend in="SourceGraphic" in2="effect1_dropShadow_1602_23" result="shape"/></filter></defs></svg>