<svg width="33" height="13" viewBox="0 0 33 13" fill="none" xmlns="http://www.w3.org/2000/svg">
<path id="Vector" fill-rule="evenodd" clip-rule="evenodd" d="M-6.06059e-07 6.5C-6.1443e-07 6.69152 0.0746844 6.87519 0.207626 7.01062C0.340567 7.14604 0.520873 7.22212 0.708881 7.22212L30.5786 7.22212L26.1169 11.7657C25.9838 11.9013 25.909 12.0852 25.909 12.277C25.909 12.4687 25.9838 12.6526 26.1169 12.7882C26.25 12.9238 26.4305 13 26.6188 13C26.807 13 26.9876 12.9238 27.1207 12.7882L32.7917 7.01126C32.8578 6.94418 32.9101 6.8645 32.9459 6.77677C32.9816 6.68904 33 6.59498 33 6.5C33 6.40502 32.9816 6.31097 32.9459 6.22324C32.9101 6.13551 32.8578 6.05582 32.7917 5.98874L27.1207 0.211771C27.0548 0.144631 26.9765 0.0913732 26.8904 0.0550374C26.8043 0.0187016 26.712 -2.74857e-07 26.6188 -2.78931e-07C26.4305 -2.8716e-07 26.25 0.076176 26.1169 0.211771C25.9838 0.347366 25.909 0.531273 25.909 0.723033C25.909 0.914793 25.9838 1.0987 26.1169 1.23429L30.5786 5.77788L0.708881 5.77788C0.520873 5.77788 0.340567 5.85396 0.207626 5.98938C0.0746844 6.12481 -5.97687e-07 6.30848 -6.06059e-07 6.5Z" fill="#66FCF1"/>
</svg>
