<svg width="420" height="420" viewBox="0 0 420 420" fill="none" xmlns="http://www.w3.org/2000/svg">
<path d="M359.802 51.511C359.402 51.511 359.002 51.8109 359.002 52.3109V62.611C320.502 23.511 266.802 -0.589051 207.502 0.0109486C149.202 0.610949 96.6017 25.211 58.8017 64.311C58.5017 64.611 58.5017 65.1109 58.9017 65.4109C59.2017 65.7109 59.6017 65.611 59.9017 65.311C97.3017 26.511 149.502 2.11095 207.302 1.51095C266.102 0.910949 319.502 24.811 357.802 63.611H348.102C347.702 63.611 347.302 63.9109 347.302 64.4109C347.302 64.9109 347.602 65.211 348.102 65.211H359.702C360.102 65.211 360.502 64.9109 360.502 64.4109V52.4109C360.502 51.8109 360.202 51.511 359.802 51.511Z" fill="#66FCF1"/>
<path d="M374.902 352.311C374.902 352.711 374.602 353.111 374.102 353.111H362.102C361.702 353.111 361.302 352.811 361.302 352.311V340.711C361.302 340.311 361.602 339.911 362.102 339.911C362.502 339.911 362.902 340.211 362.902 340.711V350.411C397.002 313.311 417.902 263.811 417.902 209.611C417.902 156.211 397.702 107.511 364.602 70.7109C364.302 70.4109 364.402 69.9109 364.702 69.7109C365.002 69.4109 365.502 69.4109 365.802 69.8109C399.202 106.911 419.502 156.011 419.502 209.711C419.502 264.411 398.402 314.311 364.002 351.711H374.302C374.602 351.511 374.902 351.911 374.902 352.311Z" fill="#66FCF1"/>
<path d="M356.802 358.911C318.902 396.211 266.902 419.311 209.702 419.311C149.302 419.311 94.8019 393.611 56.5019 352.611V362.711C56.5019 363.111 56.2019 363.511 55.7019 363.511C55.2019 363.511 54.9019 363.211 54.9019 362.711V350.711C54.9019 350.311 55.2019 349.911 55.7019 349.911H67.3019C67.7019 349.911 68.1019 350.211 68.1019 350.711C68.1019 351.211 67.8019 351.511 67.3019 351.511H57.5019C95.5019 392.311 149.702 417.811 209.702 417.811C266.602 417.811 318.102 394.911 355.802 357.811C356.102 357.511 356.502 357.511 356.802 357.811C357.102 358.111 357.102 358.611 356.802 358.911Z" fill="#66FCF1"/>
<path d="M55.4015 81.5108C55.4015 81.9108 55.1015 82.3108 54.6015 82.3108C54.2015 82.3108 53.8015 82.0108 53.8015 81.5108L53.7015 71.8108C21.2015 108.711 1.30149 157.311 1.50149 210.211C1.70149 261.311 20.3015 308.211 51.2015 344.411C51.5015 344.711 51.4015 345.111 51.1015 345.411C50.8015 345.711 50.3015 345.711 50.0015 345.411C19.0015 308.911 0.101486 261.711 0.00148602 210.211C-0.198514 156.811 19.8015 107.911 52.8015 70.7108H42.7015C42.3015 70.7108 41.9015 70.4108 41.9015 70.0108C41.9015 69.6108 42.2015 69.2108 42.7015 69.2108L54.6015 69.1108C54.8015 69.1108 55.0015 69.2108 55.1015 69.3108C55.2015 69.5108 55.3015 69.6108 55.3015 69.8108L55.4015 81.5108Z" fill="#66FCF1"/>
</svg>
