<svg width="10" height="6" viewBox="0 0 10 6" fill="none" xmlns="http://www.w3.org/2000/svg">
<g id="Group 431">
<path id="Vector" d="M5.31153 5.51789L9.88116 0.72193C9.95744 0.641907 10 0.535591 10 0.425033C10 0.314475 9.95744 0.208159 9.88116 0.128136L9.876 0.122972C9.83901 0.0840445 9.7945 0.0530471 9.74516 0.0318653C9.69582 0.0106834 9.64269 -0.000239885 9.589 -0.00023989C9.5353 -0.000239894 9.48217 0.0106834 9.43283 0.0318652C9.38349 0.0530471 9.33898 0.0840445 9.302 0.122972L4.99914 4.63925L0.698007 0.122972C0.661026 0.0840437 0.616512 0.0530463 0.567172 0.0318645C0.517833 0.0106826 0.464701 -0.000240687 0.411007 -0.000240692C0.357313 -0.000240697 0.304181 0.0106826 0.254842 0.0318644C0.205503 0.0530463 0.160988 0.0840437 0.124007 0.122972L0.118843 0.128136C0.0425579 0.208158 1.65724e-06 0.314474 1.64758e-06 0.425032C1.63791e-06 0.53559 0.0425578 0.641906 0.118843 0.721929L4.68847 5.51789C4.72866 5.56007 4.77699 5.59365 4.83054 5.61659C4.88409 5.63954 4.94174 5.65137 5 5.65137C5.05826 5.65137 5.11591 5.63954 5.16946 5.61659C5.22301 5.59365 5.27134 5.56007 5.31153 5.51789Z" />
</g>
</svg>
