<svg  viewBox="0 0 140 140" fill="none" xmlns="http://www.w3.org/2000/svg">
<g transform="translate(-24 -18) scale(1.1)">
<g filter="url(#filter0_bd_1054_3574)">
<path d="M126.794 86.3342C129.606 63.773 113.597 43.2035 91.0356 40.391C68.4744 37.5786 47.9049 53.5881 45.0924 76.1493C42.28 98.7105 58.2895 119.28 80.8507 122.092C103.412 124.905 123.981 108.895 126.794 86.3342Z" fill="#53DFD5"/>
</g>
<path d="M70.1096 95.8904C72.2174 98 75.6122 98 82.4 98H89.6C96.3878 98 99.7826 98 101.89 95.8904C104 93.7826 104 90.3878 104 83.6C104 81.494 104 79.7156 103.937 78.2M101.89 71.3096C99.7826 69.2 96.3878 69.2 89.6 69.2H82.4C75.6122 69.2 72.2174 69.2 70.1096 71.3096C68 73.4174 68 76.8122 68 83.6C68 85.706 68 87.4844 68.063 89M86 62C89.3948 62 91.0904 62 92.1452 63.0548C93.2 64.1096 93.2 65.8052 93.2 69.2M79.8548 63.0548C78.8 64.1096 78.8 65.8052 78.8 69.2" stroke="#28303C" stroke-width="3" stroke-linecap="round"/>
<path d="M86.0009 89.5995C87.9899 89.5995 89.6009 88.2567 89.6009 86.6007C89.6009 84.9447 87.9899 83.6001 86.0009 83.6001C84.0119 83.6001 82.4009 82.2573 82.4009 80.5995C82.4009 78.9435 84.0119 77.6007 86.0009 77.6007M86.0009 89.5995C84.0119 89.5995 82.4009 88.2567 82.4009 86.6007M86.0009 89.5995V90.8001M86.0009 77.6007V76.4001M86.0009 77.6007C87.9899 77.6007 89.6009 78.9435 89.6009 80.5995" stroke="#28303C" stroke-width="3" stroke-linecap="round"/>
<path d="M138.853 87.5887C138.72 88.6612 138.555 89.7223 138.36 90.7711L138.852 90.8623C138.385 93.3788 137.746 95.8255 136.951 98.1917L136.477 98.0324C135.787 100.083 134.978 102.073 134.059 103.994L134.51 104.21C133.413 106.504 132.16 108.703 130.767 110.793L130.351 110.515C129.156 112.307 127.858 114.018 126.466 115.642L126.845 115.967C125.197 117.889 123.418 119.689 121.523 121.356L121.193 120.98C119.582 122.397 117.886 123.717 116.117 124.931L116.399 125.343C114.319 126.771 112.137 128.054 109.869 129.18L109.647 128.732C107.731 129.683 105.753 130.522 103.724 131.239L103.891 131.711C101.522 132.548 99.0838 133.223 96.5903 133.724L96.492 133.234C94.4035 133.653 92.2761 133.949 90.1188 134.114L90.1569 134.612C87.6677 134.802 85.1392 134.82 82.5851 134.656L82.6173 134.157C81.5529 134.088 80.4839 133.987 79.4113 133.853C78.3388 133.72 77.2777 133.555 76.229 133.36L76.1377 133.852C73.6213 133.385 71.1746 132.746 68.8083 131.951L68.9677 131.477C66.9169 130.787 64.9272 129.978 63.0056 129.059L62.7898 129.51C60.4956 128.413 58.2974 127.16 56.2072 125.767L56.4845 125.351C54.6933 124.157 52.982 122.858 51.3583 121.466L51.0327 121.845C49.111 120.197 47.3108 118.418 45.6445 116.523L46.0199 116.193C44.6026 114.582 43.283 112.886 42.0689 111.117L41.6566 111.399C40.2293 109.319 38.9464 107.137 37.8204 104.869L38.2682 104.647C37.3168 102.731 36.4784 100.753 35.7606 98.7239L35.2892 98.8906C34.4516 96.5223 33.7766 94.0838 33.2761 91.5904L33.7663 91.492C33.3471 89.4035 33.0515 87.2761 32.8865 85.1188L32.388 85.1569C32.1976 82.6678 32.1795 80.1392 32.3445 77.5851L32.8434 77.6173C32.9122 76.5529 33.013 75.4839 33.1467 74.4113C33.2804 73.3388 33.4451 72.2777 33.6398 71.229L33.1482 71.1377C33.6154 68.6213 34.2536 66.1746 35.0493 63.8083L35.5232 63.9677C36.2128 61.9169 37.0216 59.9272 37.9407 58.0056L37.4897 57.7898C38.587 55.4956 39.84 53.2974 41.2334 51.2072L41.6494 51.4845C42.8435 49.6933 44.1418 47.982 45.5345 46.3583L45.155 46.0328C46.8032 44.111 48.5825 42.3108 50.4769 40.6445L50.8071 41.0199C52.4185 39.6026 54.1139 38.283 55.8835 37.0689L55.6007 36.6566C57.6811 35.2293 59.863 33.9464 62.1306 32.8204L62.3529 33.2682C64.2689 32.3168 66.2465 31.4784 68.2761 30.7606L68.1094 30.2892C70.4778 29.4516 72.9162 28.7766 75.4097 28.2761L75.5081 28.7663C77.5966 28.3471 79.724 28.0515 81.8812 27.8865L81.8431 27.388C84.3323 27.1976 86.8608 27.1796 89.4149 27.3445L89.3827 27.8434C90.4472 27.9122 91.5162 28.013 92.5887 28.1467C93.6612 28.2804 94.7223 28.4451 95.7711 28.6398L95.8623 28.1482C98.3788 28.6154 100.825 29.2536 103.192 30.0493L103.032 30.5232C105.083 31.2128 107.073 32.0217 108.994 32.9408L109.21 32.4897C111.504 33.587 113.703 34.84 115.793 36.2334L115.515 36.6494C117.307 37.8435 119.018 39.1418 120.642 40.5345L120.967 40.155C122.889 41.8032 124.689 43.5825 126.356 45.4769L125.98 45.8071C127.397 47.4185 128.717 49.1139 129.931 50.8835L130.343 50.6007C131.771 52.6811 133.054 54.863 134.18 57.1306L133.732 57.3529C134.683 59.2689 135.522 61.2465 136.239 63.2761L136.711 63.1094C137.548 65.4778 138.223 67.9163 138.724 70.4097L138.234 70.5081C138.653 72.5966 138.949 74.724 139.114 76.8812L139.612 76.8431C139.802 79.3323 139.82 81.8608 139.656 84.4149L139.157 84.3827C139.088 85.4472 138.987 86.5162 138.853 87.5887Z" stroke="#53DFD5" stroke-dasharray="6 7"/>
</g>
<defs>
<filter id="filter0_bd_1054_3574" x="-5.22803" y="-9.92944" width="182.342" height="182.342" filterUnits="userSpaceOnUse" color-interpolation-filters="sRGB">
<feFlood flood-opacity="0" result="BackgroundImageFix"/>
<feGaussianBlur in="BackgroundImageFix" stdDeviation="25"/>
<feComposite in2="SourceAlpha" operator="in" result="effect1_backgroundBlur_1054_3574"/>
<feColorMatrix in="SourceAlpha" type="matrix" values="0 0 0 0 0 0 0 0 0 0 0 0 0 0 0 0 0 0 127 0" result="hardAlpha"/>
<feOffset dy="4"/>
<feGaussianBlur stdDeviation="22"/>
<feComposite in2="hardAlpha" operator="out"/>
<feColorMatrix type="matrix" values="0 0 0 0 0 0 0 0 0 0 0 0 0 0 0 0 0 0 0.05 0"/>
<feBlend mode="normal" in2="effect1_backgroundBlur_1054_3574" result="effect2_dropShadow_1054_3574"/>
<feBlend mode="normal" in="SourceGraphic" in2="effect2_dropShadow_1054_3574" result="shape"/>
</filter>
</defs>
</svg>
