<svg width="108" height="108" viewBox="0 0 108 108" fill="none" xmlns="http://www.w3.org/2000/svg">
<path d="M94.7938 58.8591C97.6063 36.2979 81.5968 15.7284 59.0356 12.916C36.4744 10.1035 15.9049 26.113 13.0924 48.6742C10.28 71.2354 26.2895 91.8049 48.8507 94.6173C71.4119 97.4298 91.9814 81.4203 94.7938 58.8591Z" fill="#53DFD5"/>
<path fill-rule="evenodd" clip-rule="evenodd" d="M57.8168 35.6478C56.9188 35.527 55.7257 35.5249 54 35.5249C53.4477 35.5249 53 35.0772 53 34.5249C53 33.9726 53.4477 33.5249 54 33.5249L54.0724 33.5249C55.7082 33.5249 57.0365 33.5248 58.0834 33.6657C59.1747 33.8125 60.1083 34.1286 60.8523 34.8726C61.5963 35.6166 61.9124 36.5503 62.0592 37.6415C62.1735 38.4911 62.195 39.5261 62.1991 40.7604C63.4956 40.795 64.6342 40.8631 65.6335 40.9975C67.705 41.2761 69.3271 41.8559 70.5978 43.1277C70.9882 43.5184 70.9879 44.1516 70.5972 44.5419C70.2065 44.9323 69.5733 44.932 69.183 44.5413C68.3459 43.7035 67.2166 43.2285 65.3669 42.9797C63.4884 42.727 61.0222 42.7249 57.6 42.7249H50.4C46.9778 42.7249 44.5116 42.727 42.6331 42.9797C40.7833 43.2285 39.6541 43.7035 38.817 44.5413C37.9792 45.3784 37.5036 46.5083 37.2548 48.358C37.0021 50.2365 37 52.7027 37 56.1249C37 58.2377 37.0002 59.993 37.0621 61.4834C37.0851 62.0352 36.6563 62.5011 36.1045 62.524C35.5527 62.547 35.0868 62.1182 35.0639 61.5664C35 60.0301 35 58.2345 35 56.143L35 56.048C35 52.7193 35 50.1186 35.2726 48.0914C35.5512 46.02 36.1309 44.3981 37.4025 43.1274C38.6732 41.8558 40.2951 41.2761 42.3665 40.9975C43.3658 40.8631 44.5044 40.795 45.8009 40.7604C45.805 39.5261 45.8265 38.4911 45.9408 37.6415C46.0876 36.5503 46.4037 35.6166 47.1477 34.8726C47.5382 34.4821 48.1714 34.4821 48.5619 34.8726C48.9524 35.2631 48.9524 35.8963 48.5619 36.2868C48.2511 36.5976 48.0398 37.0392 47.9229 37.9081C47.8269 38.6223 47.8058 39.5231 47.8013 40.7301C48.5916 40.7249 49.4312 40.7249 50.3231 40.7249H57.6769C58.5688 40.7249 59.4084 40.7249 60.1987 40.7301C60.1942 39.5231 60.1731 38.6223 60.0771 37.9081C59.9602 37.0392 59.7489 36.5976 59.4381 36.2868C59.1273 35.976 58.6857 35.7647 57.8168 35.6478ZM71.8955 49.7258C72.4473 49.7028 72.9132 50.1316 72.9361 50.6834C73 52.2198 73 54.0154 73 56.107V56.2018C73 59.5305 73 62.1312 72.7274 64.1584C72.4488 66.2298 71.8691 67.8517 70.5975 69.1224C69.3268 70.394 67.7049 70.9737 65.6335 71.2523C63.6063 71.5249 61.0056 71.5249 57.6769 71.5249H50.3231C46.9944 71.5249 44.3937 71.5249 42.3665 71.2523C40.295 70.9737 38.6729 70.3939 37.4022 69.1221C37.0118 68.7314 37.0121 68.0982 37.4028 67.7079C37.7935 67.3175 38.4267 67.3178 38.817 67.7085C39.6541 68.5463 40.7833 69.0213 42.6331 69.2701C44.5116 69.5228 46.9778 69.5249 50.4 69.5249H57.6C61.0222 69.5249 63.4884 69.5228 65.3669 69.2701C67.2166 69.0213 68.3459 68.5463 69.183 67.7085C70.0208 66.8714 70.4964 65.7416 70.7452 63.8918C70.9979 62.0133 71 59.5471 71 56.1249C71 54.0121 70.9998 52.2568 70.9379 50.7664C70.9149 50.2146 71.3437 49.7487 71.8955 49.7258Z" fill="#28303C"/>
<path fill-rule="evenodd" clip-rule="evenodd" d="M54.0014 47.925C54.5537 47.925 55.0014 48.3728 55.0014 48.925V49.223C56.9583 49.6064 58.6014 51.0922 58.6014 53.1244C58.6014 53.6767 58.1537 54.1244 57.6014 54.1244C57.0491 54.1244 56.6014 53.6767 56.6014 53.1244C56.6014 52.1839 55.6168 51.1256 54.0014 51.1256C52.386 51.1256 51.4014 52.1839 51.4014 53.1244C51.4014 54.0672 52.3864 55.125 54.0014 55.125C56.3648 55.125 58.6014 56.7549 58.6014 59.1256C58.6014 61.1579 56.9583 62.6437 55.0014 63.0271V63.3251C55.0014 63.8773 54.5537 64.3251 54.0014 64.3251C53.4491 64.3251 53.0014 63.8773 53.0014 63.3251V63.0271C51.0444 62.6437 49.4014 61.1579 49.4014 59.1256C49.4014 58.5734 49.8491 58.1256 50.4014 58.1256C50.9537 58.1256 51.4014 58.5734 51.4014 59.1256C51.4014 60.0662 52.386 61.1245 54.0014 61.1245C55.6168 61.1245 56.6014 60.0662 56.6014 59.1256C56.6014 58.1844 55.6159 57.125 54.0014 57.125C51.6383 57.125 49.4014 55.4973 49.4014 53.1244C49.4014 51.0922 51.0444 49.6064 53.0014 49.223V48.925C53.0014 48.3728 53.4491 47.925 54.0014 47.925Z" fill="#28303C"/>
<path fill-rule="evenodd" clip-rule="evenodd" d="M57.011 0.0966489L56.9516 1.09486C55.8967 1.03199 54.8333 1.0001 53.7624 1.0001C52.6915 1.0001 51.6281 1.03199 50.5732 1.09486L50.5137 0.0966568C51.5884 0.0326016 52.6716 0.00011624 53.7624 0.000116193C54.8532 0.000116145 55.9364 0.0325938 57.011 0.0966489ZM43.0055 1.07647L43.2045 2.05644C41.1042 2.48296 39.0493 3.03423 37.0479 3.70218L36.7313 2.75363C38.771 2.07291 40.8652 1.51111 43.0055 1.07647ZM29.7362 5.65429C27.7928 6.62672 25.9166 7.71344 24.1163 8.90564L24.6685 9.73938C26.4353 8.56932 28.2766 7.50284 30.1836 6.54856L29.7362 5.65429ZM18.1111 13.5201L18.7745 14.2684C17.1837 15.6788 15.6787 17.1838 14.2683 18.7746L13.52 18.1113C14.957 16.4905 16.4903 14.9571 18.1111 13.5201ZM8.90552 24.1165L9.73925 24.6686C8.56919 26.4354 7.50271 28.2767 6.54844 30.1838L5.65416 29.7363C6.6266 27.7929 7.71332 25.9167 8.90552 24.1165ZM2.75351 36.7314L3.70206 37.048C3.03411 39.0495 2.48284 41.1043 2.05632 43.2046L1.07635 43.0056C1.51099 40.8653 2.07279 38.7712 2.75351 36.7314ZM0.0965345 50.5139L1.09474 50.5734C1.03187 51.6282 0.999978 52.6916 0.999978 53.7625C0.999978 54.8334 1.03187 55.8968 1.09474 56.9517L0.0965351 57.0112C0.0324817 55.9365 -2.30235e-06 54.8533 -2.35003e-06 53.7625C-2.39771e-06 52.6717 0.0324814 51.5885 0.0965345 50.5139ZM1.07635 64.5194L2.05632 64.3204C2.48284 66.4207 3.03411 68.4756 3.70206 70.477L2.75351 70.7936C2.07279 68.7539 1.51099 66.6597 1.07635 64.5194ZM5.65417 77.7888L6.54844 77.3413C7.50272 79.2483 8.5692 81.0896 9.73926 82.8564L8.90552 83.4086C7.71333 81.6083 6.62661 79.7321 5.65417 77.7888ZM13.52 89.4138L14.2683 88.7504C15.6787 90.3412 17.1837 91.8462 18.7745 93.2566L18.1112 94.0049C16.4904 92.5679 14.957 91.0346 13.52 89.4138ZM24.1163 98.6194L24.6685 97.7856C26.4353 98.9557 28.2766 100.022 30.1836 100.976L29.7362 101.871C27.7928 100.898 25.9166 99.8116 24.1163 98.6194ZM36.7313 104.771L37.0479 103.823C39.0494 104.491 41.1042 105.042 43.2045 105.469L43.0055 106.449C40.8652 106.014 38.7711 105.452 36.7313 104.771ZM50.5138 107.428C51.5884 107.492 52.6716 107.525 53.7624 107.525C54.8532 107.525 55.9364 107.492 57.0111 107.428L56.9516 106.43C55.8967 106.493 54.8333 106.525 53.7624 106.525C52.6915 106.525 51.6281 106.493 50.5733 106.43L50.5138 107.428ZM64.5193 106.449L64.3203 105.469C66.4206 105.042 68.4755 104.491 70.4769 103.823L70.7935 104.771C68.7538 105.452 66.6596 106.014 64.5193 106.449ZM77.7887 101.871L77.3412 100.976C79.2482 100.022 81.0895 98.9557 82.8563 97.7856L83.4085 98.6194C81.6082 99.8116 79.732 100.898 77.7887 101.871ZM89.4137 94.0049L88.7503 93.2566C90.3411 91.8462 91.8461 90.3412 93.2565 88.7504L94.0048 89.4138C92.5678 91.0346 91.0345 92.5679 89.4137 94.0049ZM98.6193 83.4086L97.7855 82.8564C98.9556 81.0896 100.022 79.2483 100.976 77.3413L101.871 77.7887C100.898 79.7321 99.8115 81.6083 98.6193 83.4086ZM104.771 70.7936L103.823 70.477C104.491 68.4756 105.042 66.4207 105.468 64.3204L106.448 64.5194C106.014 66.6597 105.452 68.7539 104.771 70.7936ZM107.428 57.0111L106.43 56.9517C106.493 55.8968 106.525 54.8334 106.525 53.7625C106.525 52.6916 106.493 51.6282 106.43 50.5733L107.428 50.5139C107.492 51.5885 107.525 52.6717 107.525 53.7625C107.525 54.8533 107.492 55.9365 107.428 57.0111ZM106.448 43.0056L105.468 43.2046C105.042 41.1043 104.491 39.0494 103.823 37.048L104.771 36.7314C105.452 38.7711 106.014 40.8653 106.448 43.0056ZM101.871 29.7363C100.898 27.7929 99.8115 25.9167 98.6193 24.1164L97.7855 24.6686C98.9556 26.4354 100.022 28.2767 100.976 30.1837L101.871 29.7363ZM94.0048 18.1112L93.2565 18.7746C91.8461 17.1838 90.3411 15.6788 88.7503 14.2684L89.4137 13.5201C91.0344 14.9571 92.5678 16.4904 94.0048 18.1112ZM83.4085 8.90563L82.8563 9.73937C81.0895 8.56931 79.2482 7.50283 77.3412 6.54855L77.7886 5.65428C79.732 6.62671 81.6082 7.71343 83.4085 8.90563ZM70.7935 2.75362L70.4769 3.70217C68.4754 3.03422 66.4206 2.48295 64.3203 2.05644L64.5193 1.07646C66.6596 1.51111 68.7538 2.0729 70.7935 2.75362Z" fill="#53DFD5"/>
</svg>
