<svg viewBox="0 0 140 140" fill="none" xmlns="http://www.w3.org/2000/svg">
<g transform="translate(-24 -18) scale(1.1)">
<g filter="url(#filter0_bd_1054_3547)">
<path d="M126.794 86.3342C129.606 63.773 113.597 43.2035 91.0356 40.391C68.4744 37.5786 47.9049 53.5881 45.0924 76.1493C42.28 98.7105 58.2895 119.28 80.8507 122.092C103.412 124.905 123.981 108.895 126.794 86.3342Z" fill="#53DFD5"/>
</g>
<path d="M82.8056 104.949C82.7801 104.936 82.7546 104.911 82.7291 104.898C81.3893 104.413 81.0193 103.877 81.0193 102.448C81.0193 101.619 81.0193 100.789 81.0193 99.96C81.0193 99.3475 80.8789 99.1561 80.3047 98.9902C78.8119 98.5564 77.3828 97.9695 76.0303 97.2167C75.5454 96.9487 75.2902 96.987 74.8819 97.3953C74.2184 98.046 73.5804 98.7095 72.9169 99.3603C71.96 100.304 70.7861 100.317 69.8291 99.373C68.7445 98.3012 67.66 97.2167 66.5754 96.1193C65.6312 95.1624 65.644 93.9885 66.5754 93.0315C67.2262 92.368 67.8897 91.73 68.5404 91.0665C68.9615 90.6455 68.9997 90.3903 68.7063 89.8799C67.9535 88.5401 67.3793 87.1238 66.9454 85.6565C66.7796 85.0823 66.5882 84.9419 65.9885 84.9419C65.0443 84.9419 64.1001 84.9419 63.1686 84.9419C61.9309 84.9292 61.0378 84.087 61.025 82.8494C60.9995 81.2544 60.9995 79.6595 61.025 78.0645C61.0505 76.8524 61.9309 75.9975 63.1431 75.9975C64.1001 75.9847 65.057 75.9975 66.014 75.9975C66.5882 75.9975 66.7923 75.8443 66.9454 75.3084C67.3665 73.8156 67.9535 72.3865 68.719 71.034C68.9997 70.5364 68.9615 70.2812 68.5659 69.8856C67.9152 69.2221 67.2517 68.5841 66.6009 67.9206C65.6312 66.9382 65.6312 65.7643 66.5882 64.7945C67.6472 63.7227 68.719 62.6509 69.8036 61.5791C70.7733 60.6094 71.9472 60.6222 72.9297 61.5919C73.5804 62.2299 74.2184 62.8806 74.8564 63.5186C75.303 63.9524 75.5326 63.9907 76.0813 63.6845C77.3955 62.9572 78.7736 62.383 80.2154 61.9619C80.8789 61.7705 80.9937 61.6046 80.9937 60.9029C80.9937 59.9842 80.9937 59.0527 80.9937 58.134C81.0065 56.9474 81.8359 56.0542 83.0225 56.0287C84.643 55.9904 86.2762 55.9904 87.8967 56.0287C89.1088 56.0542 89.9255 56.9474 89.9382 58.1723C89.9382 59.1165 89.9382 60.048 89.9382 60.9922C89.9382 61.5919 90.0786 61.7833 90.6528 61.9492C92.1073 62.3702 93.5109 62.9444 94.8379 63.6845C95.4121 64.0034 95.6418 63.9779 96.1011 63.5058C96.7518 62.8678 97.3771 62.2171 98.0278 61.5791C98.9848 60.6349 100.159 60.6349 101.116 61.5791C102.2 62.6509 103.285 63.7355 104.369 64.8328C105.314 65.7898 105.301 66.9637 104.344 67.9206C103.706 68.5714 103.055 69.2094 102.417 69.8473C101.971 70.2939 101.932 70.5236 102.226 71.0723C102.966 72.412 103.553 73.8283 103.974 75.3084C104.14 75.8826 104.331 76.0102 104.943 76.023C105.837 76.023 106.73 76.023 107.623 76.023C108.822 76.023 109.473 76.5078 109.843 77.6562C109.856 77.72 109.907 77.771 109.932 77.8221C109.932 78.2049 109.932 78.5877 109.932 78.9704C109.894 79.0215 109.843 79.0598 109.818 79.1236C109.639 79.4043 109.397 79.5701 109.065 79.4808C108.708 79.3915 108.554 79.1236 108.542 78.7663C108.529 78.5621 108.542 78.3452 108.529 78.1411C108.503 77.6562 108.287 77.4138 107.789 77.401C106.947 77.3883 106.105 77.401 105.25 77.3883C105.033 77.3883 104.803 77.3755 104.586 77.3627C103.604 77.2607 102.979 76.712 102.711 75.7805C102.353 74.5173 101.881 73.3052 101.269 72.1441C101.167 71.9527 101.052 71.7485 100.95 71.5571C100.49 70.664 100.618 69.7708 101.32 69.0562C101.983 68.3672 102.672 67.7037 103.349 67.0275C103.808 66.5681 103.821 66.2109 103.361 65.7515C102.315 64.6925 101.269 63.6462 100.21 62.5999C99.7503 62.1406 99.3931 62.1406 98.9337 62.5871C98.283 63.2251 97.645 63.8759 97.007 64.5138C96.1521 65.3687 95.2845 65.4963 94.2382 64.9094C92.9495 64.1948 91.597 63.6334 90.1806 63.2379C89.1599 62.9444 88.6112 62.2554 88.5729 61.1836C88.5474 60.2649 88.5729 59.3334 88.5602 58.4148C88.5474 57.5854 88.3688 57.4195 87.5267 57.4195C86.0976 57.4195 84.6557 57.4195 83.2267 57.4195C82.5504 57.4195 82.3335 57.6237 82.3207 58.2999C82.308 59.1803 82.3207 60.048 82.308 60.9284C82.2952 62.2809 81.8231 62.9316 80.5344 63.3017C79.1819 63.6972 77.8932 64.2331 76.6555 64.9221C75.5837 65.5218 74.716 65.3942 73.8484 64.5266C73.2104 63.9014 72.5852 63.2634 71.9472 62.6382C71.4623 62.1661 71.1306 62.1661 70.6457 62.6382C69.5994 63.6717 68.5659 64.7052 67.5324 65.7515C67.0603 66.2364 67.0603 66.5681 67.5451 67.053C68.1831 67.7037 68.8339 68.3417 69.4718 68.9797C70.2885 69.8091 70.4161 70.6895 69.8546 71.723C69.1529 72.9862 68.6042 74.3004 68.2086 75.6785C67.8641 76.8524 67.2134 77.3755 65.9885 77.401C65.0825 77.4265 64.1766 77.401 63.2579 77.4138C63.1048 77.4138 62.9262 77.4138 62.7858 77.4648C62.4668 77.5797 62.3392 77.8476 62.3392 78.1794C62.3392 79.736 62.3392 81.3054 62.3392 82.8621C62.3392 83.3725 62.5817 83.6149 63.1048 83.6277C63.998 83.6405 64.8912 83.6277 65.7843 83.6277C67.1879 83.6405 67.8259 84.1126 68.2214 85.4523C68.6042 86.7793 69.1273 88.0297 69.8036 89.2419C70.4288 90.3775 70.314 91.2196 69.408 92.1383C68.7828 92.7763 68.1448 93.4015 67.5196 94.0395C67.0858 94.4861 67.073 94.8434 67.5069 95.2772C68.5659 96.3362 69.625 97.408 70.684 98.4543C71.1178 98.8882 71.4751 98.8882 71.9217 98.4543C72.5852 97.8036 73.2359 97.1401 73.8867 96.4894C74.716 95.66 75.5964 95.5324 76.6172 96.0938C77.8932 96.7956 79.2202 97.357 80.6237 97.7653C81.7721 98.0971 82.2825 98.7733 82.2952 99.96C82.308 100.866 82.2952 101.785 82.308 102.691C82.3207 103.418 82.5249 103.622 83.265 103.622C84.7195 103.622 86.1614 103.622 87.616 103.622C88.3177 103.622 88.5347 103.418 88.5474 102.716C88.5602 101.823 88.5474 100.93 88.5602 100.037C88.5729 98.7606 89.0706 98.1226 90.3082 97.7526C91.648 97.357 92.924 96.8339 94.1361 96.1576C95.2972 95.5196 96.1139 95.6345 97.0581 96.5787C97.6705 97.1911 98.2702 97.8036 98.8827 98.4033C99.3676 98.8882 99.7121 98.9009 100.184 98.4288C101.243 97.3825 102.289 96.3362 103.336 95.2772C103.782 94.8179 103.782 94.4733 103.323 94.0012C102.672 93.3377 102.009 92.6998 101.358 92.0363C100.567 91.2452 100.427 90.352 100.963 89.3823C101.69 88.068 102.264 86.69 102.672 85.2354C102.966 84.1891 103.68 83.666 104.841 83.6277C105.735 83.6022 106.628 83.6277 107.521 83.6149C108.325 83.6149 108.503 83.4235 108.503 82.6324C108.503 82.4921 108.491 82.339 108.516 82.1986C108.554 81.8669 108.708 81.6244 109.039 81.5351C109.358 81.4458 109.588 81.5989 109.779 81.8414C109.83 81.9051 109.869 81.9689 109.92 82.0327C109.92 82.4155 109.92 82.7983 109.92 83.1811C109.894 83.2321 109.843 83.2832 109.83 83.347C109.46 84.4953 108.81 84.9674 107.61 84.9802C106.704 84.9802 105.798 84.9802 104.88 84.9802C104.318 84.9802 104.114 85.1333 103.961 85.682C103.527 87.1749 102.94 88.5912 102.187 89.9564C101.907 90.4541 101.958 90.7093 102.353 91.1048C103.004 91.7683 103.668 92.4063 104.306 93.0698C105.275 94.0523 105.275 95.2134 104.318 96.1959C103.259 97.2677 102.187 98.3395 101.103 99.4113C100.12 100.381 98.9592 100.368 97.9768 99.3985C97.326 98.7606 96.688 98.1098 96.0501 97.4718C95.6035 97.0253 95.3738 96.9997 94.8251 97.306C93.4854 98.046 92.0691 98.633 90.6017 99.054C90.0531 99.2071 89.8999 99.4113 89.8999 99.9727C89.8999 100.764 89.8999 101.568 89.8999 102.359C89.8999 103.954 89.6065 104.4 88.1391 104.974C88.1264 104.974 88.1136 104.987 88.1008 105C86.3783 104.949 84.5919 104.949 82.8056 104.949Z" fill="#28303C" stroke="#28303C" stroke-width="0.5"/>
<path d="M85.869 93.8864C79.0427 93.8992 73.454 89.2419 72.2801 82.8877C70.9148 75.5126 75.84 68.4693 83.2533 67.1934C83.4447 67.1551 83.6361 67.1423 83.8275 67.1551C84.172 67.1679 84.44 67.4103 84.4783 67.7293C84.5165 68.0228 84.2869 68.3673 83.9679 68.4438C83.6489 68.5204 83.3044 68.5587 82.9854 68.6352C78.0219 69.6943 74.2833 73.688 73.5178 78.728C72.5863 84.8909 76.6949 90.8624 82.8195 92.2404C89.5821 93.7588 96.1916 89.3185 97.391 82.4538C98.5266 75.9465 94.0479 69.6305 87.5278 68.5587C87.3492 68.5331 87.1833 68.5076 87.0174 68.4566C86.6857 68.3673 86.456 68.0483 86.4815 67.7548C86.5198 67.4103 86.8005 67.1296 87.1705 67.1679C87.783 67.2444 88.4082 67.3082 88.9951 67.4868C94.3669 69.1456 97.7099 72.7438 98.718 78.2687C100.019 85.4013 95.0815 92.3553 87.9616 93.6312C87.145 93.7844 86.3156 93.8354 85.869 93.8864Z" fill="#28303C" stroke="#28303C" stroke-width="0.5"/>
<path d="M93.4085 77.4266C93.4085 78.3835 93.1789 78.9705 92.7195 79.4426C90.5376 81.6372 88.3685 83.8319 86.1611 86.001C85.1914 86.958 83.6857 86.9707 82.6905 86.0265C81.1466 84.5464 79.6409 83.0408 78.1608 81.4969C77.1911 80.4889 77.2804 78.9194 78.2629 77.9625C79.2582 76.9927 80.7765 76.9672 81.7973 77.9242C82.5756 78.6515 83.3157 79.4298 84.0685 80.1826C84.4003 80.5144 84.413 80.5144 84.7448 80.1826C86.1611 78.7663 87.5774 77.3373 89.0065 75.9337C89.8614 75.0788 90.9842 74.8874 91.9922 75.4106C92.9237 75.8827 93.383 76.6738 93.4085 77.4266ZM78.8498 79.953C78.9264 80.0933 79.0157 80.4251 79.2199 80.6292C80.6617 82.0966 82.1163 83.5512 83.5709 84.993C83.8644 85.2865 84.2599 85.4523 84.6682 85.2992C84.9744 85.1844 85.2552 84.993 85.4848 84.7633C87.4881 82.7856 89.4786 80.7823 91.4691 78.7918C91.6094 78.6515 91.7498 78.5239 91.8519 78.358C92.1198 77.9497 92.1326 77.5159 91.9029 77.0948C91.6732 76.6865 91.3032 76.4951 90.8311 76.4951C90.3973 76.4951 90.091 76.7503 89.8103 77.031C88.2409 78.6132 86.6587 80.1826 85.0765 81.7648C84.5534 82.288 84.2727 82.288 83.7495 81.7648C82.9584 80.9737 82.1673 80.1826 81.3762 79.4043C81.1721 79.2002 80.9807 78.9832 80.751 78.8174C80.3555 78.5239 79.9089 78.5111 79.4878 78.728C79.0668 78.945 78.8626 79.3022 78.8498 79.953Z" fill="#28303C" stroke="#28303C" stroke-width="0.5"/>
<path d="M89.4149 27.3445C86.8608 27.1795 84.3323 27.1976 81.8431 27.388L81.8812 27.8865C79.724 28.0515 77.5965 28.3471 75.5081 28.7663L75.4097 28.2761C72.9162 28.7766 70.4778 29.4516 68.1094 30.2892L68.2761 30.7606C66.2465 31.4784 64.2689 32.3168 62.3529 33.2682L62.1305 32.8204C59.863 33.9464 57.681 35.2293 55.6007 36.6566L55.8835 37.0689C54.1139 38.283 52.4185 39.6026 50.8071 41.0199L50.4769 40.6445C48.5825 42.3108 46.8032 44.111 45.1549 46.0328L45.5345 46.3583C44.1418 47.982 42.8435 49.6933 41.6494 51.4845L41.2334 51.2072C39.84 53.2974 38.587 55.4956 37.4897 57.7898L37.9407 58.0056C37.0216 59.9272 36.2128 61.9169 35.5232 63.9677L35.0493 63.8083C34.2536 66.1746 33.6154 68.6213 33.1482 71.1377L33.6398 71.229C33.4451 72.2777 33.2804 73.3388 33.1467 74.4113C33.013 75.4839 32.9122 76.5529 32.8434 77.6173L32.3445 77.5851C32.1795 80.1392 32.1976 82.6677 32.388 85.1569L32.8865 85.1188C33.0515 87.2761 33.3471 89.4035 33.7663 91.492L33.2761 91.5904C33.7766 94.0838 34.4516 96.5223 35.2892 98.8906L35.7606 98.7239C36.4784 100.753 37.3168 102.731 38.2682 104.647L37.8204 104.869C38.9464 107.137 40.2293 109.319 41.6566 111.399L42.0689 111.117C43.283 112.886 44.6026 114.582 46.0199 116.193L45.6445 116.523C47.3108 118.418 49.111 120.197 51.0328 121.845L51.3583 121.466C52.982 122.858 54.6933 124.157 56.4845 125.351L56.2072 125.767C58.2974 127.16 60.4956 128.413 62.7898 129.51L63.0056 129.059C64.9272 129.978 66.9169 130.787 68.9677 131.477L68.8083 131.951C71.1746 132.746 73.6213 133.385 76.1377 133.852L76.229 133.36C77.2777 133.555 78.3388 133.72 79.4113 133.853C80.4839 133.987 81.5529 134.088 82.6173 134.157L82.5851 134.656C85.1392 134.82 87.6678 134.802 90.1569 134.612L90.1188 134.114C92.2761 133.949 94.4035 133.653 96.492 133.234L96.5904 133.724C99.0838 133.223 101.522 132.548 103.891 131.711L103.724 131.239C105.753 130.522 107.731 129.683 109.647 128.732L109.869 129.18C112.137 128.054 114.319 126.771 116.399 125.343L116.117 124.931C117.886 123.717 119.582 122.397 121.193 120.98L121.523 121.356C123.418 119.689 125.197 117.889 126.845 115.967L126.466 115.642C127.858 114.018 129.156 112.307 130.351 110.515L130.767 110.793C132.16 108.703 133.413 106.504 134.51 104.21L134.059 103.994C134.978 102.073 135.787 100.083 136.477 98.0324L136.951 98.1917C137.746 95.8254 138.385 93.3787 138.852 90.8623L138.36 90.771C138.555 89.7223 138.72 88.6612 138.853 87.5887C138.987 86.5162 139.088 85.4471 139.157 84.3827L139.656 84.4149C139.82 81.8608 139.802 79.3323 139.612 76.8431L139.114 76.8812C138.949 74.724 138.653 72.5965 138.234 70.5081L138.724 70.4097C138.223 67.9162 137.548 65.4778 136.711 63.1094L136.239 63.2761C135.522 61.2465 134.683 59.2689 133.732 57.3529L134.18 57.1306C133.054 54.863 131.771 52.681 130.343 50.6007L129.931 50.8835C128.717 49.1139 127.397 47.4185 125.98 45.8071L126.356 45.4769C124.689 43.5825 122.889 41.8032 120.967 40.155L120.642 40.5345C119.018 39.1418 117.307 37.8435 115.515 36.6494L115.793 36.2334C113.703 34.84 111.504 33.587 109.21 32.4897L108.994 32.9407C107.073 32.0216 105.083 31.2128 103.032 30.5232L103.192 30.0493C100.825 29.2536 98.3788 28.6154 95.8623 28.1482L95.771 28.6398C94.7223 28.4451 93.6612 28.2804 92.5887 28.1467C91.5162 28.013 90.4471 27.9122 89.3827 27.8434L89.4149 27.3445Z" stroke="#53DFD5" stroke-dasharray="6 7"/>
</g>
<defs>
<filter id="filter0_bd_1054_3547" x="-5.22803" y="-9.92946" width="182.342" height="182.342" filterUnits="userSpaceOnUse" color-interpolation-filters="sRGB">
<feFlood flood-opacity="0" result="BackgroundImageFix"/>
<feGaussianBlur in="BackgroundImageFix" stdDeviation="25"/>
<feComposite in2="SourceAlpha" operator="in" result="effect1_backgroundBlur_1054_3547"/>
<feColorMatrix in="SourceAlpha" type="matrix" values="0 0 0 0 0 0 0 0 0 0 0 0 0 0 0 0 0 0 127 0" result="hardAlpha"/>
<feOffset dy="4"/>
<feGaussianBlur stdDeviation="22"/>
<feComposite in2="hardAlpha" operator="out"/>
<feColorMatrix type="matrix" values="0 0 0 0 0 0 0 0 0 0 0 0 0 0 0 0 0 0 0.05 0"/>
<feBlend mode="normal" in2="effect1_backgroundBlur_1054_3547" result="effect2_dropShadow_1054_3547"/>
<feBlend mode="normal" in="SourceGraphic" in2="effect2_dropShadow_1054_3547" result="shape"/>
</filter>
</defs>
</svg>
