<svg viewBox="0 0 108 108" fill="none" xmlns="http://www.w3.org/2000/svg">
<path d="M94.7938 59.3344C97.6063 36.7732 81.5968 16.2038 59.0356 13.3913C36.4744 10.5788 15.9049 26.5883 13.0924 49.1495C10.28 71.7108 26.2895 92.2802 48.8507 95.0927C71.4119 97.9052 91.9814 81.8956 94.7938 59.3344Z" fill="#53DFD5"/>
<path d="M50.8056 77.9492C50.7801 77.9364 50.7546 77.9109 50.7291 77.8982C49.3893 77.4133 49.0193 76.8774 49.0193 75.4483C49.0193 74.619 49.0193 73.7896 49.0193 72.9602C49.0193 72.3477 48.8789 72.1564 48.3047 71.9905C46.8119 71.5567 45.3828 70.9697 44.0303 70.2169C43.5454 69.9489 43.2902 69.9872 42.8819 70.3955C42.2184 71.0463 41.5804 71.7098 40.9169 72.3605C39.96 73.3047 38.7861 73.3175 37.8291 72.3733C36.7445 71.3015 35.66 70.2169 34.5754 69.1196C33.6312 68.1626 33.644 66.9887 34.5754 66.0318C35.2262 65.3683 35.8897 64.7303 36.5404 64.0668C36.9615 63.6457 36.9997 63.3905 36.7063 62.8801C35.9535 61.5404 35.3793 60.1241 34.9454 58.6567C34.7796 58.0825 34.5882 57.9422 33.9885 57.9422C33.0443 57.9422 32.1001 57.9422 31.1686 57.9422C29.9309 57.9294 29.0378 57.0873 29.025 55.8496C28.9995 54.2547 28.9995 52.6597 29.025 51.0648C29.0505 49.8526 29.9309 48.9977 31.1431 48.9977C32.1001 48.9849 33.057 48.9977 34.014 48.9977C34.5882 48.9977 34.7923 48.8446 34.9454 48.3087C35.3665 46.8158 35.9535 45.3867 36.719 44.0342C36.9997 43.5366 36.9615 43.2814 36.5659 42.8859C35.9152 42.2224 35.2517 41.5844 34.6009 40.9209C33.6312 39.9384 33.6312 38.7645 34.5882 37.7948C35.6472 36.723 36.719 35.6512 37.8036 34.5794C38.7733 33.6096 39.9472 33.6224 40.9297 34.5921C41.5804 35.2301 42.2184 35.8809 42.8564 36.5188C43.303 36.9527 43.5326 36.9909 44.0813 36.6847C45.3955 35.9574 46.7736 35.3832 48.2154 34.9622C48.8789 34.7708 48.9937 34.6049 48.9937 33.9031C48.9937 32.9844 48.9937 32.053 48.9937 31.1343C49.0065 29.9476 49.8359 29.0545 51.0225 29.029C52.643 28.9907 54.2762 28.9907 55.8967 29.029C57.1088 29.0545 57.9255 29.9476 57.9382 31.1726C57.9382 32.1168 57.9382 33.0482 57.9382 33.9924C57.9382 34.5921 58.0786 34.7835 58.6528 34.9494C60.1073 35.3705 61.5109 35.9446 62.8379 36.6847C63.4121 37.0037 63.6418 36.9782 64.1011 36.5061C64.7518 35.8681 65.3771 35.2174 66.0278 34.5794C66.9848 33.6352 68.1586 33.6352 69.1156 34.5794C70.2002 35.6512 71.2847 36.7357 72.3693 37.8331C73.3135 38.79 73.3008 39.9639 72.3438 40.9209C71.7058 41.5716 71.0551 42.2096 70.4171 42.8476C69.9705 43.2942 69.9322 43.5238 70.2257 44.0725C70.9658 45.4123 71.5527 46.8286 71.9738 48.3087C72.1396 48.8829 72.331 49.0105 72.9435 49.0232C73.8367 49.0232 74.7298 49.0232 75.623 49.0232C76.8224 49.0232 77.4731 49.5081 77.8432 50.6565C77.8559 50.7202 77.907 50.7713 77.9325 50.8223C77.9325 51.2051 77.9325 51.5879 77.9325 51.9707C77.8942 52.0217 77.8432 52.06 77.8177 52.1238C77.639 52.4045 77.3966 52.5704 77.0648 52.4811C76.7076 52.3918 76.5545 52.1238 76.5417 51.7665C76.5289 51.5624 76.5417 51.3455 76.5289 51.1413C76.5034 50.6565 76.2865 50.414 75.7889 50.4013C74.9467 50.3885 74.1046 50.4013 73.2497 50.3885C73.0328 50.3885 72.8031 50.3757 72.5862 50.363C71.6037 50.2609 70.9785 49.7122 70.7106 48.7808C70.3533 47.5176 69.8812 46.3054 69.2687 45.1443C69.1667 44.9529 69.0518 44.7488 68.9497 44.5574C68.4904 43.6642 68.618 42.771 69.3198 42.0565C69.9833 41.3675 70.6723 40.704 71.3485 40.0277C71.8079 39.5684 71.8206 39.2111 71.3613 38.7518C70.315 37.6927 69.2687 36.6464 68.2097 35.6001C67.7503 35.1408 67.3931 35.1408 66.9337 35.5874C66.283 36.2254 65.645 36.8761 65.007 37.5141C64.1521 38.369 63.2845 38.4966 62.2382 37.9096C60.9495 37.1951 59.597 36.6337 58.1806 36.2381C57.1599 35.9446 56.6112 35.2556 56.5729 34.1838C56.5474 33.2651 56.5729 32.3337 56.5602 31.415C56.5474 30.5856 56.3688 30.4197 55.5267 30.4197C54.0976 30.4197 52.6557 30.4197 51.2267 30.4197C50.5504 30.4197 50.3335 30.6239 50.3207 31.3002C50.308 32.1806 50.3207 33.0482 50.308 33.9286C50.2952 35.2812 49.8231 35.9319 48.5344 36.3019C47.1819 36.6975 45.8932 37.2334 44.6555 37.9224C43.5837 38.5221 42.716 38.3945 41.8484 37.5268C41.2104 36.9016 40.5852 36.2636 39.9472 35.6384C39.4623 35.1663 39.1306 35.1663 38.6457 35.6384C37.5994 36.6719 36.5659 37.7055 35.5324 38.7518C35.0603 39.2366 35.0603 39.5684 35.5451 40.0532C36.1831 40.704 36.8339 41.342 37.4718 41.9799C38.2885 42.8093 38.4161 43.6897 37.8546 44.7232C37.1529 45.9864 36.6042 47.3007 36.2086 48.6787C35.8641 49.8526 35.2134 50.3757 33.9885 50.4013C33.0825 50.4268 32.1766 50.4013 31.2579 50.414C31.1048 50.414 30.9262 50.414 30.7858 50.4651C30.4668 50.5799 30.3392 50.8478 30.3392 51.1796C30.3392 52.7363 30.3392 54.3057 30.3392 55.8624C30.3392 56.3727 30.5817 56.6152 31.1048 56.6279C31.998 56.6407 32.8912 56.6279 33.7843 56.6279C35.1879 56.6407 35.8259 57.1128 36.2214 58.4526C36.6042 59.7796 37.1273 61.03 37.8036 62.2422C38.4288 63.3778 38.314 64.2199 37.408 65.1386C36.7828 65.7766 36.1448 66.4018 35.5196 67.0398C35.0858 67.4863 35.073 67.8436 35.5069 68.2774C36.5659 69.3365 37.625 70.4083 38.684 71.4546C39.1178 71.8884 39.4751 71.8884 39.9217 71.4546C40.5852 70.8038 41.2359 70.1403 41.8867 69.4896C42.716 68.6602 43.5964 68.5326 44.6172 69.0941C45.8932 69.7958 47.2202 70.3573 48.6237 70.7656C49.7721 71.0973 50.2825 71.7736 50.2952 72.9602C50.308 73.8661 50.2952 74.7848 50.308 75.6908C50.3207 76.4181 50.5249 76.6222 51.265 76.6222C52.7195 76.6222 54.1614 76.6222 55.616 76.6222C56.3177 76.6222 56.5347 76.4181 56.5474 75.7163C56.5602 74.8231 56.5474 73.9299 56.5602 73.0368C56.5729 71.7608 57.0706 71.1228 58.3082 70.7528C59.648 70.3573 60.924 69.8341 62.1361 69.1579C63.2972 68.5199 64.1139 68.6347 65.0581 69.5789C65.6705 70.1914 66.2702 70.8038 66.8827 71.4035C67.3676 71.8884 67.7121 71.9012 68.1842 71.4291C69.2432 70.3828 70.2895 69.3365 71.3358 68.2774C71.7824 67.8181 71.7824 67.4736 71.323 67.0015C70.6723 66.338 70.0088 65.7 69.358 65.0365C68.567 64.2454 68.4266 63.3522 68.9625 62.3825C69.6898 61.0683 70.264 59.6902 70.6723 58.2356C70.9658 57.1894 71.6803 56.6662 72.8414 56.6279C73.7346 56.6024 74.6278 56.6279 75.5209 56.6152C76.3248 56.6152 76.5034 56.4238 76.5034 55.6327C76.5034 55.4923 76.4907 55.3392 76.5162 55.1989C76.5545 54.8671 76.7076 54.6247 77.0393 54.5354C77.3583 54.446 77.588 54.5992 77.7794 54.8416C77.8304 54.9054 77.8687 54.9692 77.9197 55.033C77.9197 55.4158 77.9197 55.7986 77.9197 56.1814C77.8942 56.2324 77.8432 56.2834 77.8304 56.3472C77.4604 57.4956 76.8096 57.9677 75.6102 57.9805C74.7043 57.9805 73.7984 57.9805 72.8797 57.9805C72.3183 57.9805 72.1141 58.1336 71.961 58.6822C71.5272 60.1751 70.9402 61.5914 70.1874 62.9567C69.9067 63.4543 69.9577 63.7095 70.3533 64.1051C71.004 64.7686 71.6675 65.4065 72.3055 66.07C73.2752 67.0525 73.2752 68.2136 72.3183 69.1961C71.2592 70.2679 70.1874 71.3397 69.1029 72.4115C68.1204 73.3813 66.9592 73.3685 65.9768 72.3988C65.326 71.7608 64.688 71.1101 64.0501 70.4721C63.6035 70.0255 63.3738 70 62.8251 70.3062C61.4854 71.0463 60.0691 71.6332 58.6017 72.0543C58.0531 72.2074 57.8999 72.4115 57.8999 72.973C57.8999 73.7641 57.8999 74.5679 57.8999 75.359C57.8999 76.954 57.6065 77.4005 56.1391 77.9747C56.1264 77.9747 56.1136 77.9875 56.1008 78.0002C54.3783 77.9492 52.5919 77.9492 50.8056 77.9492Z" fill="#28303C" stroke="#28303C" stroke-width="0.5"/>
<path d="M53.869 66.8868C47.0427 66.8995 41.454 62.2423 40.2801 55.888C38.9148 48.5129 43.84 41.4697 51.2533 40.1937C51.4447 40.1554 51.6361 40.1427 51.8275 40.1554C52.172 40.1682 52.44 40.4106 52.4783 40.7296C52.5165 41.0231 52.2869 41.3676 51.9679 41.4441C51.6489 41.5207 51.3044 41.559 50.9854 41.6355C46.0219 42.6946 42.2833 46.6883 41.5178 51.7284C40.5863 57.8912 44.6949 63.8627 50.8195 65.2408C57.5821 66.7592 64.1916 62.3188 65.391 55.4542C66.5266 48.9468 62.0479 42.6308 55.5278 41.559C55.3492 41.5335 55.1833 41.5079 55.0174 41.4569C54.6857 41.3676 54.456 41.0486 54.4815 40.7551C54.5198 40.4106 54.8005 40.1299 55.1705 40.1682C55.783 40.2447 56.4082 40.3085 56.9951 40.4872C62.3669 42.1459 65.7099 45.7441 66.718 51.269C68.0194 58.4016 63.0815 65.3556 55.9616 66.6316C55.145 66.7847 54.3156 66.8357 53.869 66.8868Z" fill="#28303C" stroke="#28303C" stroke-width="0.5"/>
<path d="M61.408 50.4269C61.408 51.3839 61.1784 51.9708 60.719 52.4429C58.5371 54.6376 56.368 56.8322 54.1606 59.0014C53.1909 59.9583 51.6852 59.9711 50.69 59.0269C49.1461 57.5468 47.6405 56.0411 46.1603 54.4972C45.1906 53.4892 45.2799 51.9198 46.2624 50.9628C47.2577 49.9931 48.7761 49.9676 49.7968 50.9245C50.5752 51.6518 51.3152 52.4302 52.068 53.183C52.3998 53.5147 52.4125 53.5147 52.7443 53.183C54.1606 51.7667 55.5769 50.3376 57.006 48.9341C57.8609 48.0792 58.9837 47.8878 59.9917 48.4109C60.9232 48.883 61.3825 49.6741 61.408 50.4269ZM46.8494 52.9533C46.9259 53.0937 47.0152 53.4254 47.2194 53.6296C48.6612 55.0969 50.1158 56.5515 51.5704 57.9934C51.8639 58.2868 52.2594 58.4527 52.6677 58.2996C52.974 58.1847 53.2547 57.9934 53.4843 57.7637C55.4876 55.7859 57.4781 53.7827 59.4686 51.7922C59.6089 51.6518 59.7493 51.5242 59.8514 51.3584C60.1193 50.9501 60.1321 50.5162 59.9024 50.0952C59.6727 49.6869 59.3027 49.4955 58.8306 49.4955C58.3968 49.4955 58.0906 49.7507 57.8098 50.0314C56.2404 51.6136 54.6582 53.183 53.076 54.7652C52.5529 55.2883 52.2722 55.2883 51.749 54.7652C50.9579 53.9741 50.1668 53.183 49.3758 52.4047C49.1716 52.2005 48.9802 51.9836 48.7505 51.8177C48.355 51.5242 47.9084 51.5115 47.4873 51.7284C47.0663 51.9453 46.8621 52.3026 46.8494 52.9533Z" fill="#28303C" stroke="#28303C" stroke-width="0.5"/>
<path fill-rule="evenodd" clip-rule="evenodd" d="M57.2484 0.334442L57.1889 1.33265C56.134 1.26978 55.0706 1.23789 53.9997 1.23789C52.9288 1.23789 51.8654 1.26978 50.8105 1.33265L50.7511 0.33445C51.8257 0.270395 52.9089 0.237909 53.9997 0.237909C55.0905 0.237909 56.1737 0.270387 57.2484 0.334442ZM43.2428 1.31426L43.4418 2.29424C41.3415 2.72075 39.2867 3.27202 37.2852 3.93997L36.9686 2.99142C39.0083 2.3107 41.1025 1.7489 43.2428 1.31426ZM29.9735 5.89208C28.0301 6.86451 26.1539 7.95123 24.3536 9.14343L24.9058 9.97717C26.6726 8.80711 28.5139 7.74063 30.4209 6.78635L29.9735 5.89208ZM18.3484 13.7579L19.0118 14.5062C17.421 15.9166 15.916 17.4216 14.5056 19.0124L13.7573 18.3491C15.1943 16.7283 16.7276 15.1949 18.3484 13.7579ZM9.14282 24.3542L9.97656 24.9064C8.8065 26.6732 7.74002 28.5145 6.78574 30.4215L5.89147 29.9741C6.8639 28.0307 7.95062 26.1545 9.14282 24.3542ZM2.99081 36.9692L3.93936 37.2858C3.27141 39.2873 2.72014 41.3421 2.29363 43.4424L1.31365 43.2434C1.7483 41.1031 2.31009 39.009 2.99081 36.9692ZM0.333839 50.7517L1.33205 50.8111C1.26918 51.866 1.23728 52.9294 1.23728 54.0003C1.23728 55.0712 1.26918 56.1346 1.33205 57.1895L0.33384 57.249C0.269786 56.1743 0.237302 55.0911 0.237302 54.0003C0.237302 52.9095 0.269786 51.8263 0.333839 50.7517ZM1.31365 64.7572L2.29363 64.5582C2.72014 66.6585 3.27142 68.7134 3.93937 70.7148L2.99081 71.0314C2.3101 68.9917 1.7483 66.8975 1.31365 64.7572ZM5.89148 78.0265L6.78575 77.5791C7.74003 79.4861 8.80651 81.3274 9.97657 83.0942L9.14283 83.6464C7.95063 81.8461 6.86391 79.9699 5.89148 78.0265ZM13.7573 89.6516L14.5056 88.9882C15.916 90.579 17.421 92.084 19.0118 93.4944L18.3485 94.2427C16.7277 92.8057 15.1943 91.2724 13.7573 89.6516ZM24.3537 98.8572L24.9058 98.0234C26.6726 99.1935 28.5139 100.26 30.421 101.214L29.9735 102.109C28.0301 101.136 26.1539 100.049 24.3537 98.8572ZM36.9686 105.009L37.2852 104.061C39.2867 104.729 41.3415 105.28 43.4418 105.706L43.2428 106.686C41.1025 106.252 39.0084 105.69 36.9686 105.009ZM50.7511 107.666C51.8258 107.73 52.9089 107.763 53.9997 107.763C55.0905 107.763 56.1737 107.73 57.2484 107.666L57.1889 106.668C56.134 106.731 55.0706 106.763 53.9997 106.763C52.9288 106.763 51.8654 106.731 50.8106 106.668L50.7511 107.666ZM64.7567 106.686L64.5576 105.706C66.6579 105.28 68.7128 104.729 70.7142 104.061L71.0308 105.009C68.9911 105.69 66.897 106.252 64.7567 106.686ZM78.026 102.109L77.5785 101.214C79.4855 100.26 81.3268 99.1935 83.0936 98.0234L83.6458 98.8572C81.8455 100.049 79.9693 101.136 78.026 102.109ZM89.651 94.2427L88.9876 93.4944C90.5784 92.084 92.0834 90.579 93.4938 88.9882L94.2421 89.6516C92.8051 91.2723 91.2718 92.8057 89.651 94.2427ZM98.8566 83.6464L98.0228 83.0942C99.1929 81.3274 100.259 79.4861 101.214 77.5791L102.108 78.0265C101.135 79.9699 100.049 81.8461 98.8566 83.6464ZM105.009 71.0314L104.06 70.7148C104.728 68.7133 105.279 66.6585 105.706 64.5582L106.686 64.7572C106.251 66.8975 105.689 68.9917 105.009 71.0314ZM107.666 57.2489L106.667 57.1894C106.73 56.1346 106.762 55.0712 106.762 54.0003C106.762 52.9294 106.73 51.866 106.667 50.8111L107.666 50.7516C107.73 51.8263 107.762 52.9095 107.762 54.0003C107.762 55.0911 107.73 56.1743 107.666 57.2489ZM106.686 43.2434L105.706 43.4424C105.279 41.3421 104.728 39.2872 104.06 37.2858L105.009 36.9692C105.689 39.0089 106.251 41.1031 106.686 43.2434ZM102.108 29.9741C101.135 28.0307 100.049 26.1545 98.8566 24.3542L98.0228 24.9064C99.1929 26.6732 100.259 28.5145 101.214 30.4215L102.108 29.9741ZM94.2421 18.349L93.4938 19.0124C92.0834 17.4216 90.5784 15.9166 88.9876 14.5062L89.651 13.7579C91.2718 15.1949 92.8051 16.7282 94.2421 18.349ZM83.6458 9.14343L83.0936 9.97716C81.3268 8.8071 79.4855 7.74062 77.5785 6.78634L78.0259 5.89207C79.9693 6.8645 81.8455 7.95123 83.6458 9.14343ZM71.0308 2.99141L70.7142 3.93996C68.7128 3.27201 66.6579 2.72075 64.5576 2.29423L64.7566 1.31426C66.8969 1.7489 68.9911 2.31069 71.0308 2.99141Z" fill="#53DFD5"/>
</svg>
