<svg viewBox="0 0 140 140" fill="none" xmlns="http://www.w3.org/2000/svg">
<g transform="translate(-24 -18) scale(1.1)">
    <g filter="url(#a)">
        <path d="M126.64 86.956c2.812-22.561-13.197-43.13-35.759-45.943-22.56-2.812-43.13 13.197-45.943 35.758-2.812 22.561 13.197 43.131 35.758 45.943 22.562 2.813 43.131-13.197 45.944-35.758Z" fill="#53DFD5"/>
    </g>
    <path d="M138.853 88.589a53.279 53.279 0 0 1-.493 3.182l.492.091a53.864 53.864 0 0 1-1.901 7.33l-.474-.16a52.922 52.922 0 0 1-2.418 5.962l.451.216a53.44 53.44 0 0 1-3.743 6.583l-.416-.278a53.411 53.411 0 0 1-3.885 5.127l.379.325a53.942 53.942 0 0 1-5.322 5.389l-.33-.376a53.664 53.664 0 0 1-5.076 3.951l.282.412a53.835 53.835 0 0 1-6.53 3.837l-.222-.448a53.178 53.178 0 0 1-5.923 2.507l.167.472a53.616 53.616 0 0 1-7.3 2.013l-.099-.49a52.907 52.907 0 0 1-6.373.88l.038.498c-2.49.19-5.018.208-7.572.044l.032-.499a54.08 54.08 0 0 1-6.388-.797l-.091.492a53.872 53.872 0 0 1-7.33-1.901l.16-.474a52.96 52.96 0 0 1-5.962-2.418l-.216.451a53.435 53.435 0 0 1-6.583-3.743l.277-.416a53.299 53.299 0 0 1-5.126-3.885l-.325.379a53.89 53.89 0 0 1-5.389-5.322l.376-.33a53.63 53.63 0 0 1-3.951-5.076l-.412.282a53.92 53.92 0 0 1-3.837-6.53l.448-.222a53.25 53.25 0 0 1-2.507-5.923l-.472.167a53.427 53.427 0 0 1-2.013-7.3l.49-.099a52.867 52.867 0 0 1-.88-6.373l-.498.038a53.783 53.783 0 0 1-.044-7.572l.5.032a54.16 54.16 0 0 1 .796-6.388l-.492-.091a53.8 53.8 0 0 1 1.901-7.33l.474.16c.69-2.051 1.499-4.04 2.418-5.962l-.451-.216a53.426 53.426 0 0 1 3.743-6.583l.416.277a53.202 53.202 0 0 1 3.886-5.126l-.38-.325a53.967 53.967 0 0 1 5.322-5.389l.33.376a53.61 53.61 0 0 1 5.076-3.951l-.282-.412a53.981 53.981 0 0 1 6.53-3.837l.222.448a53.212 53.212 0 0 1 5.923-2.507l-.167-.472a53.429 53.429 0 0 1 7.3-2.013l.1.49a52.868 52.868 0 0 1 6.372-.88l-.038-.498c2.49-.19 5.018-.208 7.572-.044l-.032.5a54.144 54.144 0 0 1 6.388.796l.091-.492a53.826 53.826 0 0 1 7.33 1.901l-.16.474a52.802 52.802 0 0 1 5.962 2.418l.216-.451a53.431 53.431 0 0 1 6.583 3.743l-.278.416a53.15 53.15 0 0 1 5.127 3.886l.325-.38a54.027 54.027 0 0 1 5.389 5.322l-.376.33a53.643 53.643 0 0 1 3.951 5.076l.412-.282a53.895 53.895 0 0 1 3.837 6.53l-.448.222a53.133 53.133 0 0 1 2.507 5.923l.472-.167a53.59 53.59 0 0 1 2.013 7.3l-.49.1c.419 2.088.715 4.215.88 6.372l.498-.038c.19 2.49.208 5.018.044 7.572l-.499-.032a54.065 54.065 0 0 1-.304 3.206Z" stroke="#53DFD5" stroke-dasharray="6 7"/>
    <path d="M78.515 99.779c-1.755.676-3.475-.373-3.51-2.402-.118-.023-.236-.07-.365-.093a2.364 2.364 0 0 1-1.79-3.171c.035-.082.058-.175.105-.234.66-.78.507-1.62.248-2.494-.106-.339-.248-.572-.59-.688-.305-.105-.588-.245-.918-.385-.094.175-.165.338-.247.49-.436.85-1.355 1.212-2.238.862a42.133 42.133 0 0 1-2.214-.967c-.907-.432-1.237-1.388-.813-2.332 1.072-2.425 2.155-4.85 3.239-7.275.518-1.154 1.037-2.32 1.555-3.474.483-1.073 1.413-1.434 2.497-.968.647.28 1.295.56 1.931.851.99.455 1.343 1.364.93 2.355-.093.222-.188.455-.282.677 1.142.664 2.273 1.154 3.616.722.683-.21 1.413-.303 2.12-.361.942-.093 1.85.128 2.685.56.189.093.33.128.53.011 1.696-.99 3.463-.99 5.253-.28.519.199 1.049.397 1.567.595.589.221 1.142.186 1.696-.14.27-.163.565-.315.871-.478-.106-.28-.2-.536-.294-.793-.33-.944.07-1.842.99-2.227.682-.28 1.366-.536 2.049-.792 1.072-.408 2.002 0 2.426 1.06a2933.46 2933.46 0 0 1 3.616 9.234c.224.572.459 1.131.671 1.714.401 1.05-.012 1.959-1.06 2.378-.636.257-1.284.502-1.931.747-1.096.407-1.956.046-2.438-1.026-.036-.094-.095-.175-.154-.304-.482.199-.965.385-1.425.595-.082.035-.176.175-.176.257.023 1.189-.578 1.946-1.673 2.39.141.769.059 1.48-.46 2.098-.506.618-1.2.863-2.013.886-.2 1.597-1.13 2.39-2.768 2.378-.047.21-.083.408-.141.607a2.333 2.333 0 0 1-3.263 1.41c-.153-.07-.306-.186-.471-.245-.094-.035-.271-.011-.33.047-1.048 1.166-3.11 1.049-3.98-.595-.013-.011-.024-.023-.06-.058-1.236.338-2.261-.023-2.991-1.142Zm5.618-4.034.589-.035c.565-.023 1.06.151 1.53.478.507.35 1.014.7 1.532 1.014.6.362 1.225.7 1.85 1.026.53.28 1.106.117 1.377-.373.26-.466.094-1.003-.4-1.329-.118-.082-.26-.152-.377-.222-1.201-.676-2.403-1.34-3.604-2.017-.13-.07-.26-.14-.377-.233-.271-.221-.318-.536-.165-.827a.672.672 0 0 1 .79-.315c.14.046.27.116.4.186a790.69 790.69 0 0 1 3.262 1.82c.577.325 1.154.652 1.731.955a.915.915 0 0 0 1.037-.093c.33-.245.436-.583.365-.968-.07-.361-.318-.571-.624-.746-1.178-.653-2.356-1.317-3.534-1.97-.13-.07-.259-.14-.377-.233a.697.697 0 0 1-.176-.863.677.677 0 0 1 .836-.28c.153.058.294.14.436.222 1.178.652 2.355 1.317 3.533 1.97.554.303 1.13.163 1.414-.327.282-.478.117-1.049-.448-1.375a549.136 549.136 0 0 0-5.712-3.218c-.424-.233-.884-.327-1.367-.21-.506.128-1.024.268-1.519.443-.883.303-1.755.676-2.65.945-1.896.56-3.545.128-4.853-1.4-.624-.722-.553-1.212.26-1.702 1.46-.862 2.815-1.865 4.004-3.066.177-.175.365-.326.542-.49-.012-.034-.024-.081-.035-.116-.307-.058-.613-.152-.93-.187-.837-.093-1.65.082-2.439.292-1.307.35-2.556.338-3.745-.362-.248-.151-.53-.233-.837-.373-1.083 2.437-2.155 4.827-3.25 7.275 1.095.408 2.167.781 2.332 2.099.117-.059.153-.082.188-.105 1.378-.944 3.263-.303 3.698 1.27.071.257.236.257.436.245.672-.011 1.249.222 1.696.7.248.256.424.583.66.91 1.366-.187 2.355.314 2.92 1.585Zm10.777-13.29c-.094.023-.118.023-.142.034-.117.058-.247.105-.353.175-1.107.734-2.261.711-3.45.221a39.983 39.983 0 0 0-1.65-.629c-1.248-.431-2.473-.35-3.604.338-.612.373-1.201.793-1.72 1.282a23.879 23.879 0 0 1-3.827 3.02c-.095.058-.165.14-.283.222.542.536 1.142.862 1.884.909.742.047 1.425-.14 2.109-.385.954-.338 1.896-.723 2.85-1.037 1.142-.374 2.25-.257 3.298.384 1.142.688 2.32 1.318 3.474 1.982.825.478 1.638.98 2.45 1.47.07.034.177.07.236.046.53-.21 1.048-.42 1.602-.653-.955-2.483-1.909-4.92-2.874-7.38Zm7.761 7.659c-.047-.163-.07-.245-.106-.327-1.413-3.625-2.838-7.24-4.251-10.865-.165-.408-.307-.467-.719-.315-.577.21-1.154.443-1.731.664-.59.222-.624.303-.4.875 1.06 2.705 2.108 5.398 3.168 8.102.341.886.694 1.76 1.036 2.647.106.268.26.478.589.361a45.18 45.18 0 0 0 2.096-.816c.142-.07.224-.245.318-.326Zm-32.79.338c.106-.093.271-.187.365-.326.142-.222.224-.479.33-.712 1.473-3.287 2.933-6.575 4.405-9.863.271-.594.236-.688-.377-.956-.518-.233-1.048-.454-1.578-.688-.506-.221-.612-.186-.836.327a436.014 436.014 0 0 0-1.531 3.427c-1.049 2.355-2.109 4.71-3.157 7.065-.224.502-.176.607.33.84.553.245 1.095.478 1.649.723.094.058.212.093.4.163Zm8.999 3.486c-.33 0-.59.116-.754.431-.495.886-1.025 1.772-1.52 2.658-.33.595-.164 1.224.378 1.504.53.28 1.118.07 1.436-.524.471-.875.93-1.75 1.379-2.635.341-.688-.154-1.446-.92-1.434Zm2.968 1.562c-.4 0-.66.14-.848.501-.412.781-.813 1.586-1.237 2.367-.177.326-.118.618.07.898.437.606 1.355.56 1.732-.105.412-.735.801-1.493 1.178-2.25.33-.653-.141-1.4-.895-1.411Zm-4.629-2.495c-.047-.49-.318-.851-.777-.99a.997.997 0 0 0-1.178.454c-.306.513-.577 1.05-.86 1.574-.118.233-.247.466-.318.71-.13.467.165.969.648 1.155.471.175.895.035 1.154-.42.365-.63.742-1.259 1.096-1.888.106-.187.164-.397.235-.595Zm8.622 5.06c-.047-.478-.365-.874-.825-.98-.471-.116-.86.059-1.095.502-.354.664-.719 1.329-1.049 2.017-.094.186-.129.454-.082.653.094.396.4.641.813.699.47.07.836-.116 1.072-.524a93.79 93.79 0 0 0 1-1.843c.083-.151.118-.338.166-.524Zm1.401.385-.86 1.772c.2.116.39.233.59.326.459.21.965.047 1.236-.361.27-.42.2-.945-.189-1.26-.247-.186-.518-.326-.777-.477Z" fill="#28303C"/>
    <path d="M95.346 71.215c.094.059.188.129.294.187 1.296.746 2.085 1.854 2.39 3.3.178.827-.082 1.154-.93 1.154h-6.43c-.012.151-.012.256-.024.373-.023.35-.224.56-.565.63-.13.022-.26.022-.4.022-3.122 0-6.243 0-9.364-.011-.248 0-.566-.047-.73-.198-.177-.164-.213-.478-.354-.816h-6.36c-.79 0-1.072-.327-.907-1.096.295-1.446 1.072-2.565 2.356-3.323.106-.07.224-.14.33-.198-.966-1.726-.837-3.078.365-4.046a2.835 2.835 0 0 1 3.615.058c1.166 1.003 1.26 2.356.33 3.93.636.536 1.272 1.06 1.92 1.597.565-.385 1.178-.816 1.802-1.248-1.213-1.9-1.13-3.497.26-4.663a3.23 3.23 0 0 1 4.204.046c1.343 1.178 1.402 2.81.2 4.617.613.42 1.213.84 1.802 1.248.613-.513 1.26-1.05 1.908-1.598-.918-1.667-.8-3.007.389-3.975 1.048-.851 2.591-.84 3.616.046 1.142.968 1.248 2.344.282 3.964Zm-6.266 4.29c-.307-1.76-2.415-3.194-4.394-3.042-1.802.14-3.722 1.702-3.733 3.043h8.127Zm7.408-1.013v-.164a.216.216 0 0 0-.023-.081c-.613-1.306-1.65-2.04-3.098-2.11-1.366-.07-2.438.536-3.18 1.69-.26.396-.094.676.377.676h5.253c.224-.011.436-.011.671-.011Zm-23.026-.024c.188.012.318.023.447.023 1.826 0 3.652 0 5.465-.011.165 0 .425-.07.472-.175.058-.152.023-.397-.083-.548-.718-1.096-1.767-1.667-3.074-1.632-1.366.046-2.403.7-3.05 1.912-.071.116-.106.256-.177.431Zm11.507-3.38c1.025.01 1.873-.794 1.885-1.796.011-.98-.813-1.819-1.802-1.83-1.049-.024-1.909.804-1.909 1.818 0 .98.825 1.796 1.826 1.807Zm6.808-1.773a1.418 1.418 0 0 0 1.437 1.446 1.433 1.433 0 1 0 0-2.868 1.45 1.45 0 0 0-1.437 1.422Zm-13.557.012a1.443 1.443 0 0 0-2.885 0c0 .78.636 1.422 1.425 1.434.813.011 1.46-.63 1.46-1.434Z" fill="#28303C"/>
    <path d="M71 67.508c-.094.128-.188.245-.282.373-1.897 2.81-2.886 5.91-2.957 9.28v.222c-.023.431-.294.723-.671.723-.377 0-.683-.292-.683-.712 0-.606.035-1.224.094-1.83a17.98 17.98 0 0 1 3.121-8.487.627.627 0 0 0 .083-.152c.011-.023 0-.046-.012-.128-.26.07-.507.14-.754.198-.553.152-.942 0-1.048-.408-.118-.42.118-.734.671-.898.778-.221 1.555-.42 2.32-.676.295-.093.59-.256.813-.466 3.062-3.031 6.714-4.873 11.013-5.398 4.558-.56 8.762.466 12.602 2.938.082.058.177.116.26.163.023.012.058.012.152.047-.082-.315-.153-.606-.223-.886-.118-.455.035-.816.4-.921.412-.129.766.081.895.548.295.99.577 1.982.86 2.984.141.513-.106.886-.636.91-1.072.058-2.144.104-3.216.14-.459.011-.753-.28-.753-.677 0-.396.282-.653.765-.676.354-.012.707-.023 1.06-.047.036 0 .083-.035.2-.07-.153-.116-.27-.21-.388-.291-2.438-1.62-5.112-2.611-8.045-2.856-5.406-.455-10.035 1.247-13.91 5.013-.211.21-.306.42-.294.723.047.804.07 1.597.094 2.401.012.525-.247.851-.66.863-.411.012-.694-.315-.706-.828-.012-.361 0-.723 0-1.084a.345.345 0 0 1-.165-.035ZM103.614 76.543c0 .257.011.525 0 .781-.012.467-.283.77-.672.782-.4.011-.695-.303-.695-.781-.023-1.983-.353-3.918-1.071-5.772-.33-.85-.766-1.667-1.155-2.494-.07-.152-.153-.315-.176-.49a.622.622 0 0 1 .471-.7c.341-.093.624.035.777.338.389.735.789 1.47 1.107 2.227a18.426 18.426 0 0 1 1.414 6.11ZM97.195 79.656a.695.695 0 0 1 .706.688.66.66 0 0 1-.647.688c-.4.011-.719-.268-.743-.641-.011-.373.307-.723.684-.735ZM73.226 80.32c-.4 0-.683-.29-.671-.699a.694.694 0 0 1 .671-.676c.365-.012.707.326.707.688 0 .396-.318.7-.707.688Z" fill="#28303C"/>
    </g>
    <defs>
        <filter id="a" x="-5.382" y="-9.307" width="182.342" height="182.342" filterUnits="userSpaceOnUse" color-interpolation-filters="sRGB">
            <feFlood flood-opacity="0" result="BackgroundImageFix"/>
            <feGaussianBlur in="BackgroundImageFix" stdDeviation="25"/>
            <feComposite in2="SourceAlpha" operator="in" result="effect1_backgroundBlur_1338_6"/>
            <feColorMatrix in="SourceAlpha" values="0 0 0 0 0 0 0 0 0 0 0 0 0 0 0 0 0 0 127 0" result="hardAlpha"/>
            <feOffset dy="4"/>
            <feGaussianBlur stdDeviation="22"/>
            <feComposite in2="hardAlpha" operator="out"/>
            <feColorMatrix values="0 0 0 0 0 0 0 0 0 0 0 0 0 0 0 0 0 0 0.05 0"/>
            <feBlend in2="effect1_backgroundBlur_1338_6" result="effect2_dropShadow_1338_6"/>
            <feBlend in="SourceGraphic" in2="effect2_dropShadow_1338_6" result="shape"/>
        </filter>
    </defs>
</svg>
