<svg viewBox="0 0 108 108" fill="none" xmlns="http://www.w3.org/2000/svg">
<path d="M94.7938 59.3342C97.6063 36.773 81.5968 16.2035 59.0356 13.391C36.4744 10.5786 15.9049 26.5881 13.0924 49.1493C10.28 71.7105 26.2895 92.28 48.8507 95.0924C71.4119 97.9049 91.9814 81.8954 94.7938 59.3342Z" fill="#53DFD5"/>
<path fill-rule="evenodd" clip-rule="evenodd" d="M57.011 0.571747L56.9516 1.56996C55.8967 1.50708 54.8333 1.47519 53.7624 1.47519C52.6915 1.47519 51.6281 1.50708 50.5732 1.56996L50.5137 0.571754C51.5884 0.507699 52.6716 0.475214 53.7624 0.475214C54.8532 0.475214 55.9364 0.507691 57.011 0.571747ZM43.0055 1.55156L43.2045 2.53154C41.1042 2.95805 39.0493 3.50933 37.0479 4.17728L36.7313 3.22872C38.771 2.548 40.8652 1.98621 43.0055 1.55156ZM29.7362 6.12939C27.7928 7.10182 25.9166 8.18853 24.1163 9.38073L24.6685 10.2145C26.4353 9.04441 28.2766 7.97794 30.1836 7.02366L29.7362 6.12939ZM18.1111 13.9952L18.7745 14.7435C17.1837 16.1539 15.6787 17.6589 14.2683 19.2497L13.52 18.5864C14.957 16.9656 16.4903 15.4322 18.1111 13.9952ZM8.90552 24.5916L9.73925 25.1437C8.56919 26.9105 7.50271 28.7518 6.54844 30.6589L5.65416 30.2114C6.6266 28.268 7.71332 26.3918 8.90552 24.5916ZM2.75351 37.2065L3.70206 37.5231C3.03411 39.5246 2.48284 41.5794 2.05632 43.6797L1.07635 43.4807C1.51099 41.3404 2.07279 39.2463 2.75351 37.2065ZM0.0965345 50.989L1.09474 51.0484C1.03187 52.1033 0.999978 53.1667 0.999978 54.2376C0.999978 55.3085 1.03187 56.3719 1.09474 57.4268L0.0965351 57.4863C0.0324817 56.4116 -2.30235e-06 55.3284 -2.35003e-06 54.2376C-2.39771e-06 53.1468 0.0324814 52.0636 0.0965345 50.989ZM1.07635 64.9945L2.05632 64.7955C2.48284 66.8958 3.03411 68.9507 3.70206 70.9521L2.75351 71.2687C2.07279 69.229 1.51099 67.1348 1.07635 64.9945ZM5.65417 78.2639L6.54844 77.8164C7.50272 79.7234 8.5692 81.5647 9.73926 83.3315L8.90552 83.8837C7.71333 82.0834 6.62661 80.2072 5.65417 78.2639ZM13.52 89.8889L14.2683 89.2255C15.6787 90.8163 17.1837 92.3213 18.7745 93.7317L18.1112 94.48C16.4904 93.043 14.957 91.5097 13.52 89.8889ZM24.1163 99.0945L24.6685 98.2607C26.4353 99.4308 28.2766 100.497 30.1836 101.452L29.7362 102.346C27.7928 101.373 25.9166 100.287 24.1163 99.0945ZM36.7313 105.246L37.0479 104.298C39.0494 104.966 41.1042 105.517 43.2045 105.944L43.0055 106.924C40.8652 106.489 38.7711 105.927 36.7313 105.246ZM50.5138 107.903C51.5884 107.968 52.6716 108 53.7624 108C54.8532 108 55.9364 107.968 57.0111 107.903L56.9516 106.905C55.8967 106.968 54.8333 107 53.7624 107C52.6915 107 51.6281 106.968 50.5733 106.905L50.5138 107.903ZM64.5193 106.924L64.3203 105.944C66.4206 105.517 68.4755 104.966 70.4769 104.298L70.7935 105.246C68.7538 105.927 66.6596 106.489 64.5193 106.924ZM77.7887 102.346L77.3412 101.452C79.2482 100.497 81.0895 99.4308 82.8563 98.2607L83.4085 99.0945C81.6082 100.287 79.732 101.373 77.7887 102.346ZM89.4137 94.48L88.7503 93.7317C90.3411 92.3213 91.8461 90.8163 93.2565 89.2255L94.0048 89.8889C92.5678 91.5097 91.0345 93.043 89.4137 94.48ZM98.6193 83.8837L97.7855 83.3315C98.9556 81.5647 100.022 79.7234 100.976 77.8164L101.871 78.2638C100.898 80.2072 99.8115 82.0834 98.6193 83.8837ZM104.771 71.2687L103.823 70.9521C104.491 68.9506 105.042 66.8958 105.468 64.7955L106.448 64.9945C106.014 67.1348 105.452 69.229 104.771 71.2687ZM107.428 57.4862L106.43 57.4268C106.493 56.3719 106.525 55.3085 106.525 54.2376C106.525 53.1667 106.493 52.1033 106.43 51.0484L107.428 50.9889C107.492 52.0636 107.525 53.1468 107.525 54.2376C107.525 55.3284 107.492 56.4116 107.428 57.4862ZM106.448 43.4807L105.468 43.6797C105.042 41.5794 104.491 39.5245 103.823 37.5231L104.771 37.2065C105.452 39.2462 106.014 41.3404 106.448 43.4807ZM101.871 30.2114C100.898 28.268 99.8115 26.3918 98.6193 24.5915L97.7855 25.1437C98.9556 26.9105 100.022 28.7518 100.976 30.6588L101.871 30.2114ZM94.0048 18.5863L93.2565 19.2497C91.8461 17.6589 90.3411 16.1539 88.7503 14.7435L89.4137 13.9952C91.0344 15.4322 92.5678 16.9655 94.0048 18.5863ZM83.4085 9.38073L82.8563 10.2145C81.0895 9.0444 79.2482 7.97793 77.3412 7.02365L77.7886 6.12938C79.732 7.10181 81.6082 8.18853 83.4085 9.38073ZM70.7935 3.22871L70.4769 4.17727C68.4754 3.50932 66.4206 2.95805 64.3203 2.53154L64.5193 1.55156C66.6596 1.98621 68.7538 2.548 70.7935 3.22871Z" fill="#53DFD5"/>
<path d="M47.5146 72.7786C45.7597 73.4548 44.0401 72.4055 44.0048 70.377C43.887 70.3537 43.7692 70.307 43.6397 70.2837C42.1792 70.0156 41.3194 68.5 41.8494 67.1126C41.8847 67.031 41.9083 66.9377 41.9554 66.8794C42.615 66.0983 42.4619 65.2589 42.2027 64.3845C42.0967 64.0464 41.9554 63.8133 41.6138 63.6967C41.3076 63.5917 41.0249 63.4518 40.6951 63.3119C40.6009 63.4868 40.5303 63.65 40.4478 63.8016C40.012 64.6527 39.0933 65.0141 38.21 64.6643C37.4562 64.3612 36.7142 64.0348 35.9957 63.6967C35.0888 63.2653 34.759 62.3093 35.183 61.365C36.2548 58.94 37.3384 56.5151 38.422 54.0901C38.9402 52.9359 39.4585 51.7701 39.9767 50.6159C40.4596 49.5433 41.3901 49.1819 42.4736 49.6482C43.1214 49.928 43.7692 50.2078 44.4052 50.4993C45.3946 50.954 45.7479 51.8633 45.3357 52.8543C45.2415 53.0758 45.1473 53.309 45.053 53.5305C46.1955 54.195 47.3262 54.6847 48.6689 54.2533C49.352 54.0435 50.0823 53.9502 50.7889 53.8919C51.7312 53.7986 52.6381 54.0201 53.4743 54.4515C53.6628 54.5448 53.8041 54.5798 54.0044 54.4632C55.7004 53.4722 57.4671 53.4722 59.2574 54.1834C59.7756 54.3816 60.3056 54.5797 60.8239 54.7779C61.4128 54.9995 61.9663 54.9645 62.5199 54.638C62.7908 54.4748 63.0852 54.3233 63.3915 54.16C63.2855 53.8802 63.1912 53.6238 63.097 53.3673C62.7672 52.4229 63.1677 51.5252 64.0864 51.1405C64.7695 50.8607 65.4526 50.6042 66.1358 50.3477C67.2076 49.9397 68.138 50.3477 68.562 51.4086C69.7752 54.4865 70.9765 57.5643 72.1779 60.6422C72.4017 61.2134 72.6372 61.773 72.8493 62.356C73.2497 63.4052 72.8375 64.3146 71.7892 64.7343C71.1532 64.9908 70.5054 65.2356 69.8576 65.4804C68.7623 65.8885 67.9025 65.5271 67.4196 64.4545C67.3842 64.3612 67.3253 64.2796 67.2665 64.1514C66.7836 64.3495 66.3007 64.5361 65.8413 64.7459C65.7589 64.7809 65.6646 64.9208 65.6646 65.0024C65.6882 66.1916 65.0875 66.9494 63.9922 67.3924C64.1335 68.1619 64.051 68.873 63.5328 69.4909C63.0264 70.1088 62.3314 70.3537 61.5188 70.377C61.3185 71.9742 60.3881 72.767 58.7509 72.7553C58.7038 72.9652 58.6685 73.1633 58.6096 73.3615C58.1856 74.7372 56.6544 75.4018 55.3471 74.7722C55.1939 74.7023 55.0408 74.5857 54.8759 74.5274C54.7817 74.4924 54.605 74.5157 54.5461 74.574C53.4979 75.7399 51.4367 75.6233 50.5652 73.9794C50.5534 73.9678 50.5416 73.9561 50.5063 73.9211C49.2696 74.2592 48.2449 73.8978 47.5146 72.7786ZM53.1328 68.7448C53.3448 68.7331 53.5332 68.7215 53.7217 68.7098C54.287 68.6865 54.7817 68.8614 55.2528 69.1878C55.7593 69.5376 56.2657 69.8873 56.784 70.2021C57.3847 70.5635 58.0089 70.9016 58.6331 71.228C59.1631 71.5078 59.7403 71.3446 60.0112 70.855C60.2703 70.3886 60.1054 69.8523 59.6107 69.5259C59.4929 69.4443 59.3516 69.3743 59.2338 69.3044C58.0325 68.6282 56.8311 67.9637 55.6297 67.2875C55.5002 67.2175 55.3706 67.1476 55.2528 67.0543C54.9819 66.8328 54.9348 66.518 55.0879 66.2266C55.2528 65.9468 55.5591 65.8185 55.8771 65.9118C56.0184 65.9584 56.148 66.0284 56.2775 66.0983C57.3729 66.7046 58.4565 67.3108 59.54 67.917C60.1172 68.2435 60.6943 68.5699 61.2714 68.873C61.6248 69.0596 61.9899 69.0246 62.3079 68.7798C62.6377 68.5349 62.7437 68.1968 62.673 67.8121C62.6023 67.4507 62.355 67.2408 62.0488 67.066C60.871 66.4131 59.6932 65.7486 58.5154 65.0957C58.3858 65.0257 58.2562 64.9558 58.1385 64.8625C57.8793 64.6527 57.8087 64.2796 57.9618 63.9998C58.1267 63.72 58.48 63.5917 58.798 63.72C58.9511 63.7783 59.0925 63.8599 59.2338 63.9415C60.4116 64.5944 61.5894 65.2589 62.7672 65.9118C63.3208 66.2149 63.8979 66.075 64.1806 65.5853C64.4633 65.1073 64.2984 64.5361 63.733 64.2096C61.8368 63.1254 59.9287 62.0528 58.0207 60.9919C57.5967 60.7587 57.1373 60.6655 56.6544 60.7821C56.148 60.9103 55.6297 61.0502 55.1351 61.2251C54.2517 61.5282 53.3801 61.9013 52.485 62.1694C50.5887 62.729 48.9398 62.2977 47.6324 60.7704C47.0082 60.0476 47.0789 59.5579 47.8915 59.0683C49.352 58.2055 50.7065 57.2029 51.8961 56.0021C52.0728 55.8272 52.2612 55.6756 52.4379 55.5124C52.4261 55.4775 52.4143 55.4308 52.4025 55.3958C52.0963 55.3376 51.7901 55.2443 51.4721 55.2093C50.6358 55.116 49.8231 55.2909 49.034 55.5008C47.7267 55.8505 46.4782 55.8389 45.2886 55.1394C45.0413 54.9878 44.7586 54.9062 44.4524 54.7663C43.3688 57.2029 42.297 59.5929 41.2016 62.0412C42.297 62.4492 43.3688 62.8223 43.5337 64.1397C43.6514 64.0814 43.6868 64.0581 43.7221 64.0348C45.1001 63.0904 46.9846 63.7316 47.4204 65.3055C47.4911 65.562 47.656 65.562 47.8562 65.5504C48.5276 65.5387 49.1047 65.7719 49.5523 66.2499C49.7996 66.5064 49.9763 66.8328 50.2118 67.1592C51.5781 66.9727 52.5674 67.474 53.1328 68.7448ZM63.9097 55.4541C63.8155 55.4775 63.7919 55.4775 63.7684 55.4891C63.6506 55.5474 63.521 55.594 63.415 55.664C62.3079 56.3985 61.1536 56.3752 59.9641 55.8855C59.4223 55.664 58.8687 55.4541 58.3151 55.2559C57.0667 54.8246 55.8417 54.9062 54.711 55.594C54.0986 55.9671 53.5097 56.3868 52.9914 56.8765C51.8136 58.0073 50.5534 59.0216 49.1636 59.896C49.0694 59.9543 48.9987 60.0359 48.8809 60.1175C49.4227 60.6538 50.0234 60.9803 50.7654 61.0269C51.5074 61.0735 52.1905 60.887 52.8737 60.6422C53.8277 60.3041 54.7699 59.9193 55.724 59.6046C56.8664 59.2315 57.9736 59.3481 59.0218 59.9893C60.1643 60.6771 61.3421 61.3067 62.4963 61.9712C63.3208 62.4492 64.1335 62.9505 64.9462 63.4402C65.0168 63.4752 65.1228 63.5101 65.1817 63.4868C65.7117 63.277 66.23 63.0671 66.7836 62.8339C65.8295 60.3507 64.8755 57.9141 63.9097 55.4541ZM71.6714 63.1138C71.6243 62.9505 71.6008 62.8689 71.5654 62.7873C70.1521 59.1615 68.7269 55.5474 67.3136 51.9216C67.1487 51.5136 67.0073 51.4553 66.5951 51.6068C66.018 51.8167 65.4409 52.0499 64.8637 52.2714C64.2748 52.4929 64.2395 52.5745 64.4633 53.1458C65.5233 55.8505 66.5715 58.5436 67.6316 61.2484C67.9731 62.1344 68.3265 63.0088 68.668 63.8949C68.774 64.163 68.9272 64.3729 69.2569 64.2563C69.9636 63.9998 70.6585 63.7316 71.3534 63.4402C71.4948 63.3702 71.5772 63.1954 71.6714 63.1138ZM38.8813 63.4518C38.9873 63.3586 39.1522 63.2653 39.2464 63.1254C39.3878 62.9039 39.4702 62.6474 39.5762 62.4142C41.0485 59.1266 42.509 55.8389 43.9812 52.5512C44.2521 51.9566 44.2168 51.8633 43.6043 51.5952C43.0861 51.362 42.5561 51.1405 42.0261 50.9073C41.5196 50.6858 41.4136 50.7208 41.1898 51.2338C40.6716 52.3763 40.1651 53.5188 39.6587 54.6614C38.6104 57.0164 37.5504 59.3714 36.5022 61.7264C36.2784 62.2277 36.3255 62.3326 36.8319 62.5658C37.3855 62.8106 37.9273 63.0438 38.4809 63.2886C38.5751 63.3469 38.6929 63.3819 38.8813 63.4518ZM47.8798 66.9377C47.55 66.9377 47.2909 67.0543 47.126 67.3691C46.6313 68.2551 46.1013 69.1412 45.6066 70.0272C45.2768 70.6218 45.4417 71.2514 45.9835 71.5312C46.5135 71.811 47.1024 71.6011 47.4204 71.0065C47.8915 70.1321 48.3509 69.2578 48.7985 68.3717C49.14 67.6839 48.6453 66.9261 47.8798 66.9377ZM50.8478 68.5C50.4474 68.5 50.1883 68.6399 49.9998 69.0013C49.5876 69.7824 49.1871 70.5868 48.7631 71.3679C48.5864 71.6944 48.6453 71.9858 48.8338 72.2656C49.2696 72.8719 50.1883 72.8253 50.5652 72.1607C50.9774 71.4262 51.3661 70.6684 51.743 69.9106C52.0728 69.2578 51.6016 68.5116 50.8478 68.5ZM46.2191 66.005C46.1719 65.5154 45.9011 65.154 45.4417 65.0141C44.9941 64.8742 44.523 65.0374 44.2639 65.4688C43.9577 65.9817 43.6868 66.518 43.4041 67.0427C43.2863 67.2758 43.1568 67.509 43.0861 67.7538C42.9565 68.2202 43.251 68.7215 43.7339 68.908C44.205 69.0829 44.629 68.943 44.8881 68.4883C45.2533 67.8587 45.6302 67.2292 45.9835 66.5996C46.0895 66.4131 46.1484 66.2032 46.2191 66.005ZM54.8406 71.0648C54.7935 70.5868 54.4755 70.1904 54.0161 70.0855C53.545 69.9689 53.1563 70.1438 52.9208 70.5868C52.5674 71.2514 52.2023 71.9159 51.8725 72.6037C51.7783 72.7903 51.743 73.0584 51.7901 73.2566C51.8843 73.653 52.1905 73.8978 52.6028 73.9561C53.0739 74.0261 53.439 73.8395 53.6746 73.4315C54.0161 72.8253 54.3459 72.2074 54.6757 71.5895C54.7582 71.4379 54.7935 71.2514 54.8406 71.0648ZM56.2422 71.4496C55.936 72.0791 55.6651 72.6387 55.3824 73.2216C55.5826 73.3382 55.7711 73.4548 55.9713 73.5481C56.4306 73.7579 56.9371 73.5947 57.208 73.1867C57.4789 72.767 57.4082 72.2423 57.0195 71.9275C56.7722 71.741 56.5013 71.6011 56.2422 71.4496Z" fill="#28303C"/>
<path d="M64.3455 44.2155C64.4398 44.2738 64.534 44.3438 64.64 44.4021C65.9356 45.1482 66.7247 46.2558 67.0309 47.7014C67.2076 48.5292 66.9485 48.8556 66.1005 48.8556C64.1453 48.8556 62.1902 48.8556 60.2232 48.8556C60.0466 48.8556 59.8699 48.8556 59.6697 48.8556C59.6579 49.0072 59.6579 49.1121 59.6461 49.2287C59.6225 49.5784 59.4223 49.7883 59.0808 49.8582C58.9512 49.8815 58.8216 49.8815 58.6803 49.8815C55.5591 49.8815 52.4379 49.8815 49.3167 49.8699C49.0694 49.8699 48.7514 49.8233 48.5865 49.6717C48.4098 49.5085 48.3745 49.1937 48.2332 48.8556C48.1625 48.8556 47.9976 48.8556 47.8327 48.8556C45.8422 48.8556 43.8635 48.8556 41.873 48.8556C41.0839 48.8556 40.8012 48.5292 40.9661 47.7597C41.2606 46.3141 42.0379 45.1948 43.3217 44.437C43.4277 44.3671 43.5455 44.2971 43.6515 44.2388C42.6857 42.5134 42.8153 41.161 44.0166 40.1934C45.0649 39.3423 46.6078 39.3656 47.6325 40.2517C48.7985 41.2543 48.8927 42.6067 47.9623 44.1806C48.5983 44.7168 49.2343 45.2415 49.8821 45.7778C50.4474 45.393 51.0599 44.9617 51.6841 44.5303C50.471 42.63 50.5534 41.0328 51.9432 39.8669C53.1682 38.841 54.9467 38.8643 56.148 39.9136C57.4907 41.0911 57.5496 42.7232 56.3482 44.5303C56.9607 44.95 57.5614 45.3697 58.1503 45.7778C58.7627 45.2648 59.4105 44.7285 60.0583 44.1806C59.1396 42.5134 59.2574 41.1727 60.447 40.205C61.4953 39.354 63.0382 39.3656 64.0629 40.2517C65.2053 41.2193 65.3113 42.595 64.3455 44.2155ZM58.0796 48.5058C57.7734 46.7454 55.6651 45.3114 53.6864 45.463C51.8844 45.6029 49.9645 47.1651 49.9528 48.5058C52.6499 48.5058 55.3589 48.5058 58.0796 48.5058ZM65.488 47.4916C65.488 47.3866 65.488 47.3633 65.488 47.3283C65.488 47.305 65.4762 47.2701 65.4645 47.2467C64.852 45.941 63.8155 45.2065 62.3668 45.1366C61.0006 45.0666 59.9288 45.6728 59.1868 46.827C58.9276 47.2234 59.0925 47.5032 59.5637 47.5032C61.3186 47.5032 63.0617 47.5032 64.8167 47.5032C65.0405 47.4916 65.2525 47.4916 65.488 47.4916ZM42.4619 47.4682C42.6504 47.4799 42.7799 47.4916 42.9095 47.4916C44.7351 47.4916 46.5607 47.4916 48.3745 47.4799C48.5394 47.4799 48.7985 47.41 48.8456 47.305C48.9045 47.1535 48.8692 46.9086 48.7632 46.7571C48.0447 45.6612 46.9965 45.0899 45.6891 45.1249C44.3228 45.1715 43.2864 45.8244 42.6386 47.0369C42.5679 47.1535 42.5326 47.2934 42.4619 47.4682ZM53.9691 44.0873C54.9938 44.0989 55.8418 43.2945 55.8536 42.2919C55.8653 41.3126 55.0409 40.4732 54.0515 40.4615C53.0033 40.4382 52.1435 41.2659 52.1435 42.2802C52.1435 43.2595 52.9679 44.0756 53.9691 44.0873ZM60.7768 42.3152C60.765 43.1196 61.4128 43.7725 62.2137 43.7609C63.0029 43.7609 63.6389 43.1313 63.6506 42.3502C63.6624 41.5457 63.0146 40.8929 62.2137 40.8929C61.4246 40.9045 60.7886 41.5341 60.7768 42.3152ZM47.2202 42.3269C47.2202 41.5457 46.5842 40.9045 45.7951 40.8929C44.9942 40.8812 44.3346 41.5341 44.3346 42.3269C44.3346 43.108 44.9706 43.7492 45.7598 43.7609C46.5725 43.7725 47.2202 43.1313 47.2202 42.3269Z" fill="#28303C"/>
<path d="M39.9997 40.508C39.9055 40.6363 39.8112 40.7529 39.717 40.8811C37.8208 43.6908 36.8314 46.7919 36.7607 50.1612C36.7607 50.2312 36.7607 50.3128 36.7607 50.3828C36.7372 50.8141 36.4663 51.1056 36.0894 51.1056C35.7125 51.1056 35.4062 50.8141 35.4062 50.3944C35.4062 49.7882 35.4416 49.1703 35.5005 48.564C35.8185 45.4745 36.855 42.6415 38.6217 40.0767C38.657 40.03 38.6806 39.9834 38.7041 39.9251C38.7159 39.9018 38.7041 39.8785 38.6923 39.7969C38.4332 39.8668 38.1859 39.9368 37.9385 39.9951C37.385 40.1466 36.9963 39.9951 36.8903 39.587C36.7725 39.1673 37.0081 38.8525 37.5616 38.6893C38.339 38.4678 39.1163 38.2696 39.8819 38.0131C40.1764 37.9199 40.4708 37.7566 40.6946 37.5468C43.7569 34.5156 47.4081 32.6735 51.7071 32.1489C56.2652 31.5893 60.47 32.6152 64.3096 35.0868C64.3921 35.1451 64.4863 35.2034 64.5687 35.2501C64.5923 35.2617 64.6276 35.2617 64.7218 35.2967C64.6394 34.9819 64.5687 34.6905 64.4981 34.4107C64.3803 33.956 64.5334 33.5946 64.8985 33.4896C65.3107 33.3614 65.6641 33.5712 65.7936 34.0376C66.0881 35.0286 66.3708 36.0195 66.6534 37.0221C66.7948 37.5351 66.5474 37.9082 66.0174 37.9315C64.9456 37.9898 63.8738 38.0364 62.802 38.0714C62.3427 38.0831 62.0482 37.7916 62.0482 37.3952C62.0482 36.9988 62.3309 36.7423 62.8138 36.719C63.1671 36.7074 63.5205 36.6957 63.8738 36.6724C63.9092 36.6724 63.9563 36.6374 64.074 36.6024C63.9209 36.4859 63.8032 36.3926 63.6854 36.311C61.2473 34.6905 58.5737 33.6995 55.641 33.4547C50.2348 33 45.606 34.7021 41.7311 38.4678C41.5191 38.6777 41.4248 38.8875 41.4366 39.1906C41.4837 39.9951 41.5073 40.7878 41.5308 41.5923C41.5426 42.1169 41.2835 42.4433 40.8713 42.455C40.459 42.4667 40.1764 42.1402 40.1646 41.6272C40.1528 41.2658 40.1646 40.9044 40.1646 40.543C40.0939 40.543 40.0468 40.5313 39.9997 40.508Z" fill="#28303C"/>
<path d="M72.6137 49.5434C72.6137 49.7999 72.6255 50.068 72.6137 50.3245C72.6019 50.7909 72.331 51.094 71.9424 51.1056C71.5419 51.1173 71.2475 50.8025 71.2475 50.3245C71.2239 48.3426 70.8941 46.4073 70.1757 44.5536C69.8459 43.7025 69.4101 42.8864 69.0214 42.0587C68.9507 41.9071 68.8683 41.7439 68.8447 41.569C68.7976 41.2426 68.9979 40.9511 69.3159 40.8695C69.6574 40.7762 69.9401 40.9045 70.0932 41.2076C70.4819 41.9421 70.8823 42.6766 71.2003 43.4344C72.0248 45.3813 72.4842 47.4216 72.6137 49.5434Z" fill="#28303C"/>
<path d="M66.1952 52.6561C66.5721 52.6444 66.8901 52.9475 66.9018 53.3439C66.9018 53.7287 66.6427 54.0085 66.2541 54.0318C65.8536 54.0434 65.5356 53.7636 65.512 53.3906C65.5003 53.0175 65.8183 52.6677 66.1952 52.6561Z" fill="#28303C"/>
<path d="M42.2264 53.3206C41.8259 53.3206 41.5433 53.0291 41.555 52.6211C41.5668 52.248 41.8613 51.9565 42.2264 51.9449C42.5915 51.9332 42.9331 52.2713 42.9331 52.6327C42.9331 53.0291 42.6151 53.3322 42.2264 53.3206Z" fill="#28303C"/>
</svg>
