<svg viewBox="0 0 108 108" fill="none" xmlns="http://www.w3.org/2000/svg">
<path d="M94.7919 59.3332C97.6044 36.772 81.5949 16.2026 59.0336 13.3901C36.4724 10.5776 15.903 26.5871 13.0905 49.1483C10.278 71.7095 26.2875 92.279 48.8488 95.0915C71.41 97.9039 91.9794 81.8944 94.7919 59.3332Z" fill="#53DFD5"/>
<path fill-rule="evenodd" clip-rule="evenodd" d="M57.2484 0.334205L57.1889 1.33241C56.134 1.26954 55.0706 1.23765 53.9997 1.23765C52.9288 1.23765 51.8654 1.26954 50.8105 1.33241L50.7511 0.334206C51.8257 0.27015 52.9089 0.237665 53.9997 0.237665C55.0905 0.237665 56.1737 0.27015 57.2484 0.334205ZM43.2428 1.31401L43.4418 2.29399C41.3415 2.7205 39.2867 3.27178 37.2852 3.93973L36.9686 2.99117C39.0083 2.31046 41.1025 1.74866 43.2428 1.31401ZM29.9735 5.89184C28.0301 6.86427 26.1539 7.95099 24.3536 9.14319L24.9058 9.97692C26.6726 8.80687 28.5139 7.74039 30.4209 6.78611L29.9735 5.89184ZM18.3484 13.7577L19.0118 14.5059C17.421 15.9163 15.916 17.4214 14.5056 19.0122L13.7573 18.3488C15.1943 16.728 16.7276 15.1946 18.3484 13.7577ZM9.14282 24.354L9.97656 24.9061C8.8065 26.673 7.74002 28.5142 6.78574 30.4213L5.89147 29.9738C6.8639 28.0305 7.95062 26.1543 9.14282 24.354ZM2.99081 36.969L3.93936 37.2855C3.27141 39.287 2.72014 41.3419 2.29363 43.4421L1.31365 43.2431C1.7483 41.1028 2.31009 39.0087 2.99081 36.969ZM0.333839 50.7514L1.33205 50.8109C1.26918 51.8658 1.23728 52.9291 1.23728 54.0001C1.23728 55.071 1.26918 56.1343 1.33205 57.1892L0.33384 57.2487C0.269786 56.174 0.237302 55.0908 0.237302 54.0001C0.237302 52.9093 0.269786 51.8261 0.333839 50.7514ZM1.31365 64.757L2.29363 64.558C2.72014 66.6582 3.27142 68.7131 3.93937 70.7146L2.99081 71.0311C2.3101 68.9914 1.7483 66.8973 1.31365 64.757ZM5.89148 78.0263L6.78575 77.5788C7.74003 79.4859 8.80651 81.3272 9.97657 83.094L9.14283 83.6461C7.95063 81.8459 6.86391 79.9696 5.89148 78.0263ZM13.7573 89.6513L14.5056 88.9879C15.916 90.5788 17.421 92.0838 19.0118 93.4942L18.3485 94.2424C16.7277 92.8055 15.1943 91.2721 13.7573 89.6513ZM24.3537 98.8569L24.9058 98.0232C26.6726 99.1933 28.5139 100.26 30.421 101.214L29.9735 102.108C28.0301 101.136 26.1539 100.049 24.3537 98.8569ZM36.9686 105.009L37.2852 104.06C39.2867 104.728 41.3415 105.28 43.4418 105.706L43.2428 106.686C41.1025 106.251 39.0084 105.69 36.9686 105.009ZM50.7511 107.666C51.8258 107.73 52.9089 107.762 53.9997 107.762C55.0905 107.762 56.1737 107.73 57.2484 107.666L57.1889 106.668C56.134 106.731 55.0706 106.762 53.9997 106.762C52.9288 106.762 51.8654 106.731 50.8106 106.668L50.7511 107.666ZM64.7567 106.686L64.5576 105.706C66.6579 105.28 68.7128 104.728 70.7142 104.06L71.0308 105.009C68.9911 105.69 66.897 106.251 64.7567 106.686ZM78.026 102.108L77.5785 101.214C79.4855 100.26 81.3268 99.1932 83.0936 98.0232L83.6458 98.8569C81.8455 100.049 79.9693 101.136 78.026 102.108ZM89.651 94.2424L88.9876 93.4942C90.5784 92.0838 92.0834 90.5788 93.4938 88.9879L94.2421 89.6513C92.8051 91.2721 91.2718 92.8055 89.651 94.2424ZM98.8566 83.6461L98.0228 83.094C99.1929 81.3271 100.259 79.4859 101.214 77.5788L102.108 78.0263C101.135 79.9696 100.049 81.8458 98.8566 83.6461ZM105.009 71.0311L104.06 70.7146C104.728 68.7131 105.279 66.6582 105.706 64.558L106.686 64.757C106.251 66.8973 105.689 68.9914 105.009 71.0311ZM107.666 57.2487L106.667 57.1892C106.73 56.1343 106.762 55.071 106.762 54.0001C106.762 52.9291 106.73 51.8658 106.667 50.8109L107.666 50.7514C107.73 51.8261 107.762 52.9093 107.762 54.0001C107.762 55.0908 107.73 56.174 107.666 57.2487ZM106.686 43.2431L105.706 43.4421C105.279 41.3419 104.728 39.287 104.06 37.2855L105.009 36.969C105.689 39.0087 106.251 41.1028 106.686 43.2431ZM102.108 29.9738L101.214 30.4213C100.259 28.5142 99.1929 26.673 98.0228 24.9061L98.8566 24.354C100.049 26.1543 101.135 28.0305 102.108 29.9738ZM94.2421 18.3488L93.4938 19.0122C92.0834 17.4213 90.5784 15.9163 88.9876 14.5059L89.651 13.7577C91.2718 15.1946 92.8051 16.728 94.2421 18.3488ZM83.6458 9.14318C81.8455 7.95098 79.9693 6.86427 78.0259 5.89184L77.5785 6.7861C79.4855 7.74038 81.3268 8.80686 83.0936 9.97692L83.6458 9.14318ZM71.0308 2.99117L70.7142 3.93973C68.7128 3.27178 66.6579 2.7205 64.5576 2.29399L64.7566 1.31401C66.8969 1.74866 68.9911 2.31045 71.0308 2.99117Z" fill="#53DFD5"/>
<path d="M57.1021 74.3613C57.1021 74.9448 57.0882 75.5005 57.1021 76.0562C57.1161 76.6813 56.8085 77.1259 56.3191 77.4593C56.0674 77.626 55.7738 77.7232 55.4522 77.7093C54.2777 77.6955 53.1171 77.6816 51.9426 77.7093C51.2295 77.7371 50.3206 76.8619 50.3625 76.1395C50.4045 75.57 50.3765 75.0004 50.3765 74.3891C50.2367 74.3752 50.0969 74.3752 49.971 74.3752C49.5376 74.3752 49.0901 74.3336 48.6567 74.3891C47.9016 74.4725 46.9928 73.5278 47.0067 72.736C47.0487 70.0965 47.0207 67.457 47.0347 64.8175C47.0347 64.5118 46.9648 64.3312 46.6712 64.1784C45.958 63.8033 45.3148 63.3449 44.6856 62.8448C44.0984 62.3725 43.567 61.8584 43.0637 61.3028C42.4065 60.5665 41.8192 59.7746 41.3438 58.8994C41.0921 58.4271 40.8264 57.9548 40.6167 57.4546C40.2811 56.6628 40.0155 55.8571 39.8057 55.0235C39.6939 54.5651 39.6519 54.0928 39.568 53.6204C39.4002 52.6063 39.4981 51.5922 39.4981 50.5781C39.4981 50.2308 39.596 49.8418 39.6659 49.4806C39.7498 48.9805 39.8896 48.4942 39.9875 48.008C40.0994 47.4801 40.3371 46.9939 40.5048 46.4938C40.8125 45.6047 41.3019 44.8128 41.7912 44.0349C42.1548 43.4653 42.6162 42.9374 43.0497 42.4234C43.3293 42.09 43.6649 41.8121 43.9725 41.4926C44.6856 40.7702 45.5246 40.2007 46.3775 39.6728C47.3423 39.0754 48.377 38.617 49.4816 38.2974C50.0689 38.1307 50.6562 38.0057 51.2574 37.8807C52.5438 37.6028 53.8442 37.6862 55.1306 37.714C55.7738 37.7279 56.403 37.8807 57.0322 38.0335C57.5915 38.1585 58.1368 38.3391 58.6682 38.5336C59.5491 38.8392 60.388 39.2421 61.185 39.7422C61.4927 39.9367 61.8003 40.1173 62.0799 40.3257C62.4994 40.6452 62.9189 40.9786 63.3104 41.3398C63.618 41.6176 63.9116 41.9233 64.2053 42.215C64.9743 43.0207 65.5895 43.9376 66.1768 44.8823C66.792 45.8964 67.1696 47.0078 67.5331 48.133C67.659 48.5081 67.7009 48.9249 67.7988 49.3139C68.0924 50.5642 68.0225 51.8422 67.9945 53.1064C67.9806 53.6204 67.8547 54.1344 67.7568 54.6484C67.617 55.4542 67.3653 56.246 67.0577 56.9962C66.834 57.5519 66.5963 58.1076 66.2887 58.6355C66.009 59.1217 65.7154 59.594 65.3938 60.0525C64.7086 61.0249 63.8977 61.8862 62.9888 62.6503C62.4295 63.1087 61.8562 63.5255 61.255 63.9284C61.1291 64.0117 61.0033 64.0951 60.8495 64.1506C60.5418 64.2618 60.444 64.4424 60.458 64.7758C60.4719 65.9149 60.4719 67.068 60.4719 68.2071C60.4719 69.7214 60.43 71.2356 60.4859 72.736C60.5139 73.4861 59.619 74.4586 58.808 74.3752C58.2487 74.3197 57.6894 74.3613 57.1021 74.3613ZM58.78 66.0122C58.78 65.3037 58.808 64.6091 58.7661 63.9145C58.7381 63.456 58.9758 63.2199 59.3114 63.0115C59.3533 62.9837 59.3953 62.9559 59.4512 62.942C60.6677 62.4141 61.6325 61.5528 62.6113 60.7054C62.835 60.5109 62.9888 60.2609 63.1845 60.0525C63.7299 59.4968 64.1633 58.8716 64.5409 58.2048C65.24 56.9684 65.8552 55.6904 66.023 54.2595C66.3166 53.4537 66.2747 52.6202 66.3027 51.7867C66.3306 51.2032 66.2327 50.6058 66.1349 50.0224C66.037 49.4111 65.9111 48.7999 65.7294 48.2025C65.4777 47.3829 65.1281 46.6049 64.7226 45.8408C64.1633 44.8128 63.4502 43.9098 62.6532 43.0624C62.4295 42.8263 62.1498 42.6457 61.9121 42.4095C61.5346 42.0205 61.0732 41.7566 60.6537 41.4509C59.9406 40.9369 59.1296 40.548 58.3186 40.2284C57.8292 40.0339 57.3259 39.9228 56.8225 39.7839C56.445 39.6728 56.0674 39.6172 55.6759 39.5616C54.9628 39.4644 54.2497 39.3393 53.5366 39.381C53.0612 39.4088 52.5858 39.5199 52.0964 39.4783C52.0824 39.4783 52.0684 39.4783 52.0405 39.4783C51.4812 39.6172 50.9358 39.7561 50.3765 39.8811C49.16 40.159 48.0414 40.6869 47.0067 41.3537C46.5034 41.6732 46.0699 42.09 45.5805 42.4373C44.8674 42.9513 44.3361 43.6181 43.8047 44.2849C43.4272 44.7573 43.1336 45.2574 42.826 45.7714C42.4904 46.3132 42.2527 46.8828 42.0289 47.4662C41.7213 48.2859 41.5116 49.1194 41.3718 49.9946C41.2879 50.5503 41.2739 51.106 41.19 51.6616C41.148 51.9951 41.204 52.3424 41.2599 52.6758C41.3298 53.0509 41.3019 53.4537 41.3718 53.8427C41.4696 54.4262 41.6235 54.9957 41.7912 55.5514C42.0289 56.3572 42.3645 57.1212 42.77 57.8714C43.3433 58.9133 44.0704 59.8302 44.8814 60.6915C45.0911 60.9138 45.3428 61.1083 45.5805 61.3028C45.8741 61.5389 46.1818 61.7612 46.4754 61.9974C46.9788 62.4002 47.5521 62.7059 48.1393 62.9976C48.5308 63.1921 48.7965 63.456 48.7546 63.9562C48.7126 64.5118 48.7406 65.0675 48.7406 65.6232C48.7406 65.7621 48.7406 65.8872 48.7406 66.0122C50.1668 66.0122 51.5371 66.0122 52.9214 66.0122C52.9214 64.8175 52.9214 63.6366 52.9214 62.4558C52.9214 62.2752 52.8514 62.1641 52.7256 62.0529C52.0964 61.4278 51.4672 60.8026 50.838 60.1775C50.7541 60.0941 50.6562 60.0108 50.5863 59.9136C50.3905 59.6496 50.3346 59.3718 50.4604 59.0522C50.6702 58.4966 51.4252 58.3437 51.8587 58.7744C52.39 59.3023 52.9214 59.8302 53.4527 60.3581C53.5506 60.4553 53.6484 60.5387 53.7603 60.6637C54.3336 60.0941 54.8789 59.5524 55.4102 59.0245C55.5221 58.9133 55.62 58.7883 55.7458 58.7049C56.0395 58.5104 56.3331 58.4688 56.6687 58.6355C56.9763 58.8022 57.1021 59.0383 57.1161 59.3718C57.1301 59.6496 56.9903 59.858 56.8085 60.0386C56.1373 60.7054 55.4802 61.3722 54.809 62.0252C54.6552 62.178 54.5993 62.3169 54.5993 62.5253C54.6132 63.2338 54.5993 63.9423 54.5993 64.6647C54.5993 65.1092 54.5993 65.5537 54.5993 66.0122C55.9835 66.0122 57.3538 66.0122 58.78 66.0122ZM48.7266 69.3324C52.0964 69.3324 55.4242 69.3324 58.7521 69.3324C58.7521 68.7767 58.7521 68.2488 58.7521 67.7209C55.3963 67.7209 52.0684 67.7209 48.7266 67.7209C48.7266 68.2627 48.7266 68.7906 48.7266 69.3324ZM58.7661 71.0411C56.2073 70.9717 49.216 70.9995 48.7266 71.0828C48.7266 71.3468 48.7266 71.5968 48.7266 71.8608C48.7266 72.1386 48.7266 72.4026 48.7266 72.6665C51.565 72.736 58.2767 72.7082 58.7661 72.6248C58.7661 72.1108 58.7661 71.5968 58.7661 71.0411ZM55.4242 76.0145C55.4242 75.7089 55.4242 75.4449 55.4242 75.1949C55.4242 74.917 55.4382 74.6531 55.4102 74.3752C54.3056 74.3752 53.243 74.3752 52.1663 74.3752C52.1523 74.3752 52.1383 74.3891 52.1243 74.3891C52.1104 74.403 52.0964 74.4169 52.0824 74.4308C52.0824 74.6809 52.0824 74.9448 52.0824 75.1949C52.0824 75.4727 52.0824 75.7367 52.0824 76.0006C53.215 76.0145 54.2916 76.0145 55.4242 76.0145Z" fill="#28303C"/>
<path d="M64.752 39.9785C64.71 39.8118 64.8079 39.659 64.9477 39.5201C65.7587 38.7282 66.5557 37.9364 67.3527 37.1306C67.6184 36.8667 67.94 36.7833 68.2896 36.9084C68.8489 37.1028 69.0027 37.7419 68.6811 38.2142C68.6391 38.2837 68.5552 38.3392 68.4993 38.3948C67.7582 39.1311 67.0172 39.8674 66.2761 40.6037C66.1223 40.7565 65.9545 40.9093 65.7168 40.9232C65.1435 40.9787 64.752 40.6175 64.752 39.9785Z" fill="#28303C"/>
<path d="M39.5 36.8529C39.7377 36.839 39.9334 36.9362 40.1012 37.1029C40.8982 37.8948 41.7092 38.6866 42.5062 39.4924C42.8698 39.8675 42.7999 40.3954 42.5062 40.6871C42.2266 40.9649 41.6952 41.0761 41.3037 40.701C40.4788 39.8952 39.6678 39.0895 38.8708 38.2699C38.6191 38.0059 38.5492 37.6864 38.7309 37.3252C38.9127 36.9779 39.1224 36.839 39.5 36.8529Z" fill="#28303C"/>
<path d="M42.7706 63.623C42.7567 63.8731 42.6728 64.0675 42.505 64.2342C41.708 65.0261 40.911 65.8318 40.1 66.6237C39.7225 66.9988 39.1632 66.9432 38.8555 66.6098C38.5619 66.3042 38.52 65.7763 38.8835 65.4151C39.6805 64.6232 40.4775 63.8175 41.2885 63.0256C41.7359 62.595 42.3931 62.7339 42.6448 63.2896C42.7147 63.4007 42.7287 63.5119 42.7706 63.623Z" fill="#28303C"/>
<path d="M65.688 62.7892C65.8558 62.7753 66.0376 62.8725 66.2054 63.0392C66.9884 63.8311 67.7854 64.609 68.5684 65.4009C68.7921 65.6231 68.904 65.8871 68.8061 66.1927C68.6943 66.54 68.4426 66.7901 68.065 66.8595C67.7714 66.9151 67.5337 66.7762 67.324 66.5678C66.6528 65.8871 65.9677 65.2203 65.2825 64.5396C65.1567 64.4145 65.0168 64.3034 64.919 64.1645C64.7092 63.8866 64.6533 63.5949 64.8211 63.2615C65.0029 62.942 65.2546 62.7892 65.688 62.7892Z" fill="#28303C"/>
<path d="M54.5864 33.5187C54.5864 34.0882 54.5864 34.6578 54.5864 35.2413C54.5864 35.7136 54.2508 36.0053 53.7754 36.0331C53.4958 36.047 53.286 35.9637 53.0903 35.7414C52.9644 35.6025 52.8945 35.4774 52.8945 35.283C52.8945 34.1021 52.8945 32.9213 52.8945 31.7405C52.8945 31.3376 53.2441 31.032 53.6636 31.0042C53.9852 30.9764 54.2229 31.0875 54.4326 31.3237C54.5445 31.4487 54.5864 31.5877 54.5864 31.7405C54.5864 32.3378 54.5864 32.9352 54.5864 33.5187Z" fill="#28303C"/>
<path d="M35.29 52.6898C34.7028 52.6898 34.1015 52.6898 33.5143 52.6898C33.1088 52.6898 32.8011 52.3425 32.7732 51.9396C32.7452 51.6201 32.8431 51.3839 33.0948 51.1755C33.2206 51.0644 33.3465 51.0227 33.5143 51.0227C34.7028 51.0227 35.8913 51.0227 37.0798 51.0227C37.4853 51.0227 37.7929 51.37 37.8209 51.7729C37.8488 52.0924 37.751 52.3286 37.4993 52.5369C37.3734 52.6481 37.2476 52.6898 37.0798 52.6898C36.4786 52.6898 35.8913 52.6898 35.29 52.6898Z" fill="#28303C"/>
<path d="M72.1483 52.6897C71.589 52.6897 71.0297 52.6897 70.4704 52.6897C69.995 52.6897 69.7013 52.3563 69.6734 51.884C69.6594 51.5923 69.7433 51.3978 69.967 51.2033C70.1068 51.0782 70.2327 51.0088 70.4284 51.0088C71.6169 51.0088 72.8054 51.0088 73.994 51.0088C74.3995 51.0088 74.7071 51.3561 74.735 51.7729C74.763 52.0924 74.6511 52.3285 74.4134 52.5369C74.2876 52.6481 74.1478 52.6897 73.994 52.6897C73.3787 52.6897 72.7635 52.6897 72.1483 52.6897Z" fill="#28303C"/>
</svg>
