<svg  viewBox="0 0 140 140" fill="none" xmlns="http://www.w3.org/2000/svg">
<g transform="translate(-24 -18) scale(1.1)">
  <g filter="url(#filter0_bd_1338_5)">
<path d="M126.794 86.3342C129.606 63.773 113.597 43.2035 91.0356 40.391C68.4744 37.5786 47.9049 53.5881 45.0924 76.1493C42.28 98.7105 58.2895 119.28 80.8507 122.092C103.412 124.905 123.981 108.895 126.794 86.3342Z" fill="#53DFD5"/>
</g>
<path d="M138.853 87.5887C138.72 88.6612 138.555 89.7223 138.36 90.7711L138.852 90.8623C138.385 93.3788 137.746 95.8255 136.951 98.1917L136.477 98.0324C135.787 100.083 134.978 102.073 134.059 103.994L134.51 104.21C133.413 106.504 132.16 108.703 130.767 110.793L130.351 110.515C129.156 112.307 127.858 114.018 126.466 115.642L126.845 115.967C125.197 117.889 123.418 119.689 121.523 121.356L121.193 120.98C119.582 122.397 117.886 123.717 116.117 124.931L116.399 125.343C114.319 126.771 112.137 128.054 109.869 129.18L109.647 128.732C107.731 129.683 105.753 130.522 103.724 131.239L103.891 131.711C101.522 132.548 99.0838 133.223 96.5903 133.724L96.492 133.234C94.4035 133.653 92.2761 133.949 90.1188 134.114L90.1569 134.612C87.6677 134.802 85.1392 134.82 82.5851 134.656L82.6173 134.157C81.5529 134.088 80.4839 133.987 79.4113 133.853C78.3388 133.72 77.2777 133.555 76.229 133.36L76.1377 133.852C73.6213 133.385 71.1746 132.746 68.8083 131.951L68.9677 131.477C66.9169 130.787 64.9272 129.978 63.0056 129.059L62.7898 129.51C60.4956 128.413 58.2974 127.16 56.2072 125.767L56.4845 125.351C54.6933 124.157 52.982 122.858 51.3583 121.466L51.0327 121.845C49.111 120.197 47.3108 118.418 45.6445 116.523L46.0199 116.193C44.6026 114.582 43.283 112.886 42.0689 111.117L41.6566 111.399C40.2293 109.319 38.9464 107.137 37.8204 104.869L38.2682 104.647C37.3168 102.731 36.4784 100.753 35.7606 98.7239L35.2892 98.8906C34.4516 96.5223 33.7766 94.0838 33.2761 91.5904L33.7663 91.492C33.3471 89.4035 33.0515 87.2761 32.8865 85.1188L32.388 85.1569C32.1976 82.6678 32.1795 80.1392 32.3445 77.5851L32.8434 77.6173C32.9122 76.5529 33.013 75.4839 33.1467 74.4113C33.2804 73.3388 33.4451 72.2777 33.6398 71.229L33.1482 71.1377C33.6154 68.6213 34.2536 66.1746 35.0493 63.8083L35.5232 63.9677C36.2128 61.9169 37.0216 59.9272 37.9407 58.0056L37.4897 57.7898C38.587 55.4956 39.84 53.2974 41.2334 51.2072L41.6494 51.4845C42.8435 49.6933 44.1418 47.982 45.5345 46.3583L45.155 46.0328C46.8032 44.111 48.5825 42.3108 50.4769 40.6445L50.8071 41.0199C52.4185 39.6026 54.1139 38.283 55.8835 37.0689L55.6007 36.6566C57.6811 35.2293 59.863 33.9464 62.1306 32.8204L62.3529 33.2682C64.2689 32.3168 66.2465 31.4784 68.2761 30.7606L68.1094 30.2892C70.4778 29.4516 72.9162 28.7766 75.4097 28.2761L75.5081 28.7663C77.5966 28.3471 79.724 28.0515 81.8812 27.8865L81.8431 27.388C84.3323 27.1976 86.8608 27.1796 89.4149 27.3445L89.3827 27.8434C90.4472 27.9122 91.5162 28.013 92.5887 28.1467C93.6612 28.2804 94.7223 28.4451 95.7711 28.6398L95.8623 28.1482C98.3788 28.6154 100.825 29.2536 103.192 30.0493L103.032 30.5232C105.083 31.2128 107.073 32.0217 108.994 32.9408L109.21 32.4897C111.504 33.587 113.703 34.84 115.793 36.2334L115.515 36.6494C117.307 37.8435 119.018 39.1418 120.642 40.5345L120.967 40.155C122.889 41.8032 124.689 43.5825 126.356 45.4769L125.98 45.8071C127.397 47.4185 128.717 49.1139 129.931 50.8835L130.343 50.6007C131.771 52.6811 133.054 54.863 134.18 57.1306L133.732 57.3529C134.683 59.2689 135.522 61.2465 136.239 63.2761L136.711 63.1094C137.548 65.4778 138.223 67.9163 138.724 70.4097L138.234 70.5081C138.653 72.5966 138.949 74.724 139.114 76.8812L139.612 76.8431C139.802 79.3323 139.82 81.8608 139.656 84.4149L139.157 84.3827C139.088 85.4472 138.987 86.5162 138.853 87.5887Z" stroke="#53DFD5" stroke-dasharray="6 7"/>
<path d="M89.1021 101.361C89.1021 101.945 89.0882 102.5 89.1021 103.056C89.1161 103.681 88.8085 104.126 88.3191 104.459C88.0674 104.626 87.7738 104.723 87.4522 104.709C86.2777 104.695 85.1171 104.682 83.9426 104.709C83.2295 104.737 82.3206 103.862 82.3625 103.139C82.4045 102.57 82.3765 102 82.3765 101.389C82.2367 101.375 82.0969 101.375 81.971 101.375C81.5376 101.375 81.0901 101.334 80.6567 101.389C79.9016 101.472 78.9928 100.528 79.0067 99.7359C79.0487 97.0964 79.0207 94.4569 79.0347 91.8174C79.0347 91.5118 78.9648 91.3312 78.6712 91.1784C77.958 90.8033 77.3148 90.3449 76.6856 89.8447C76.0984 89.3724 75.567 88.8584 75.0637 88.3027C74.4065 87.5664 73.8192 86.7746 73.3438 85.8994C73.0921 85.4271 72.8264 84.9547 72.6167 84.4546C72.2811 83.6628 72.0155 82.857 71.8057 82.0235C71.6939 81.5651 71.6519 81.0927 71.568 80.6204C71.4002 79.6063 71.4981 78.5921 71.4981 77.578C71.4981 77.2307 71.596 76.8417 71.6659 76.4805C71.7498 75.9804 71.8896 75.4942 71.9875 75.008C72.0994 74.4801 72.3371 73.9939 72.5048 73.4937C72.8125 72.6046 73.3019 71.8128 73.7912 71.0348C74.1548 70.4653 74.6162 69.9374 75.0497 69.4233C75.3293 69.0899 75.6649 68.8121 75.9725 68.4926C76.6856 67.7702 77.5246 67.2006 78.3775 66.6727C79.3423 66.0754 80.377 65.6169 81.4816 65.2974C82.0689 65.1307 82.6562 65.0057 83.2574 64.8806C84.5438 64.6028 85.8442 64.6861 87.1306 64.7139C87.7738 64.7278 88.403 64.8806 89.0322 65.0334C89.5915 65.1585 90.1368 65.3391 90.6682 65.5336C91.5491 65.8392 92.388 66.2421 93.185 66.7422C93.4927 66.9367 93.8003 67.1173 94.0799 67.3256C94.4994 67.6452 94.9189 67.9786 95.3104 68.3398C95.618 68.6176 95.9116 68.9232 96.2053 69.215C96.9743 70.0207 97.5895 70.9376 98.1768 71.8823C98.792 72.8964 99.1696 74.0077 99.5331 75.133C99.659 75.5081 99.7009 75.9249 99.7988 76.3138C100.092 77.5641 100.023 78.8422 99.9945 80.1064C99.9806 80.6204 99.8547 81.1344 99.7568 81.6484C99.617 82.4541 99.3653 83.246 99.0577 83.9962C98.834 84.5519 98.5963 85.1075 98.2887 85.6354C98.009 86.1217 97.7154 86.594 97.3938 87.0524C96.7086 88.0249 95.8977 88.8862 94.9888 89.6503C94.4295 90.1087 93.8562 90.5255 93.255 90.9283C93.1291 91.0117 93.0033 91.095 92.8495 91.1506C92.5418 91.2617 92.444 91.4423 92.458 91.7758C92.4719 92.9149 92.4719 94.0679 92.4719 95.2071C92.4719 96.7213 92.43 98.2356 92.4859 99.7359C92.5139 100.486 91.619 101.459 90.808 101.375C90.2487 101.32 89.6894 101.361 89.1021 101.361ZM90.78 93.0121C90.78 92.3037 90.808 91.609 90.7661 90.9144C90.7381 90.456 90.9758 90.2198 91.3114 90.0115C91.3533 89.9837 91.3953 89.9559 91.4512 89.942C92.6677 89.4141 93.6325 88.5528 94.6113 87.7054C94.835 87.5109 94.9888 87.2608 95.1845 87.0524C95.7299 86.4968 96.1633 85.8716 96.5409 85.2048C97.24 83.9684 97.8552 82.6903 98.023 81.2594C98.3166 80.4537 98.2747 79.6202 98.3027 78.7866C98.3306 78.2032 98.2327 77.6058 98.1349 77.0223C98.037 76.4111 97.9111 75.7998 97.7294 75.2025C97.4777 74.3828 97.1281 73.6049 96.7226 72.8408C96.1633 71.8128 95.4502 70.9098 94.6532 70.0624C94.4295 69.8262 94.1498 69.6456 93.9121 69.4095C93.5346 69.0205 93.0732 68.7565 92.6537 68.4509C91.9406 67.9369 91.1296 67.5479 90.3186 67.2284C89.8292 67.0339 89.3259 66.9228 88.8225 66.7838C88.445 66.6727 88.0674 66.6171 87.6759 66.5616C86.9628 66.4643 86.2497 66.3393 85.5366 66.381C85.0612 66.4088 84.5858 66.5199 84.0964 66.4782C84.0824 66.4782 84.0684 66.4782 84.0405 66.4782C83.4812 66.6171 82.9358 66.7561 82.3765 66.8811C81.16 67.1589 80.0414 67.6868 79.0067 68.3537C78.5034 68.6732 78.0699 69.0899 77.5805 69.4372C76.8674 69.9513 76.3361 70.6181 75.8047 71.2849C75.4272 71.7572 75.1336 72.2573 74.826 72.7713C74.4904 73.3131 74.2527 73.8827 74.0289 74.4662C73.7213 75.2858 73.5116 76.1193 73.3718 76.9945C73.2879 77.5502 73.2739 78.1059 73.19 78.6616C73.148 78.995 73.204 79.3423 73.2599 79.6757C73.3298 80.0508 73.3019 80.4537 73.3718 80.8427C73.4696 81.4261 73.6235 81.9957 73.7912 82.5514C74.0289 83.3571 74.3645 84.1212 74.77 84.8714C75.3433 85.9133 76.0704 86.8302 76.8814 87.6915C77.0911 87.9137 77.3428 88.1082 77.5805 88.3027C77.8741 88.5389 78.1818 88.7612 78.4754 88.9973C78.9788 89.4002 79.5521 89.7058 80.1393 89.9976C80.5308 90.1921 80.7965 90.456 80.7546 90.9561C80.7126 91.5118 80.7406 92.0675 80.7406 92.6232C80.7406 92.7621 80.7406 92.8871 80.7406 93.0121C82.1668 93.0121 83.5371 93.0121 84.9214 93.0121C84.9214 91.8174 84.9214 90.6366 84.9214 89.4558C84.9214 89.2752 84.8514 89.164 84.7256 89.0529C84.0964 88.4278 83.4672 87.8026 82.838 87.1775C82.7541 87.0941 82.6562 87.0108 82.5863 86.9135C82.3905 86.6496 82.3346 86.3717 82.4604 86.0522C82.6702 85.4965 83.4252 85.3437 83.8587 85.7744C84.39 86.3023 84.9214 86.8302 85.4527 87.3581C85.5506 87.4553 85.6484 87.5387 85.7603 87.6637C86.3336 87.0941 86.8789 86.5523 87.4102 86.0244C87.5221 85.9133 87.62 85.7883 87.7458 85.7049C88.0395 85.5104 88.3331 85.4687 88.6687 85.6354C88.9763 85.8021 89.1021 86.0383 89.1161 86.3717C89.1301 86.6496 88.9903 86.8579 88.8085 87.0385C88.1373 87.7054 87.4802 88.3722 86.809 89.0251C86.6552 89.1779 86.5993 89.3168 86.5993 89.5252C86.6132 90.2337 86.5993 90.9422 86.5993 91.6646C86.5993 92.1092 86.5993 92.5537 86.5993 93.0121C87.9835 93.0121 89.3538 93.0121 90.78 93.0121ZM80.7266 96.3324C84.0964 96.3324 87.4242 96.3324 90.7521 96.3324C90.7521 95.7767 90.7521 95.2488 90.7521 94.7209C87.3963 94.7209 84.0684 94.7209 80.7266 94.7209C80.7266 95.2627 80.7266 95.7906 80.7266 96.3324ZM90.7661 98.0411C88.2073 97.9716 81.216 97.9994 80.7266 98.0828C80.7266 98.3467 80.7266 98.5968 80.7266 98.8607C80.7266 99.1386 80.7266 99.4025 80.7266 99.6665C83.565 99.7359 90.2767 99.7081 90.7661 99.6248C90.7661 99.1108 90.7661 98.5968 90.7661 98.0411ZM87.4242 103.014C87.4242 102.709 87.4242 102.445 87.4242 102.195C87.4242 101.917 87.4382 101.653 87.4102 101.375C86.3056 101.375 85.243 101.375 84.1663 101.375C84.1523 101.375 84.1383 101.389 84.1243 101.389C84.1104 101.403 84.0964 101.417 84.0824 101.431C84.0824 101.681 84.0824 101.945 84.0824 102.195C84.0824 102.473 84.0824 102.737 84.0824 103.001C85.215 103.014 86.2916 103.014 87.4242 103.014Z" fill="#28303C"/>
<path d="M96.752 66.9785C96.71 66.8118 96.8079 66.659 96.9477 66.5201C97.7587 65.7283 98.5557 64.9364 99.3527 64.1307C99.6184 63.8667 99.94 63.7834 100.29 63.9084C100.849 64.1029 101.003 64.7419 100.681 65.2142C100.639 65.2837 100.555 65.3393 100.499 65.3948C99.7582 66.1311 99.0172 66.8674 98.2761 67.6037C98.1223 67.7565 97.9545 67.9093 97.7168 67.9232C97.1435 67.9788 96.752 67.6176 96.752 66.9785Z" fill="#28303C"/>
<path d="M71.5 63.8528C71.7377 63.8389 71.9334 63.9362 72.1012 64.1029C72.8982 64.8947 73.7092 65.6866 74.5062 66.4923C74.8698 66.8674 74.7999 67.3953 74.5062 67.687C74.2266 67.9649 73.6952 68.076 73.3037 67.7009C72.4788 66.8952 71.6678 66.0895 70.8708 65.2698C70.6191 65.0059 70.5492 64.6863 70.7309 64.3252C70.9127 63.9779 71.1224 63.8389 71.5 63.8528Z" fill="#28303C"/>
<path d="M74.7706 90.6229C74.7567 90.873 74.6728 91.0674 74.505 91.2342C73.708 92.026 72.911 92.8317 72.1 93.6236C71.7225 93.9987 71.1632 93.9431 70.8555 93.6097C70.5619 93.3041 70.52 92.7762 70.8835 92.415C71.6805 91.6231 72.4775 90.8174 73.2885 90.0255C73.7359 89.5949 74.3931 89.7338 74.6448 90.2895C74.7147 90.4006 74.7287 90.5118 74.7706 90.6229Z" fill="#28303C"/>
<path d="M97.688 89.7892C97.8558 89.7753 98.0376 89.8726 98.2054 90.0393C98.9884 90.8311 99.7854 91.6091 100.568 92.4009C100.792 92.6232 100.904 92.8872 100.806 93.1928C100.694 93.5401 100.443 93.7902 100.065 93.8596C99.7714 93.9152 99.5337 93.7763 99.324 93.5679C98.6528 92.8872 97.9677 92.2203 97.2825 91.5396C97.1567 91.4146 97.0168 91.3035 96.919 91.1645C96.7092 90.8867 96.6533 90.595 96.8211 90.2616C97.0029 89.942 97.2546 89.7892 97.688 89.7892Z" fill="#28303C"/>
<path d="M86.5864 60.5187C86.5864 61.0882 86.5864 61.6578 86.5864 62.2413C86.5864 62.7136 86.2508 63.0053 85.7754 63.0331C85.4958 63.047 85.286 62.9637 85.0903 62.7414C84.9644 62.6025 84.8945 62.4774 84.8945 62.283C84.8945 61.1021 84.8945 59.9213 84.8945 58.7405C84.8945 58.3376 85.2441 58.032 85.6636 58.0042C85.9852 57.9764 86.2229 58.0875 86.4326 58.3237C86.5445 58.4487 86.5864 58.5877 86.5864 58.7405C86.5864 59.3378 86.5864 59.9352 86.5864 60.5187Z" fill="#28303C"/>
<path d="M67.29 79.6897C66.7028 79.6897 66.1015 79.6897 65.5143 79.6897C65.1088 79.6897 64.8011 79.3424 64.7732 78.9395C64.7452 78.62 64.8431 78.3838 65.0948 78.1755C65.2206 78.0643 65.3465 78.0226 65.5143 78.0226C66.7028 78.0226 67.8913 78.0226 69.0798 78.0226C69.4853 78.0226 69.7929 78.3699 69.8209 78.7728C69.8488 79.0923 69.751 79.3285 69.4993 79.5369C69.3734 79.648 69.2476 79.6897 69.0798 79.6897C68.4786 79.6897 67.8913 79.6897 67.29 79.6897Z" fill="#28303C"/>
<path d="M104.148 79.6898C103.589 79.6898 103.03 79.6898 102.47 79.6898C101.995 79.6898 101.701 79.3564 101.673 78.884C101.659 78.5923 101.743 78.3978 101.967 78.2033C102.107 78.0783 102.233 78.0088 102.428 78.0088C103.617 78.0088 104.805 78.0088 105.994 78.0088C106.399 78.0088 106.707 78.3561 106.735 78.7729C106.763 79.0924 106.651 79.3286 106.413 79.537C106.288 79.6481 106.148 79.6898 105.994 79.6898C105.379 79.6898 104.764 79.6898 104.148 79.6898Z" fill="#28303C"/>
</g>
<defs>
<filter id="filter0_bd_1338_5" x="-5.22803" y="-9.92946" width="182.342" height="182.342" filterUnits="userSpaceOnUse" color-interpolation-filters="sRGB">
<feFlood flood-opacity="0" result="BackgroundImageFix"/>
<feGaussianBlur in="BackgroundImageFix" stdDeviation="25"/>
<feComposite in2="SourceAlpha" operator="in" result="effect1_backgroundBlur_1338_5"/>
<feColorMatrix in="SourceAlpha" type="matrix" values="0 0 0 0 0 0 0 0 0 0 0 0 0 0 0 0 0 0 127 0" result="hardAlpha"/>
<feOffset dy="4"/>
<feGaussianBlur stdDeviation="22"/>
<feComposite in2="hardAlpha" operator="out"/>
<feColorMatrix type="matrix" values="0 0 0 0 0 0 0 0 0 0 0 0 0 0 0 0 0 0 0.05 0"/>
<feBlend mode="normal" in2="effect1_backgroundBlur_1338_5" result="effect2_dropShadow_1338_5"/>
<feBlend mode="normal" in="SourceGraphic" in2="effect2_dropShadow_1338_5" result="shape"/>
</filter>
</defs>
</svg>

