<svg viewBox="0 0 140 140" fill="none" xmlns="http://www.w3.org/2000/svg">
<g transform="translate(-24 -18) scale(1.1)">
<g filter="url(#filter0_bd_1302_5)">
<path d="M126.794 86.3343C129.606 63.7731 113.597 43.2036 91.0356 40.3912C68.4744 37.5787 47.9049 53.5882 45.0924 76.1494C42.28 98.7106 58.2895 119.28 80.8507 122.093C103.412 124.905 123.981 108.896 126.794 86.3343Z" fill="#53DFD5"/>
</g>
<path d="M102 64.0001V97.0001" stroke="#28303C" stroke-width="3" stroke-linecap="round" stroke-linejoin="round"/>
<path d="M81.6923 76.6925H93.1153C94.5173 76.6925 95.6538 75.556 95.6538 74.154V69.0771C95.6538 67.6752 94.5173 66.5387 93.1153 66.5387H81.6923C80.2903 66.5387 79.1538 67.6752 79.1538 69.0771V74.154C79.1538 75.556 80.2903 76.6925 81.6923 76.6925Z" stroke="#28303C" stroke-width="3" stroke-linecap="round" stroke-linejoin="round"/>
<path d="M71.5384 94.4617H93.1153C94.5173 94.4617 95.6538 93.3252 95.6538 91.9232V86.8463C95.6538 85.4443 94.5173 84.3078 93.1153 84.3078H71.5384C70.1365 84.3078 69 85.4443 69 86.8463V91.9232C69 93.3252 70.1365 94.4617 71.5384 94.4617Z" stroke="#28303C" stroke-width="3" stroke-linecap="round" stroke-linejoin="round"/>
<path d="M138.853 87.5889C138.72 88.6614 138.555 89.7224 138.36 90.7712L138.852 90.8625C138.385 93.3789 137.746 95.8256 136.951 98.1919L136.477 98.0325C135.787 100.083 134.978 102.073 134.059 103.995L134.51 104.21C133.413 106.505 132.16 108.703 130.767 110.793L130.351 110.516C129.156 112.307 127.858 114.018 126.466 115.642L126.845 115.967C125.197 117.889 123.418 119.689 121.523 121.356L121.193 120.98C119.582 122.398 117.886 123.717 116.117 124.931L116.399 125.344C114.319 126.771 112.137 128.054 109.869 129.18L109.647 128.732C107.731 129.683 105.753 130.522 103.724 131.24L103.891 131.711C101.522 132.549 99.0838 133.224 96.5903 133.724L96.492 133.234C94.4035 133.653 92.2761 133.949 90.1188 134.114L90.1569 134.612C87.6677 134.803 85.1392 134.821 82.5851 134.656L82.6173 134.157C81.5529 134.088 80.4839 133.987 79.4113 133.853C78.3388 133.72 77.2777 133.555 76.229 133.36L76.1377 133.852C73.6213 133.385 71.1746 132.747 68.8083 131.951L68.9677 131.477C66.9169 130.787 64.9272 129.979 63.0056 129.059L62.7898 129.51C60.4956 128.413 58.2974 127.16 56.2072 125.767L56.4845 125.351C54.6933 124.157 52.982 122.858 51.3583 121.466L51.0327 121.845C49.111 120.197 47.3108 118.418 45.6445 116.523L46.0199 116.193C44.6026 114.582 43.283 112.886 42.0689 111.117L41.6566 111.4C40.2293 109.319 38.9464 107.137 37.8204 104.87L38.2682 104.647C37.3168 102.731 36.4784 100.754 35.7606 98.7241L35.2892 98.8908C34.4516 96.5224 33.7766 94.0839 33.2761 91.5905L33.7663 91.4921C33.3471 89.4036 33.0515 87.2762 32.8865 85.119L32.388 85.1571C32.1976 82.6679 32.1795 80.1394 32.3445 77.5853L32.8434 77.6175C32.9122 76.553 33.013 75.484 33.1467 74.4115C33.2804 73.3389 33.4451 72.2779 33.6398 71.2291L33.1482 71.1379C33.6154 68.6214 34.2536 66.1747 35.0493 63.8085L35.5232 63.9678C36.2128 61.9171 37.0216 59.9274 37.9407 58.0057L37.4897 57.79C38.587 55.4957 39.84 53.2976 41.2334 51.2073L41.6494 51.4847C42.8435 49.6934 44.1418 47.9822 45.5345 46.3584L45.155 46.0329C46.8032 44.1112 48.5825 42.311 50.4769 40.6447L50.8071 41.0201C52.4185 39.6027 54.1139 38.2831 55.8835 37.069L55.6007 36.6567C57.6811 35.2294 59.863 33.9466 62.1306 32.8205L62.3529 33.2683C64.2689 32.3169 66.2465 31.4785 68.2761 30.7607L68.1094 30.2893C70.4778 29.4517 72.9162 28.7768 75.4097 28.2763L75.5081 28.7665C77.5966 28.3473 79.724 28.0517 81.8812 27.8867L81.8431 27.3881C84.3323 27.1978 86.8608 27.1797 89.4149 27.3446L89.3827 27.8436C90.4472 27.9123 91.5162 28.0132 92.5887 28.1469C93.6612 28.2806 94.7223 28.4453 95.7711 28.64L95.8623 28.1484C98.3788 28.6155 100.825 29.2538 103.192 30.0495L103.032 30.5234C105.083 31.2129 107.073 32.0218 108.994 32.9409L109.21 32.4899C111.504 33.5872 113.703 34.8401 115.793 36.2336L115.515 36.6496C117.307 37.8437 119.018 39.1419 120.642 40.5346L120.967 40.1551C122.889 41.8034 124.689 43.5827 126.356 45.477L125.98 45.8073C127.397 47.4186 128.717 49.1141 129.931 50.8837L130.343 50.6008C131.771 52.6812 133.054 54.8631 134.18 57.1307L133.732 57.3531C134.683 59.269 135.522 61.2467 136.239 63.2763L136.711 63.1096C137.548 65.4779 138.223 67.9164 138.724 70.4098L138.234 70.5082C138.653 72.5967 138.949 74.7241 139.114 76.8814L139.612 76.8433C139.802 79.3324 139.82 81.861 139.656 84.4151L139.157 84.3829C139.088 85.4473 138.987 86.5163 138.853 87.5889Z" stroke="#53DFD5" stroke-dasharray="6 7"/>
</g>
<defs>
<filter id="filter0_bd_1302_5" x="-5.22803" y="-9.92932" width="182.342" height="182.342" filterUnits="userSpaceOnUse" color-interpolation-filters="sRGB">
<feFlood flood-opacity="0" result="BackgroundImageFix"/>
<feGaussianBlur in="BackgroundImageFix" stdDeviation="25"/>
<feComposite in2="SourceAlpha" operator="in" result="effect1_backgroundBlur_1302_5"/>
<feColorMatrix in="SourceAlpha" type="matrix" values="0 0 0 0 0 0 0 0 0 0 0 0 0 0 0 0 0 0 127 0" result="hardAlpha"/>
<feOffset dy="4"/>
<feGaussianBlur stdDeviation="22"/>
<feComposite in2="hardAlpha" operator="out"/>
<feColorMatrix type="matrix" values="0 0 0 0 0 0 0 0 0 0 0 0 0 0 0 0 0 0 0.05 0"/>
<feBlend mode="normal" in2="effect1_backgroundBlur_1302_5" result="effect2_dropShadow_1302_5"/>
<feBlend mode="normal" in="SourceGraphic" in2="effect2_dropShadow_1302_5" result="shape"/>
</filter>
</defs>
</svg>
