<svg viewBox="0 0 108 108" fill="none" xmlns="http://www.w3.org/2000/svg">
<path d="M94.7938 58.8591C97.6063 36.2979 81.5968 15.7284 59.0356 12.916C36.4744 10.1035 15.9049 26.113 13.0924 48.6742C10.28 71.2354 26.2895 91.8049 48.8507 94.6173C71.4119 97.4298 91.9814 81.4203 94.7938 58.8591Z" fill="#53DFD5"/>
<path fill-rule="evenodd" clip-rule="evenodd" d="M69 35.5249C69.5523 35.5249 70 35.9726 70 36.5249V71.5249C70 72.0772 69.5523 72.5249 69 72.5249C68.4477 72.5249 68 72.0772 68 71.5249V36.5249C68 35.9726 68.4477 35.5249 69 35.5249Z" fill="#28303C"/>
<path fill-rule="evenodd" clip-rule="evenodd" d="M59.5762 48.9863C60.5109 48.9863 61.2686 48.2287 61.2686 47.294V41.9094C61.2686 40.9748 60.5109 40.2171 59.5762 40.2171H47.4609C46.5262 40.2171 45.7686 40.9748 45.7686 41.9094V47.294C45.7686 48.2287 46.5262 48.9863 47.4609 48.9863H59.5762ZM63.2686 47.294C63.2686 49.3332 61.6155 50.9863 59.5762 50.9863H47.4609C45.4217 50.9863 43.7686 49.3332 43.7686 47.294V41.9094C43.7686 39.8702 45.4217 38.2171 47.4609 38.2171H59.5762C61.6155 38.2171 63.2686 39.8702 63.2686 41.9094V47.294Z" fill="#28303C"/>
<path fill-rule="evenodd" clip-rule="evenodd" d="M59.5762 67.8328C60.5109 67.8328 61.2686 67.0751 61.2686 66.1405V60.7558C61.2686 59.8212 60.5109 59.0635 59.5762 59.0635H36.6916C35.757 59.0635 34.9993 59.8212 34.9993 60.7558V66.1405C34.9993 67.0751 35.757 67.8328 36.6916 67.8328H59.5762ZM63.2686 66.1405C63.2686 68.1797 61.6155 69.8328 59.5762 69.8328H36.6916C34.6524 69.8328 32.9993 68.1797 32.9993 66.1405V60.7558C32.9993 58.7166 34.6524 57.0635 36.6916 57.0635H59.5762C61.6155 57.0635 63.2686 58.7166 63.2686 60.7558V66.1405Z" fill="#28303C"/>
<path fill-rule="evenodd" clip-rule="evenodd" d="M57.011 0.0966565L56.9516 1.09486C55.8967 1.03199 54.8333 1.0001 53.7624 1.0001C52.6915 1.0001 51.6281 1.03199 50.5732 1.09486L50.5137 0.0966568C51.5884 0.0326016 52.6716 0.00011624 53.7624 0.000116193C54.8532 0.000116145 55.9364 0.0326014 57.011 0.0966565ZM43.0055 1.07647L43.2045 2.05644C41.1042 2.48296 39.0493 3.03423 37.0479 3.70218L36.7313 2.75363C38.771 2.07291 40.8652 1.51111 43.0055 1.07647ZM29.7362 5.65429C27.7928 6.62672 25.9166 7.71344 24.1163 8.90564L24.6685 9.73938C26.4353 8.56932 28.2766 7.50284 30.1836 6.54856L29.7362 5.65429ZM18.1111 13.5201L18.7745 14.2684C17.1837 15.6788 15.6787 17.1838 14.2683 18.7746L13.52 18.1113C14.957 16.4905 16.4903 14.9571 18.1111 13.5201ZM8.90552 24.1165L9.73925 24.6686C8.56919 26.4354 7.50271 28.2767 6.54844 30.1838L5.65416 29.7363C6.6266 27.7929 7.71332 25.9167 8.90552 24.1165ZM2.75351 36.7314L3.70206 37.048C3.03411 39.0495 2.48284 41.1043 2.05632 43.2046L1.07635 43.0056C1.51099 40.8653 2.07279 38.7712 2.75351 36.7314ZM0.0965345 50.5139L1.09474 50.5734C1.03187 51.6282 0.999978 52.6916 0.999978 53.7625C0.999978 54.8334 1.03187 55.8968 1.09474 56.9517L0.0965351 57.0112C0.0324817 55.9365 -2.30235e-06 54.8533 -2.35003e-06 53.7625C-2.39771e-06 52.6717 0.0324814 51.5885 0.0965345 50.5139ZM1.07635 64.5194L2.05632 64.3204C2.48284 66.4207 3.03411 68.4756 3.70206 70.477L2.75351 70.7936C2.07279 68.7539 1.51099 66.6597 1.07635 64.5194ZM5.65417 77.7888L6.54844 77.3413C7.50272 79.2483 8.5692 81.0896 9.73926 82.8564L8.90552 83.4086C7.71333 81.6083 6.62661 79.7321 5.65417 77.7888ZM13.52 89.4138L14.2683 88.7504C15.6787 90.3412 17.1837 91.8462 18.7745 93.2566L18.1112 94.0049C16.4904 92.5679 14.957 91.0346 13.52 89.4138ZM24.1163 98.6194L24.6685 97.7856C26.4353 98.9557 28.2766 100.022 30.1836 100.976L29.7362 101.871C27.7928 100.898 25.9166 99.8116 24.1163 98.6194ZM36.7313 104.771L37.0479 103.823C39.0494 104.491 41.1042 105.042 43.2045 105.469L43.0055 106.449C40.8652 106.014 38.7711 105.452 36.7313 104.771ZM50.5138 107.428C51.5884 107.492 52.6716 107.525 53.7624 107.525C54.8532 107.525 55.9364 107.492 57.0111 107.428L56.9516 106.43C55.8967 106.493 54.8333 106.525 53.7624 106.525C52.6915 106.525 51.6281 106.493 50.5733 106.43L50.5138 107.428ZM64.5193 106.449L64.3203 105.469C66.4206 105.042 68.4755 104.491 70.4769 103.823L70.7935 104.771C68.7538 105.452 66.6596 106.014 64.5193 106.449ZM77.7887 101.871L77.3412 100.976C79.2482 100.022 81.0895 98.9557 82.8563 97.7856L83.4085 98.6194C81.6082 99.8116 79.732 100.898 77.7887 101.871ZM89.4137 94.0049L88.7503 93.2566C90.3411 91.8462 91.8461 90.3412 93.2565 88.7504L94.0048 89.4138C92.5678 91.0345 91.0345 92.5679 89.4137 94.0049ZM98.6193 83.4086L97.7855 82.8564C98.9556 81.0896 100.022 79.2483 100.976 77.3413L101.871 77.7887C100.898 79.7321 99.8115 81.6083 98.6193 83.4086ZM104.771 70.7936L103.823 70.477C104.491 68.4756 105.042 66.4207 105.468 64.3204L106.448 64.5194C106.014 66.6597 105.452 68.7539 104.771 70.7936ZM107.428 57.0111L106.43 56.9517C106.493 55.8968 106.525 54.8334 106.525 53.7625C106.525 52.6916 106.493 51.6282 106.43 50.5733L107.428 50.5139C107.492 51.5885 107.525 52.6717 107.525 53.7625C107.525 54.8533 107.492 55.9365 107.428 57.0111ZM106.448 43.0056L105.468 43.2046C105.042 41.1043 104.491 39.0494 103.823 37.048L104.771 36.7314C105.452 38.7711 106.014 40.8653 106.448 43.0056ZM101.871 29.7363L100.976 30.1837C100.022 28.2767 98.9556 26.4354 97.7855 24.6686L98.6193 24.1164C99.8115 25.9167 100.898 27.7929 101.871 29.7363ZM94.0048 18.1112L93.2565 18.7746C91.8461 17.1838 90.3411 15.6788 88.7503 14.2684L89.4137 13.5201C91.0344 14.9571 92.5678 16.4905 94.0048 18.1112ZM83.4085 8.90563C81.6082 7.71343 79.732 6.62672 77.7886 5.65429L77.3412 6.54856C79.2482 7.50283 81.0895 8.56931 82.8563 9.73937L83.4085 8.90563ZM70.7935 2.75362L70.4769 3.70218C68.4754 3.03423 66.4206 2.48295 64.3203 2.05644L64.5193 1.07646C66.6596 1.51111 68.7538 2.07291 70.7935 2.75362Z" fill="#53DFD5"/>
</svg>
