<svg width="80" height="80" viewBox="0 0 80 80" fill="none" xmlns="http://www.w3.org/2000/svg">
<g id="Group 1000001872">
<g id="Group 1000001822">
<g id="Group 1222">
<path id="Vector" d="M67.6404 43.5561C69.5154 28.5153 58.8424 14.8024 43.8016 12.9274C28.7607 11.0524 15.0478 21.7254 13.1728 36.7662C11.2978 51.807 21.9708 65.52 37.0116 67.395C52.0524 69.2699 65.7654 58.5969 67.6404 43.5561Z" fill="#53DFD5"/>
<path id="Vector_2" d="M41.1949 4.176C38.6256 4.08733 36.1001 4.27547 33.65 4.71562L33.7385 5.20773C31.6183 5.58862 29.5554 6.16093 27.5711 6.90819L27.3949 6.44027C25.019 7.33498 22.7541 8.47693 20.6358 9.83854L20.9061 10.2591C19.1087 11.4145 17.4183 12.7302 15.857 14.1889L15.5157 13.8236C13.6757 15.5428 12.0127 17.458 10.562 19.5415L10.9724 19.8272C9.76081 21.5674 8.69957 23.4266 7.80983 25.3884L7.35449 25.1818C6.32631 27.4488 5.5239 29.8509 4.97909 32.3633L5.46772 32.4692C5.2434 33.5037 5.06334 34.5572 4.92984 35.6281C4.79635 36.699 4.71225 37.7645 4.67574 38.8223L4.17605 38.8051C4.08739 41.3743 4.27552 43.8999 4.71568 46.3499L5.20779 46.2615C5.58868 48.3817 6.16099 50.4445 6.90825 52.4289L6.44033 52.6051C7.33504 54.981 8.47699 57.2459 9.83861 59.3642L10.2592 59.0938C11.4145 60.8912 12.7302 62.5817 14.189 64.1429L13.8236 64.4843C15.5429 66.3243 17.458 67.9873 19.5416 69.4379L19.8273 69.0276C21.5675 70.2391 23.4267 71.3004 25.3884 72.1901L25.1819 72.6455C27.4489 73.6736 29.851 74.4761 32.3633 75.0209L32.4693 74.5322C33.5038 74.7566 34.5573 74.9366 35.6282 75.0701C36.699 75.2036 37.7645 75.2877 38.8224 75.3242L38.8052 75.8239C41.3744 75.9126 43.9 75.7244 46.35 75.2843L46.2616 74.7922C48.3817 74.4113 50.4446 73.839 52.4289 73.0917L52.6051 73.5596C54.9811 72.6649 57.2459 71.523 59.3643 70.1613L59.0939 69.7408C60.8913 68.5854 62.5817 67.2697 64.143 65.811L64.4843 66.1763C66.3243 64.4571 67.9874 62.5419 69.438 60.4584L69.0277 60.1727C70.2392 58.4325 71.3004 56.5733 72.1902 54.6115L72.6455 54.818C73.6737 52.551 74.4761 50.149 75.0209 47.6366L74.5323 47.5306C74.7566 46.4962 74.9367 45.4426 75.0702 44.3718C75.2037 43.3009 75.2878 42.2354 75.3243 41.1775L75.824 41.1948C75.9126 38.6256 75.7245 36.1 75.2843 33.65L74.7922 33.7384C74.4113 31.6182 73.839 29.5554 73.0918 27.571L73.5597 27.3948C72.665 25.0189 71.523 22.754 70.1614 20.6357L69.7408 20.906C68.5855 19.1087 67.2698 17.4182 65.8111 15.857L66.1764 15.5156C64.4572 13.6756 62.542 12.0126 60.4584 10.562L60.1727 10.9723C58.4326 9.76075 56.5734 8.69951 54.6116 7.80977L54.8181 7.35443C52.5511 6.32625 50.1491 5.52384 47.6367 4.97903L47.5307 5.46766C46.4963 5.24334 45.4427 5.06328 44.3719 4.92978C43.301 4.79629 42.2355 4.71219 41.1776 4.67569L41.1949 4.176Z" stroke="#53DFD5" stroke-dasharray="6 7"/>
</g>
</g>
<path id="Vector_3" d="M48.8889 36C48.8889 34.7743 48.6589 33.5607 48.2122 32.4283C47.7655 31.2959 47.1108 30.267 46.2854 29.4003C45.46 28.5337 44.4801 27.8462 43.4016 27.3771C42.3232 26.9081 41.1673 26.6667 40 26.6667C38.8327 26.6667 37.6768 26.9081 36.5983 27.3771C35.5199 27.8462 34.54 28.5337 33.7146 29.4003C32.8892 30.267 32.2344 31.2959 31.7877 32.4283C31.341 33.5607 31.1111 34.7743 31.1111 36C31.1111 37.8493 31.6304 39.5693 32.5143 41.02H32.5041L40 53.3333L47.4958 41.02H47.487C48.4024 39.5221 48.8889 37.7797 48.8889 36ZM40 40C38.9896 40 38.0207 39.5786 37.3062 38.8284C36.5918 38.0783 36.1904 37.0609 36.1904 36C36.1904 34.9391 36.5918 33.9217 37.3062 33.1716C38.0207 32.4214 38.9896 32 40 32C41.0103 32 41.9793 32.4214 42.6937 33.1716C43.4081 33.9217 43.8095 34.9391 43.8095 36C43.8095 37.0609 43.4081 38.0783 42.6937 38.8284C41.9793 39.5786 41.0103 40 40 40Z" fill="#F7F7F7"/>
</g>
</svg>
