<svg width="644" height="644" viewBox="0 0 644 644" fill="none" xmlns="http://www.w3.org/2000/svg">
<rect width="644" height="644" fill="#E5E5E5"/>
<g clip-path="url(#clip0_0_1)">
<rect width="1440" height="4186" transform="translate(-398 -482)" fill="#F7F7F7"/>
<path d="M-398 -482H1042V706C1042 706 663.5 756 322 756C-19.5 756 -398 706 -398 706V-482Z" fill="url(#paint0_linear_0_1)"/>
<circle cx="321.981" cy="321.868" r="208.981" stroke="#66FCF1" stroke-linecap="round"/>
<circle cx="322" cy="322" r="252" stroke="#66FCF1" stroke-opacity="0.4" stroke-width="2" stroke-linecap="round" stroke-dasharray="3 9"/>
<circle cx="322" cy="322" r="322" stroke="#48C6EF" stroke-opacity="0.4" stroke-linecap="round" stroke-linejoin="round" stroke-dasharray="0 8"/>
<g filter="url(#filter0_bd_0_1)">
<mask id="path-5-inside-1_0_1" fill="white">
<path d="M398.342 133.642C403.603 91.4423 373.658 52.9685 331.459 47.7079C289.259 42.4474 250.786 72.3921 245.525 114.591C240.265 156.791 270.209 195.265 312.409 200.525C354.608 205.786 393.082 175.841 398.342 133.642Z"/>
</mask>
<path d="M398.342 133.642C403.603 91.4423 373.658 52.9685 331.459 47.7079C289.259 42.4474 250.786 72.3921 245.525 114.591C240.265 156.791 270.209 195.265 312.409 200.525C354.608 205.786 393.082 175.841 398.342 133.642Z" fill="white" fill-opacity="0.2" shape-rendering="crispEdges"/>
<path d="M398.342 133.642C403.603 91.4423 373.658 52.9685 331.459 47.7079C289.259 42.4474 250.786 72.3921 245.525 114.591C240.265 156.791 270.209 195.265 312.409 200.525C354.608 205.786 393.082 175.841 398.342 133.642Z" stroke="#66FCF1" stroke-width="2" shape-rendering="crispEdges" mask="url(#path-5-inside-1_0_1)"/>
</g>
<g filter="url(#filter1_b_0_1)">
<mask id="path-6-inside-2_0_1" fill="white">
<path d="M398.378 532.588C403.655 490.39 373.721 451.931 331.52 446.686C289.319 441.442 250.83 471.398 245.554 513.595C240.277 555.792 270.211 594.252 312.412 599.496C354.613 604.741 393.102 574.785 398.378 532.588Z"/>
</mask>
<path d="M398.378 532.588C403.655 490.39 373.721 451.931 331.52 446.686C289.319 441.442 250.83 471.398 245.554 513.595C240.277 555.792 270.211 594.252 312.412 599.496C354.613 604.741 393.102 574.785 398.378 532.588Z" fill="white" fill-opacity="0.2"/>
<path d="M398.378 532.588C403.655 490.39 373.721 451.931 331.52 446.686C289.319 441.442 250.83 471.398 245.554 513.595C240.277 555.792 270.211 594.252 312.412 599.496C354.613 604.741 393.102 574.785 398.378 532.588Z" stroke="#66FCF1" stroke-width="2" mask="url(#path-6-inside-2_0_1)"/>
</g>
<path d="M170.12 193.068C169.533 193.068 169.03 192.537 169.03 191.917V179.164H156.948C156.361 179.164 155.857 178.633 155.857 178.013C155.857 177.393 156.361 176.861 156.948 176.861H170.12C170.708 176.861 171.211 177.393 171.211 178.013V191.917C171.211 192.537 170.708 193.068 170.12 193.068Z" fill="white"/>
<path d="M472.937 179.463H460.497C459.942 179.463 459.467 178.962 459.467 178.378C459.467 177.794 459.942 177.293 460.497 177.293H471.907V165.194C471.907 164.61 472.383 164.109 472.937 164.109C473.492 164.109 473.967 164.61 473.967 165.194V178.295C473.967 178.962 473.492 179.463 472.937 179.463Z" fill="white"/>
<g filter="url(#filter2_b_0_1)">
<mask id="path-9-inside-3_0_1" fill="white">
<path d="M197.342 336.642C202.603 294.442 172.658 255.968 130.459 250.708C88.2595 245.447 49.7856 275.392 44.5251 317.591C39.2645 359.791 69.2093 398.265 111.409 403.525C153.608 408.786 192.082 378.841 197.342 336.642Z"/>
</mask>
<path d="M197.342 336.642C202.603 294.442 172.658 255.968 130.459 250.708C88.2595 245.447 49.7856 275.392 44.5251 317.591C39.2645 359.791 69.2093 398.265 111.409 403.525C153.608 408.786 192.082 378.841 197.342 336.642Z" fill="white" fill-opacity="0.2"/>
<path d="M197.342 336.642C202.603 294.442 172.658 255.968 130.459 250.708C88.2595 245.447 49.7856 275.392 44.5251 317.591C39.2645 359.791 69.2093 398.265 111.409 403.525C153.608 408.786 192.082 378.841 197.342 336.642Z" stroke="#66FCF1" stroke-width="2" mask="url(#path-9-inside-3_0_1)"/>
</g>
<g filter="url(#filter3_bd_0_1)">
<mask id="path-10-inside-4_0_1" fill="white">
<path d="M600.342 336.642C605.603 294.442 575.658 255.968 533.459 250.708C491.259 245.447 452.786 275.392 447.525 317.591C442.265 359.791 472.209 398.265 514.409 403.525C556.608 408.786 595.082 378.841 600.342 336.642Z"/>
</mask>
<path d="M600.342 336.642C605.603 294.442 575.658 255.968 533.459 250.708C491.259 245.447 452.786 275.392 447.525 317.591C442.265 359.791 472.209 398.265 514.409 403.525C556.608 408.786 595.082 378.841 600.342 336.642Z" fill="white" fill-opacity="0.2" shape-rendering="crispEdges"/>
<path d="M600.342 336.642C605.603 294.442 575.658 255.968 533.459 250.708C491.259 245.447 452.786 275.392 447.525 317.591C442.265 359.791 472.209 398.265 514.409 403.525C556.608 408.786 595.082 378.841 600.342 336.642Z" stroke="#66FCF1" stroke-width="2" shape-rendering="crispEdges" mask="url(#path-10-inside-4_0_1)"/>
</g>
<path d="M485.905 465.169H474.928C474.439 465.169 474.02 464.75 474.02 464.26V453.283C474.02 452.794 474.439 452.375 474.928 452.375C475.418 452.375 475.837 452.794 475.837 453.283V463.351H485.905C486.395 463.351 486.814 463.771 486.814 464.26C486.814 464.75 486.465 465.169 485.905 465.169Z" fill="white"/>
<path d="M165.417 475.405C164.862 475.405 164.387 474.877 164.387 474.26V460.344C164.387 459.727 164.862 459.198 165.417 459.198H177.857C178.412 459.198 178.887 459.727 178.887 460.344C178.887 460.96 178.412 461.489 177.857 461.489H166.447V474.172C166.447 474.877 165.971 475.405 165.417 475.405Z" fill="white"/>
<text fill="#66FCF1" xml:space="preserve" style="white-space: pre" font-family="Montserrat" font-size="19" font-weight="600" letter-spacing="0.07em"><tspan x="266.851" y="119.812">AFFILIATE&#10;</tspan><tspan x="266.456" y="141.812">MANAGER</tspan></text>
<text fill="#66FCF1" xml:space="preserve" style="white-space: pre" font-family="Montserrat" font-size="19" font-weight="600" letter-spacing="0.07em"><tspan x="472.326" y="333.812">REPORTS</tspan></text>
<text fill="#66FCF1" xml:space="preserve" style="white-space: pre" font-family="Montserrat" font-size="19" font-weight="600" letter-spacing="0.07em"><tspan x="84.3962" y="322.812">DEALS&#10;</tspan><tspan x="64.4558" y="344.812">MANAGER</tspan></text>
<text fill="#66FCF1" xml:space="preserve" style="white-space: pre" font-family="Montserrat" font-size="19" font-weight="600" letter-spacing="0.07em"><tspan x="256.479" y="523.812">MARKETING&#10;</tspan><tspan x="286.109" y="545.812">TOOLS</tspan></text>
<text fill="#66FCF1" xml:space="preserve" style="white-space: pre" font-family="Montserrat" font-size="17" font-weight="500" letter-spacing="0.05em"><tspan x="226.02" y="256.594">PAYMENT MODULES</tspan></text>
<text fill="#66FCF1" xml:space="preserve" style="white-space: pre" font-family="Montserrat" font-size="17" font-weight="500" letter-spacing="0.05em"><tspan x="258.21" y="300.594">COMPLIANCE</tspan></text>
<text fill="#66FCF1" xml:space="preserve" style="white-space: pre" font-family="Montserrat" font-size="17" font-weight="500" letter-spacing="0.05em"><tspan x="197.017" y="396.094">ORGANIZATION MANAGER</tspan></text>
<text fill="#66FCF1" xml:space="preserve" style="white-space: pre" font-family="Montserrat" font-size="17" font-weight="500" letter-spacing="0.05em"><tspan x="241.031" y="349.594">COMMUNICATOR</tspan></text>
<circle cx="567" cy="531" r="10" fill="#66FCF1"/>
<circle cx="118" cy="71" r="16" fill="#66FCF1"/>
<line x1="320" y1="273.5" x2="324" y2="273.5" stroke="white"/>
<line x1="320" y1="319.5" x2="324" y2="319.5" stroke="white"/>
<line x1="320" y1="367.5" x2="324" y2="367.5" stroke="white"/>
</g>
<defs>
<filter id="filter0_bd_0_1" x="194.926" y="-2.8916" width="254.016" height="254.016" filterUnits="userSpaceOnUse" color-interpolation-filters="sRGB">
<feFlood flood-opacity="0" result="BackgroundImageFix"/>
<feGaussianBlur in="BackgroundImageFix" stdDeviation="25"/>
<feComposite in2="SourceAlpha" operator="in" result="effect1_backgroundBlur_0_1"/>
<feColorMatrix in="SourceAlpha" type="matrix" values="0 0 0 0 0 0 0 0 0 0 0 0 0 0 0 0 0 0 127 0" result="hardAlpha"/>
<feOffset dy="4"/>
<feGaussianBlur stdDeviation="22"/>
<feComposite in2="hardAlpha" operator="out"/>
<feColorMatrix type="matrix" values="0 0 0 0 0 0 0 0 0 0 0 0 0 0 0 0 0 0 0.05 0"/>
<feBlend mode="normal" in2="effect1_backgroundBlur_0_1" result="effect2_dropShadow_0_1"/>
<feBlend mode="normal" in="SourceGraphic" in2="effect2_dropShadow_0_1" result="shape"/>
</filter>
<filter id="filter1_b_0_1" x="194.951" y="396.09" width="254.031" height="254.002" filterUnits="userSpaceOnUse" color-interpolation-filters="sRGB">
<feFlood flood-opacity="0" result="BackgroundImageFix"/>
<feGaussianBlur in="BackgroundImageFix" stdDeviation="25"/>
<feComposite in2="SourceAlpha" operator="in" result="effect1_backgroundBlur_0_1"/>
<feBlend mode="normal" in="SourceGraphic" in2="effect1_backgroundBlur_0_1" result="shape"/>
</filter>
<filter id="filter2_b_0_1" x="-6.07422" y="200.108" width="254.016" height="254.016" filterUnits="userSpaceOnUse" color-interpolation-filters="sRGB">
<feFlood flood-opacity="0" result="BackgroundImageFix"/>
<feGaussianBlur in="BackgroundImageFix" stdDeviation="25"/>
<feComposite in2="SourceAlpha" operator="in" result="effect1_backgroundBlur_0_1"/>
<feBlend mode="normal" in="SourceGraphic" in2="effect1_backgroundBlur_0_1" result="shape"/>
</filter>
<filter id="filter3_bd_0_1" x="396.926" y="200.108" width="254.016" height="254.016" filterUnits="userSpaceOnUse" color-interpolation-filters="sRGB">
<feFlood flood-opacity="0" result="BackgroundImageFix"/>
<feGaussianBlur in="BackgroundImageFix" stdDeviation="25"/>
<feComposite in2="SourceAlpha" operator="in" result="effect1_backgroundBlur_0_1"/>
<feColorMatrix in="SourceAlpha" type="matrix" values="0 0 0 0 0 0 0 0 0 0 0 0 0 0 0 0 0 0 127 0" result="hardAlpha"/>
<feOffset dy="4"/>
<feGaussianBlur stdDeviation="22"/>
<feComposite in2="hardAlpha" operator="out"/>
<feColorMatrix type="matrix" values="0 0 0 0 0 0 0 0 0 0 0 0 0 0 0 0 0 0 0.05 0"/>
<feBlend mode="normal" in2="effect1_backgroundBlur_0_1" result="effect2_dropShadow_0_1"/>
<feBlend mode="normal" in="SourceGraphic" in2="effect2_dropShadow_0_1" result="shape"/>
</filter>
<linearGradient id="paint0_linear_0_1" x1="-426.5" y1="-97.0003" x2="1079.32" y2="706.719" gradientUnits="userSpaceOnUse">
<stop offset="0.33239" stop-color="#202833"/>
<stop offset="0.983624"/>
</linearGradient>
<clipPath id="clip0_0_1">
<rect width="1440" height="4186" fill="white" transform="translate(-398 -482)"/>
</clipPath>
</defs>
</svg>
